<svg id="Layer_1" data-name="Layer 1" xmlns="http://www.w3.org/2000/svg" viewBox="0 0 25 25"><defs><style>.cls-1{opacity:0.8;}.cls-2{fill:#575757;}</style></defs><g id="content" class="cls-1"><path class="cls-2" d="M21.05,16.17c-.8-.73-1.6-1.46-2.42-2.18A2,2,0,0,0,16,14c-.39.34-.78.68-1.14,1a.38.38,0,0,1-.51.08,12.52,12.52,0,0,1-4.91-4.51c.47-.42.92-.82,1.36-1.23a1.55,1.55,0,0,0,0-2.43Q9.66,5.85,8.46,4.8a2,2,0,0,0-2.79,0c-.48.43-1,.86-1.43,1.3A2.57,2.57,0,0,0,3.39,8,6.09,6.09,0,0,0,4,10.7a17.35,17.35,0,0,0,6.08,7.15,14.78,14.78,0,0,0,6.75,2.85A3.35,3.35,0,0,0,19.53,20c.54-.46,1.07-.94,1.57-1.44A1.57,1.57,0,0,0,21.05,16.17ZM20.13,18c-.43.4-.86.81-1.3,1.2A2.3,2.3,0,0,1,17,19.7a11.52,11.52,0,0,1-4.32-1.5,17,17,0,0,1-7.54-7.74A11.52,11.52,0,0,1,4.61,9a4.68,4.68,0,0,1-.11-.75,1.89,1.89,0,0,1,.71-1.5c.44-.38.86-.78,1.3-1.16a.78.78,0,0,1,1.17,0C8.47,6.25,9.26,7,10,7.68a.59.59,0,0,1,0,1c-.44.41-.9.8-1.35,1.2A.78.78,0,0,0,8.43,11,10.75,10.75,0,0,0,11,14.11a12.22,12.22,0,0,0,3.11,2A1,1,0,0,0,15.37,16c.46-.4.89-.81,1.35-1.21a.77.77,0,0,1,1.21,0c.73.65,1.47,1.31,2.19,2C20.61,17.22,20.6,17.53,20.13,18Z"/></g></svg>