<svg id="Layer_1" data-name="Layer 1" xmlns="http://www.w3.org/2000/svg" viewBox="0 0 21 21"><g id="content"><path d="M19.75,10.89a1,1,0,0,0-.27-.35Q15.27,6.31,11,2.09c-.4-.4-.66-.4-1,0L3.73,8.33l-2.3,2.31a.55.55,0,0,0,0,.83.58.58,0,0,0,.83,0,3.44,3.44,0,0,0,.27-.27l1.1-1.09v8.32c0,.64.16.8.8.8h12.2c.69,0,.82-.13.82-.81V10.18l.09,0,1.31,1.33a.52.52,0,0,0,.7.08A.53.53,0,0,0,19.75,10.89Zm-7.9,7.17H9.16V12.62h2.69Zm4.43-1.73v1.73H13V12.12c0-.47-.19-.67-.64-.68-1.2,0-2.41,0-3.61,0-.61,0-.77.3-.76.81,0,1.84,0,3.69,0,5.53,0,.09,0,.18,0,.29H4.74v-.39q0-4.23,0-8.44a.69.69,0,0,1,.17-.46c1.81-1.83,3.63-3.64,5.45-5.46a1.67,1.67,0,0,1,.17-.15c1.88,1.89,3.73,3.75,5.58,5.63a.71.71,0,0,1,.15.46Q16.29,12.79,16.28,16.33Z"/></g></svg>