<svg id="Layer_1" data-name="Layer 1" xmlns="http://www.w3.org/2000/svg" viewBox="0 0 21 21"><g id="content"><path class="cls-2" d="M13.63,12.57l-.43-.18.38-.26a6.12,6.12,0,0,0,1.3-9.21,6.07,6.07,0,0,0-8.6-.37,5.73,5.73,0,0,0-1.9,4.32,5.92,5.92,0,0,0,3,5.3l.37.26-.42.18a8.57,8.57,0,0,0-3.74,3.1,8.06,8.06,0,0,0-1.39,4.35h1A7.57,7.57,0,0,1,10.45,13h.05a7.72,7.72,0,0,1,4.9,1.91,7.14,7.14,0,0,1,2.51,5.18h.93A8.26,8.26,0,0,0,13.63,12.57ZM10.39,12a5.06,5.06,0,0,1-5-4.92V7a5.09,5.09,0,0,1,5-5,5,5,0,0,1,5.08,5A4.86,4.86,0,0,1,14,10.4,5.06,5.06,0,0,1,10.5,12Z"/></g></svg>