<svg id="Layer_1" data-name="Layer 1" xmlns="http://www.w3.org/2000/svg" viewBox="0 0 20 20"><g id="content"><path class="cls-1" d="M17.64,4.19H2.39A1.35,1.35,0,0,0,.85,5.72v8.57a1.35,1.35,0,0,0,1.52,1.52H17.65a1.35,1.35,0,0,0,1.5-1.52V5.7A1.35,1.35,0,0,0,17.64,4.19Zm-.54.92.09.09a1,1,0,0,0-.21.09L10.2,10.68c-.14.11-.23.14-.39,0L3,5.24l-.15-.13Zm.6,9.79H2.3c-.4,0-.55-.12-.55-.49V5.63a1.05,1.05,0,0,1,0-.18C2.47,6,3.12,6.52,3.78,7l5.58,4.45a.85.85,0,0,0,1.27,0l7.31-5.81.28-.21c0,.12,0,.2,0,.29v8.59C18.25,14.77,18.13,14.9,17.7,14.9Z"/></g></svg>
