<svg id="Layer_1" data-name="Layer 1" xmlns="http://www.w3.org/2000/svg" viewBox="0 0 21 21"><g id="content"><path class="cls-2" d="M17.84,10.5c0-2.63,0-5.26,0-7.89a1.94,1.94,0,0,0-2-1.92H5.16a2,2,0,0,0-2,1.73,7,7,0,0,0,0,1V18.2a2,2,0,0,0,2.09,2.11H15.62a2,2,0,0,0,2.24-2.24V10.5Zm-.77,7.61a1.25,1.25,0,0,1-1.38,1.39q-5.17,0-10.35,0a1.25,1.25,0,0,1-1.4-1.4V2.89A1.24,1.24,0,0,1,5.32,1.5q5.17,0,10.35,0a1.25,1.25,0,0,1,1.4,1.4c0,2.55,0,5.1,0,7.65S17.08,15.59,17.07,18.11Z"/><path class="cls-2" d="M15.4,15c0,.35-.27.42-.58.42H6.18c-.29,0-.55-.05-.56-.4s.28-.42.58-.42h8.63C15.12,14.59,15.39,14.66,15.4,15Z"/><path class="cls-2" d="M15.41,11.74c0,.34-.27.4-.56.4H6.09c-.26,0-.48-.07-.48-.38s.2-.4.5-.4h8.76C15.16,11.34,15.42,11.39,15.41,11.74Z"/><path class="cls-2" d="M15.31,8.69a.74.74,0,0,1-.48.15H10.47v0H6.11c-.28,0-.51,0-.5-.39s.23-.38.49-.38h8.81a.63.63,0,0,1,.44.22A.41.41,0,0,1,15.31,8.69Z"/><path class="cls-2" d="M11.31,5.17c0,.31-.24.43-.55.42H6.15c-.3,0-.53-.09-.53-.43s.24-.39.52-.39h4.61C11,4.77,11.31,4.85,11.31,5.17Z"/></g></svg>