<svg id="Layer_1" data-name="Layer 1" xmlns="http://www.w3.org/2000/svg" viewBox="0 0 25 25"><defs><style>.cls-1{opacity:0.8;}.cls-2{fill:#575757;}</style></defs><g id="content" class="cls-1"><path class="cls-2" d="M21.7,6.17A1.1,1.1,0,0,0,21,6H3.84c-.49,0-.69.18-.69.62V18.34c0,.44.21.62.72.62H21.22c.42,0,.62-.18.63-.56V6.76C21.85,6.45,21.81,6.27,21.7,6.17Zm-17.64,12L4,8.22l.22.2L9.33,13C10.59,14.07,11.68,15,12,15.32s.58.4,1,0L15.65,13c1.9-1.68,4.25-3.77,5.12-4.52L21,8.29v9.86Zm8.48-3.61L4,6.85H21Z"/></g></svg>