<svg xmlns="http://www.w3.org/2000/svg" viewBox="0 0 12.44 15.45"><g id="content"><path d="M5.61,15.42l-.3,0a6.17,6.17,0,0,1-2.89-1.23A6.09,6.09,0,0,1,.2,10.82,5.16,5.16,0,0,1,0,9.3c0-.19,0-.39,0-.58,0,0,0-.05,0-.07s0,0,.06,0A1.64,1.64,0,0,0,1,8.92a1.26,1.26,0,0,0,.78-.36,1.89,1.89,0,0,0,.32-.37.08.08,0,0,1,.11,0,3.08,3.08,0,0,0,1,.15,2.11,2.11,0,0,0,1.43-.6,2,2,0,0,0,.58-1.33A3.55,3.55,0,0,0,5.1,5.16s0-.08,0-.1A1.27,1.27,0,0,0,5.92,4a2.44,2.44,0,0,0-.09-.85c0-.09,0-.1.08-.1a6.44,6.44,0,0,1,3,.66,6.8,6.8,0,0,1,1.48,1,6.26,6.26,0,0,1,2,3.68,6.38,6.38,0,0,1,0,1.69,6.11,6.11,0,0,1-1.55,3.35,6.23,6.23,0,0,1-3.09,1.87,4.33,4.33,0,0,1-1,.15H6.68c.09,0,.17,0,.24,0H5.53ZM8.4,8.63a.92.92,0,0,0,1,.92.93.93,0,0,0,.91-.93.91.91,0,0,0-.95-.92A.9.9,0,0,0,8.4,8.63Zm-3,3.54a.86.86,0,1,0-1.72,0,.86.86,0,0,0,1.72,0Zm4-.44a.66.66,0,1,0-.65.65A.65.65,0,0,0,9.38,11.73ZM6.94,9.4a.52.52,0,0,0-.55-.52.53.53,0,1,0,0,1.06A.52.52,0,0,0,6.94,9.4Zm.37-2.3a.5.5,0,0,0,.52-.51.51.51,0,0,0-.51-.51.51.51,0,0,0,0,1Z"/><path d="M1.77,3.45A1.76,1.76,0,0,0,3.49,1.72,1.74,1.74,0,0,0,1.76,0,1.73,1.73,0,0,0,0,1.8,1.75,1.75,0,0,0,1.77,3.45Z"/><path d="M1.48,6.1A1.34,1.34,0,0,0,2.8,7.37a1.29,1.29,0,0,0,0-2.58A1.32,1.32,0,0,0,1.48,6.1Z"/></g></svg>
