<?xml version="1.0" encoding="utf-8"?>
<!-- Generator: Adobe Illustrator 27.6.1, SVG Export Plug-In . SVG Version: 6.00 Build 0)  -->
<svg version="1.1" id="Layer_1" xmlns="http://www.w3.org/2000/svg" xmlns:xlink="http://www.w3.org/1999/xlink" x="0px" y="0px"
	 viewBox="0 0 22.9 22.9" style="enable-background:new 0 0 22.9 22.9;" xml:space="preserve">
<style type="text/css">
	.st0{fill:#33E0A1;}
	.st1{fill:none;}
</style>
<path class="st0" d="M22.9,11.4c0,0.2,0,0.4,0,0.6c-0.3,6-5.3,10.8-11.4,10.8c-0.6,0-1.3,0-1.9-0.1C4.1,21.9,0,17.1,0,11.4
	C0,5.1,5.1,0,11.4,0S22.9,5.1,22.9,11.4z"/>
<g>
	<path d="M20.3,11.8v0.9c0,0,0-0.1,0-0.1c0,0.2,0,0.3,0,0.4c-0.2,1-0.6,1.8-1.4,2.5c-1,0.9-2.2,1.3-3.6,1.1c-0.9-0.1-1.7-0.5-2.3-1
		c-0.1-0.1-0.1-0.1-0.2,0c-0.4,0.4-0.8,0.9-1.2,1.3c0,0-0.1,0.1-0.1,0.1h0c0,0,0-0.1-0.1-0.1c-0.4-0.5-0.9-0.9-1.3-1.4
		c-0.1-0.1-0.1-0.1-0.1,0c-0.8,0.7-1.8,1.1-2.9,1.1c-0.4,0-0.8,0-1.1-0.1c-1.3-0.3-2.3-1.1-2.9-2.3c-0.4-0.7-0.5-1.5-0.5-2.3
		c0-0.5,0.1-0.9,0.3-1.4c0.2-0.6,0.6-1.1,1-1.5c0,0,0.1-0.1,0-0.1c-0.5-0.5-0.9-1-1.3-1.4c0,0,0,0,0-0.1c0,0,0,0,0.1,0
		c0.9,0,1.8,0,2.7,0c0.1,0,0.2,0,0.2,0c0.1,0,0.2,0,0.3-0.1C6.9,6.8,8,6.3,9.2,6c0.5-0.1,1-0.2,1.6-0.2c0.3,0,0.5-0.1,0.8,0
		c0.4,0,0.8,0,1.2,0.1c0.6,0.1,1.1,0.2,1.7,0.4c0.9,0.3,1.7,0.7,2.5,1.2c0.1,0.1,0.2,0.1,0.4,0.1c1,0,2,0,2.9,0c0,0,0.1,0,0,0.1
		c0,0,0,0,0,0c-0.2,0.2-0.4,0.4-0.6,0.6c-0.2,0.3-0.5,0.6-0.8,0.8c0,0,0,0.1,0,0.1c0,0,0,0,0.1,0.1c0.5,0.5,0.8,1,1.1,1.6
		C20.2,11.2,20.2,11.5,20.3,11.8c-0.1,0-0.1,0.1,0,0.2C20.3,12,20.3,11.9,20.3,11.8L20.3,11.8z M7,15.4c1.6,0,3-1.3,3-3
		c0-1.6-1.3-3-2.9-3c-1.8,0-3,1.4-3.1,2.9C4,14,5.4,15.4,7,15.4z M15.9,15.4c1.6,0,3-1.3,3-3c0-1.6-1.3-3-2.9-3
		c-1.7,0-3,1.3-3.1,2.9C12.8,14,14.3,15.4,15.9,15.4z M11.4,12C11.4,12,11.5,11.9,11.4,12c0-0.2,0.1-0.2,0.1-0.3
		c0.1-0.5,0.2-1,0.5-1.4c0.6-1.1,1.5-1.8,2.6-2.2c0,0,0.1,0,0.1-0.1s-0.1-0.1-0.1-0.1c-0.9-0.4-1.9-0.6-2.9-0.6
		c-0.5,0-1.1,0-1.6,0.1C9.5,7.4,8.8,7.6,8.2,7.8c0,0-0.1,0-0.1,0.1s0,0,0.1,0.1C8.5,8,8.7,8.2,8.9,8.3c0.8,0.5,1.4,1.1,1.9,1.9
		c0.3,0.5,0.5,1,0.6,1.5C11.4,11.8,11.4,11.9,11.4,12L11.4,12z"/>
	<path d="M7,10.8c0.8,0,1.6,0.6,1.6,1.6S7.8,13.9,7,13.9c-0.8,0-1.6-0.6-1.6-1.6C5.4,11.4,6.2,10.8,7,10.8L7,10.8z"/>
	<path d="M15.9,13.9c-0.8,0-1.6-0.6-1.6-1.6c0-1,0.8-1.6,1.6-1.6c0.8,0,1.6,0.6,1.6,1.6C17.5,13.2,16.7,13.9,15.9,13.9L15.9,13.9z"
		/>
</g>
<circle class="st1" cx="11.4" cy="11.4" r="11.4"/>
</svg>
