<svg xmlns="http://www.w3.org/2000/svg" viewBox="0 0 22.6 22.6"><defs><style>.cls-1{isolation:isolate;}.cls-2{fill:#cc2127;}.cls-3{fill:#fff;}.cls-4{fill:#231f20;opacity:0.3;mix-blend-mode:multiply;}</style></defs><title>Asset 5</title><g class="cls-1"><g id="Layer_2" data-name="Layer 2"><g id="Layer_1-2" data-name="Layer 1"><g id="YouTube"><path id="Base" class="cls-2" d="M22.6,11.3a11.12,11.12,0,0,1-.06,1.16A11.29,11.29,0,0,1,12.45,22.54a10.93,10.93,0,0,1-1.15.06A11.3,11.3,0,1,1,22.6,11.3Z"/><path id="Logo" class="cls-3" d="M18.06,10.6v-.25l0-.47,0-.53c0-.23-.06-.45-.08-.67A4.22,4.22,0,0,0,17.78,8a1.62,1.62,0,0,0-1.1-1.13,3.85,3.85,0,0,0-.89-.15l-.25,0-.31,0-.38,0-.49,0-.61,0-.95,0h-.67c-.85,0-1.7,0-2.55,0H9.29l-.74,0-.43,0-.44,0-.27,0-.31,0-.43,0a4.31,4.31,0,0,0-.61.1A1.65,1.65,0,0,0,4.81,8c-.06.21-.09.42-.13.63s0,.31,0,.46l0,.38,0,.34c0,.14,0,.29,0,.44s0,.54,0,.81,0,.61,0,.92,0,.38,0,.56,0,.4,0,.6l.06.63a4.94,4.94,0,0,0,.14.75A1.66,1.66,0,0,0,6,15.75c.15,0,.31.06.47.09l.5.06.51,0,.76.05.59,0L10,16l1.27,0,1.69,0,.84,0,.61,0,.48,0,.33,0,.49,0,.61-.07a2.17,2.17,0,0,0,.5-.13,1.66,1.66,0,0,0,.94-1,4,4,0,0,0,.19-.91c0-.23.05-.46.07-.69s0-.47.05-.71,0-.54,0-.82S18.07,10.93,18.06,10.6ZM9.94,13.32V9.27l3.51,2Z"/><g id="Shadow"><path id="_02" data-name="02" class="cls-4" d="M9.94,9.27v4.05l3.51-2Z"/><path id="_01" data-name="01" class="cls-4" d="M17.46,7.38h0a1.57,1.57,0,0,1,.33.61,4.22,4.22,0,0,1,.14.69c0,.22,0,.44.08.67l0,.53,0,.47v.25c0,.33,0,.66,0,1s0,.55,0,.82,0,.48-.05.71,0,.46-.07.69a4,4,0,0,1-.19.91,1.66,1.66,0,0,1-.94,1,2.17,2.17,0,0,1-.5.13l-.61.07-.49,0-.33,0-.48,0-.61,0-.84,0-1.69,0L10,16,8.81,16l-.59,0-.76-.05L7,15.9l-.5-.06c-.16,0-.32-.05-.47-.09a1.69,1.69,0,0,1-.81-.51h0l7.29,7.29A11.29,11.29,0,0,0,22.54,12.46Z"/></g></g></g></g></g></svg>