<svg xmlns="http://www.w3.org/2000/svg" viewBox="0 0 16.19 11.86"><g id="content"><path class="cls-1" d="M0,11.33V.52A.43.43,0,0,0,0,.45.77.77,0,0,1,.76,0h9.47c.61,0,.9.25.9.78V3.26a.74.74,0,0,1-1,.66.68.68,0,0,1-.53-.66V1.33H1.53v9.2H9.61v-2a.69.69,0,0,1,.53-.64.79.79,0,0,1,.83.24.77.77,0,0,1,.15.43c0,.85,0,1.7,0,2.54,0,.44-.32.71-.82.71H1A.92.92,0,0,1,0,11.33Z"/><path class="cls-1" d="M4.74,5.27h8.87c-.35-.3-.67-.56-1-.84a.61.61,0,0,1,.2-1.07.81.81,0,0,1,.78.08l.14.11,2.15,1.86a.62.62,0,0,1,0,1L13.74,8.33a.82.82,0,0,1-1.27-.15.61.61,0,0,1,.17-.77l.82-.71a1,1,0,0,0,.13-.11H4.89a.85.85,0,0,1-.72-.3A.66.66,0,0,1,4.74,5.27Z"/></g></svg>
