<svg xmlns="http://www.w3.org/2000/svg" viewBox="0 0 11.95 13.65"><g id="content"><path d="M0,11.18A4.74,4.74,0,0,1,.28,9.24,3.88,3.88,0,0,1,2.86,6.77a.24.24,0,0,1,.28.05,4.42,4.42,0,0,0,3.36,1,4.26,4.26,0,0,0,2.42-1,.28.28,0,0,1,.32-.06A4,4,0,0,1,11.86,10a8.79,8.79,0,0,1,.07,1.85.84.84,0,0,1-.33.63,3.41,3.41,0,0,1-1.28.63,12.45,12.45,0,0,1-2.57.44,18.26,18.26,0,0,1-2.09.08,15.87,15.87,0,0,1-3.94-.49,3.6,3.6,0,0,1-1.36-.63A.86.86,0,0,1,0,11.78C0,11.58,0,11.38,0,11.18Z"/><path d="M2.32,3.59a3.65,3.65,0,0,1,3-3.51,3.72,3.72,0,0,1,3.41,1A3.41,3.41,0,0,1,9.79,3.39,3.63,3.63,0,0,1,6.62,7.16a3.78,3.78,0,0,1-3.8-1.77A3.49,3.49,0,0,1,2.32,3.59Z"/></g></svg>
