<svg xmlns="http://www.w3.org/2000/svg" viewBox="0 0 12.94 9.74"><g id="content"><path d="M8.76,9.73H5.5a4.17,4.17,0,0,1-.71,0A1.16,1.16,0,0,1,4,9.07a.79.79,0,0,1-.1-.4V4.21a.94.94,0,0,1,.2-.6,1.23,1.23,0,0,1,.71-.47,2.75,2.75,0,0,1,.41,0l3.17,0h2.37c.41,0,.81,0,1.22.05a1.05,1.05,0,0,1,.79.5,2.69,2.69,0,0,1,.16.29.3.3,0,0,1,0,.16V8.74a.36.36,0,0,1,0,.14,1.42,1.42,0,0,1-.59.71,1.29,1.29,0,0,1-.58.13C10.65,9.76,9.54,9.72,8.76,9.73ZM8.68,5.55h-.2c-1.24,0-2.49,0-3.74,0-.15,0-.15,0-.15.16V7.46a11.81,11.81,0,0,0,0,1.19A.42.42,0,0,0,5,9H7c1.62,0,3.25,0,4.87,0a.41.41,0,0,0,.42-.43V5.7c0-.15,0-.15-.15-.15H8.68ZM8.46,4.44h3.69c.2,0,.19,0,.18-.19A.43.43,0,0,0,12,3.86H5A.44.44,0,0,0,4.68,4a.63.63,0,0,0-.1.27c0,.15,0,.15.14.15Z"/><path d="M3.14,6.13c0,.64,0,1.28,0,1.92a3.25,3.25,0,0,0,0,.54A1.28,1.28,0,0,0,3.3,9a1,1,0,0,1,0,.1s0,.06,0,.06a1.22,1.22,0,0,1-1.23-.55C1.79,8,1.52,7.49,1.24,7,.86,6.2.49,5.44.12,4.68A1.19,1.19,0,0,1,.34,3.32a1.07,1.07,0,0,1,.22-.15L3.05,1.91l2-1C5.65.63,6.22.33,6.81.08A1.17,1.17,0,0,1,8.23.59c.28.56.57,1.11.84,1.67,0,.08,0,.09-.06.09-1.39,0-2.79,0-4.19,0a1.61,1.61,0,0,0-.88.31,1.8,1.8,0,0,0-.74,1,1.62,1.62,0,0,0-.05.53C3.14,4.84,3.14,5.48,3.14,6.13Z"/><path d="M7,8.52a.75.75,0,0,1-.55-.22.06.06,0,0,0-.1,0,.77.77,0,0,1-.59.22A.76.76,0,0,1,5.64,7a.74.74,0,0,1,.64.15c.13.09.13.09.25,0a.74.74,0,0,1,1.08.19.76.76,0,0,1-.46,1.15Z"/></g></svg>
