<svg xmlns="http://www.w3.org/2000/svg" viewBox="0 0 22.71 22.71"><defs><style>.cls-1{isolation:isolate;}.cls-2{fill:#3b5a99;}.cls-3{fill:#fff;}.cls-4{fill:#231f20;opacity:0.3;mix-blend-mode:multiply;}</style></defs><title>Asset 3</title><g class="cls-1"><g id="Layer_2" data-name="Layer 2"><g id="Layer_1-2" data-name="Layer 1"><g id="Facebook"><path id="Base" class="cls-2" d="M22.71,11.36v.13c0,.26,0,.51,0,.77A11.36,11.36,0,0,1,13.5,22.51L13,22.6a12.36,12.36,0,0,1-1.62.11A11.36,11.36,0,1,1,22.71,11.36Z"/><path id="Logo" class="cls-3" d="M9.51,11.36v7.18h2.94V11.36h2c.09-.83.18-1.65.26-2.48H12.45v-1c0-.22,0-.45,0-.66a.51.51,0,0,1,.39-.49,1.12,1.12,0,0,1,.4-.07H14.6c.05,0,.06,0,.06-.06V4.24s0-.06-.06-.06H12.82a6.06,6.06,0,0,0-.85.05,3.42,3.42,0,0,0-.72.16A2.24,2.24,0,0,0,9.8,5.69,4.1,4.1,0,0,0,9.51,7.2c0,.54,0,1.08,0,1.62v.07H8v2.47Z"/><g id="Shadow"><path id="_02" data-name="02" class="cls-4" d="M9.51,12.83V11.36H8Z"/><path id="_01" data-name="01" class="cls-4" d="M14.66,4.24h0V6.6c0,.05,0,.06-.06.06H13.27a1.12,1.12,0,0,0-.4.07.51.51,0,0,0-.39.49c0,.21,0,.44,0,.66v1h2.22c-.08.83-.17,1.65-.26,2.48h-2v7.18H9.53l4,4a11.36,11.36,0,0,0,9.18-10.25Z"/></g></g></g></g></g></svg>