<svg xmlns="http://www.w3.org/2000/svg" viewBox="0 0 13.2 11.05"><g id="content"><path d="M7.91,8.8H4.45a.53.53,0,0,1-.58-.45L3.6,7.24c-.13-.5-.25-1-.38-1.52-.25-1-.5-2.07-.76-3.1-.12-.51-.25-1-.37-1.53C2.08,1,2.05,1,2,1,1.5,1,1,1,.52,1A.5.5,0,0,1,0,.54.51.51,0,0,1,.41,0h2A.5.5,0,0,1,3,.41c.09.38.19.76.28,1.14,0,.07,0,.08.1.08h9.35a.5.5,0,0,1,.5.64c-.08.31-.17.61-.25.91-.22.78-.43,1.56-.65,2.35,0,.15-.08.3-.13.46a.5.5,0,0,1-.43.34l-1,.13-1,.11-1,.13-.95.11L6.8,7l-1,.12-1,.13H4.67s0,0,0,.06l.12.49a.05.05,0,0,0,.06,0h6.56a.5.5,0,0,1,.15,1,.5.5,0,0,1-.17,0H7.91Z"/><path d="M10.31,11a1,1,0,0,1-1-.95,1,1,0,1,1,1.92,0A1,1,0,0,1,10.31,11Z"/><path d="M4.48,10.08a1,1,0,0,1,.95-1,1,1,0,0,1,1,1,1,1,0,0,1-1,1A1,1,0,0,1,4.48,10.08Z"/></g></svg>
