<svg xmlns="http://www.w3.org/2000/svg" viewBox="0 0 16.46 18.18"><defs><style>.cls-1{fill:#001e5b;}</style></defs><g id="calendar_svg">

<g id="Layer_2" data-name="Layer 2"><g id="Layer_1-2" data-name="Layer 1"><path class="cls-1" d="M16.46,4a1.62,1.62,0,0,0-1.28-1.61,10.91,10.91,0,0,0-1.63-.09V3.82a1.42,1.42,0,0,1,0,.29,1.6,1.6,0,0,1-3.18-.29V2.37H6.11V3.78a1.61,1.61,0,0,1-1.7,1.66,1.59,1.59,0,0,1-1.5-1.6V2.36H1.72A1.7,1.7,0,0,0,0,4.08v12.4a1.69,1.69,0,0,0,1.69,1.7H14.78a1.68,1.68,0,0,0,1.68-1.67Zm-1.09,3v9.3a.63.63,0,0,1-.72.71H1.79a.62.62,0,0,1-.7-.7V7.08a.76.76,0,0,1,0-.15H15.37Z"/><path class="cls-1" d="M5.55,3.84a1,1,0,1,1-2.09,0c0-.46,0-.93,0-1.39h0c0-.48,0-1,0-1.44A1,1,0,0,1,4.13.08,1,1,0,0,1,5.26.32a1,1,0,0,1,.3.73C5.56,2,5.56,2.91,5.55,3.84Z"/><path class="cls-1" d="M13,3.84a1,1,0,0,1-1,1,1,1,0,0,1-1.07-1V2.45h0c0-.48,0-1,0-1.44a1,1,0,0,1,.67-.93,1,1,0,0,1,1.13.25,1,1,0,0,1,.29.72C13,2,13,2.91,13,3.84Z"/><path class="cls-1" d="M7.72,12v0Z"/><path class="cls-1" d="M4.61,9.3a.43.43,0,0,1-.46.45H3a.44.44,0,0,1-.47-.46V8.12A.43.43,0,0,1,3,7.67H4.16a.43.43,0,0,1,.45.45Z"/><path class="cls-1" d="M13.94,9.28a.44.44,0,0,1-.49.47H12.32a.44.44,0,0,1-.47-.47V8.13a.43.43,0,0,1,.47-.46h1.15a.43.43,0,0,1,.47.46Z"/><path class="cls-1" d="M4.61,12.57a.45.45,0,0,1-.46.48H3a.44.44,0,0,1-.48-.47V11.43A.43.43,0,0,1,3,11H4.14a.44.44,0,0,1,.47.48Z"/><path class="cls-1" d="M13.94,12.6a.44.44,0,0,1-.47.45H12.32a.43.43,0,0,1-.47-.48V11.43a.44.44,0,0,1,.48-.47h1.15a.44.44,0,0,1,.46.44Z"/><path class="cls-1" d="M13.93,15.94a.43.43,0,0,1-.44.41H12.31a.44.44,0,0,1-.46-.46V14.72a.43.43,0,0,1,.46-.46h1.18a.41.41,0,0,1,.44.42Q14,15.31,13.93,15.94Z"/><path class="cls-1" d="M4.61,15.87a.44.44,0,0,1-.48.48H3a.45.45,0,0,1-.48-.47c0-.38,0-.76,0-1.15A.44.44,0,0,1,3,14.26H4.14a.43.43,0,0,1,.47.48Z"/><path class="cls-1" d="M10.83,15.9a.45.45,0,0,1-.45.45H9.18a.42.42,0,0,1-.43-.41q0-.64,0-1.29a.4.4,0,0,1,.4-.39h1.26a.43.43,0,0,1,.42.45v.6h0Z"/><path class="cls-1" d="M10.83,12.6a.43.43,0,0,1-.45.45H9.19a.44.44,0,0,1-.45-.44V11.4A.43.43,0,0,1,9.19,11h1.19a.44.44,0,0,1,.45.45Z"/><path class="cls-1" d="M7.71,15.94a.42.42,0,0,1-.44.41H6.08a.44.44,0,0,1-.45-.46V15.3h0v-.6a.43.43,0,0,1,.42-.44H7.31a.4.4,0,0,1,.4.39Q7.73,15.3,7.71,15.94Z"/><path class="cls-1" d="M7.72,9.31a.43.43,0,0,1-.46.44H6.11a.44.44,0,0,1-.48-.47V8.13a.43.43,0,0,1,.46-.46H7.28a.42.42,0,0,1,.44.41Z"/><path class="cls-1" d="M10.83,9.3a.44.44,0,0,1-.45.45H9.19a.43.43,0,0,1-.45-.41c0-.43,0-.86,0-1.28a.4.4,0,0,1,.41-.39h1.23a.42.42,0,0,1,.44.43Z"/><path class="cls-1" d="M7.72,12.61a.43.43,0,0,1-.44.44H6.09a.44.44,0,0,1-.46-.46V11.41A.43.43,0,0,1,6.07,11H7.28a.43.43,0,0,1,.44.43v1.22Z"/></g></g></g></svg>
