<svg xmlns="http://www.w3.org/2000/svg" viewBox="0 0 21.85 18.35"><defs><style>.cls-1{fill:#fff;}</style></defs><g id="cart-svg">
    <g id="Layer_2" data-name="Layer 2"><g id="Layer_1-2" data-name="Layer 1"><path d="M21.64,5.31c-.75,2.26-1.52,4.51-2.24,6.78a1.15,1.15,0,0,1-1.28.93c-3,0-5.94,0-8.91,0H8.35c.18,1.41.18,1.41,1.41,1.41,2.44,0,4.88,0,7.32,0a1.93,1.93,0,0,1,2,1.68,2,2,0,0,1-1.42,2.16,1.94,1.94,0,0,1-2.46-1.63,6.26,6.26,0,0,1,0-.88H10.48c0,.26,0,.51,0,.76A1.89,1.89,0,0,1,9,18.28a1.83,1.83,0,0,1-2-.73,1.72,1.72,0,0,1-.07-2.21,1.34,1.34,0,0,0,.18-1.44Q5.09,8,3.13,2.11c-.17-.53-.42-.77-1-.71a3.87,3.87,0,0,1-1.4,0C.45,1.29.24.92,0,.67.24.46.46.08.72.06a12.78,12.78,0,0,1,2.55,0,1.23,1.23,0,0,1,.78.69,19.43,19.43,0,0,1,.87,2.5c.15.55.44.71,1,.7q7.37,0,14.74,0C22,3.93,22.05,4.05,21.64,5.31Z"/></g></g>
</g></svg>
