<svg xmlns="http://www.w3.org/2000/svg" viewBox="0 0 7.73 10.92"><g id="content"><path d="M3.86,3.58H7A.44.44,0,0,1,7.44,4a1.22,1.22,0,0,1,0,.33c0,.18,0,.36,0,.54s0,.38,0,.58,0,.49,0,.73,0,.37,0,.55,0,.5,0,.75,0,.38,0,.56,0,.37,0,.56,0,.52,0,.78a1.59,1.59,0,0,1-.27.78,1.71,1.71,0,0,1-.88.68,1.87,1.87,0,0,1-.66.11H2.43a1.83,1.83,0,0,1-1.31-.52,1.53,1.53,0,0,1-.47-1C.62,9,.59,8.58.57,8.19L.51,7.42c0-.24,0-.47,0-.71l0-.56c0-.25,0-.49,0-.73s0-.36,0-.53,0-.51-.05-.76a.49.49,0,0,1,.22-.5.47.47,0,0,1,.24,0ZM2.47,7.72V7.44c0-.35,0-.71,0-1.07s0-.71,0-1.06a.29.29,0,0,0-.57,0c0,.1,0,.2,0,.29,0,.35,0,.69,0,1v.05c0,.38,0,.77,0,1.15s0,.73,0,1.1a.28.28,0,0,0,.47.2.29.29,0,0,0,.1-.25C2.5,8.5,2.49,8.11,2.47,7.72ZM5.9,5.36V5.31A.28.28,0,0,0,5.61,5a.31.31,0,0,0-.29.33c0,.35,0,.71,0,1.07s0,.61,0,.92,0,.35,0,.52c0,.34,0,.69,0,1a.5.5,0,0,0,0,.12.29.29,0,0,0,.56-.1c0-.09,0-.19,0-.29l0-1.09,0-1C5.87,6.18,5.89,5.77,5.9,5.36ZM3.58,7.12v1.8a.22.22,0,0,0,0,.08.28.28,0,0,0,.31.21.27.27,0,0,0,.25-.28V5.32A.28.28,0,0,0,3.87,5a.28.28,0,0,0-.29.29Z"/><path d="M3.86,3H.33A.29.29,0,0,1,0,2.68a1.5,1.5,0,0,1,.22-.83,1.13,1.13,0,0,1,.87-.54c.32,0,.64,0,1,0,.13,0,.13,0,.15-.13A1.33,1.33,0,0,1,2.7.3,1.39,1.39,0,0,1,3.51,0h.71A1.38,1.38,0,0,1,5.46.92a1.36,1.36,0,0,1,.06.29c0,.09,0,.09.1.09H6.5a1.2,1.2,0,0,1,.71.23,1.24,1.24,0,0,1,.49.84,1.28,1.28,0,0,1,0,.39A.27.27,0,0,1,7.46,3H3.86Zm0-1.7h.79s.06,0,0-.05A.5.5,0,0,0,4.21.82H3.53a.51.51,0,0,0-.5.4c0,.07,0,.08.06.08Z"/></g></svg>
