<svg xmlns="http://www.w3.org/2000/svg" viewBox="0 0 14.41 18.8"><defs><style>.cls-1{opacity:0.5;}.cls-2{fill:#001e5b;}</style></defs><g id="content" class="cls-1"><path class="cls-2" d="M13.06,7.14c0-.35-.09-.44-.45-.44H1.79c-.34,0-.43.09-.43.44v10a1.62,1.62,0,0,0,.57,1.31,1.85,1.85,0,0,0,.83.38h8.89a4.36,4.36,0,0,0,.51-.17,1.59,1.59,0,0,0,.9-1.54ZM4.62,16.49a.64.64,0,1,1-1.28.1V8.79a.7.7,0,0,1,.21-.57.63.63,0,0,1,1,.3,1.05,1.05,0,0,1,0,.31v7.66Zm3.23,0a.66.66,0,0,1-.47.71.63.63,0,0,1-.8-.53,1.48,1.48,0,0,1,0-.21V8.74a.64.64,0,0,1,1.27-.12.76.76,0,0,1,0,.15Zm3.23,0a.68.68,0,0,1-.41.68.63.63,0,0,1-.86-.48,1.23,1.23,0,0,1,0-.19V8.76a.69.69,0,0,1,.17-.5.63.63,0,0,1,1.11.43c0,.43,0,.86,0,1.29v6.5Z"/><path class="cls-2" d="M14.38,3.81A1.52,1.52,0,0,0,13,2.5c-.46,0-.92,0-1.38,0-.28,0-.39-.12-.39-.4s0-.4,0-.6A1.53,1.53,0,0,0,10.71.39,1.87,1.87,0,0,0,9.85,0H4.56L4.45,0A1.49,1.49,0,0,0,3.24,1.12a4.91,4.91,0,0,0-.09.94c0,.29-.12.4-.41.41-.46,0-.91,0-1.37,0A1.53,1.53,0,0,0,0,3.82c0,.5,0,1,0,1.51s.06.56.56.56H13.77c.1,0,.2,0,.3,0a.31.31,0,0,0,.34-.34C14.41,5,14.42,4.39,14.38,3.81ZM10,2.08c0,.27-.12.39-.39.39H4.84c-.32,0-.42-.11-.42-.42V1.64a.32.32,0,0,1,.33-.36H9.54c.36,0,.46.1.46.47Z"/><path class="cls-2" d="M7.92,2.47h0Z"/></g></svg>
