<svg xmlns="http://www.w3.org/2000/svg" viewBox="0 0 278.87 244.96"><defs><style>.cls-1{fill:#001e5b;}</style></defs><g id="catering-icon"><g id="Layer_2" data-name="Layer 2"><g id="Layer_1-2" data-name="Layer 1"><path class="cls-1" d="M262.38,147C254.18,86.54,220.8,49.15,162.14,34.1a24.91,24.91,0,0,0-8.23-29.48C146.2-1.15,135-1.63,126.26,3.84a23.27,23.27,0,0,0-9.3,11.1,24.11,24.11,0,0,0,0,19.14C58.08,49.3,24.7,86.7,16.65,147H0v16.35c5.73,0,11.45.1,17.17-.05a3.78,3.78,0,0,1,4.13,2.47c4.54,9.39,9.32,18.66,13.9,28a3.47,3.47,0,0,0,3.69,2.29q34.88-.11,69.75-.05h3.18c-3.36,10.05-6.69,19.72-9.77,29.47-.78,2.48-1.8,3.43-4.48,3.3-5-.24-10.09-.07-15.06-.07V245h114v-16.2c-3.72,0-7.25,0-10.78,0-2.52,0-5.62.69-7.39-.51s-1.88-4.32-2.65-6.62c-2.82-8.41-5.6-16.83-8.51-25.56h3.21c23.16,0,46.32,0,69.48.07a3.86,3.86,0,0,0,4.08-2.58c3.55-7.35,7.25-14.62,10.91-21.91,1.34-2.68,2.08-6.38,4.26-7.71s5.94-.51,9-.55c3.58,0,7.17,0,10.71,0V147ZM139.44,16.26a8.15,8.15,0,1,1-8.08,8.22A8.22,8.22,0,0,1,139.44,16.26ZM118.2,228.69c1.47-4.42,2.9-8.68,4.32-12.95,1.94-5.85,3.93-11.68,5.79-17.55.47-1.5,1.05-2.21,2.79-2.17,5.63.13,11.26,0,16.88.1.8,0,2.1.55,2.3,1.15,3.56,10.34,7,20.74,10.55,31.42ZM232.85,179a2,2,0,0,1-1.3.7,13.07,13.07,0,0,1-2.17,0q-89.88,0-179.75.07c-2.5,0-3.68-.77-4.66-3-2-4.42-4.28-8.7-6.59-13.32H240.65C238,168.86,235.43,173.94,232.85,179ZM34,146.91c1.78-44.23,38.82-92.32,95.61-97.4,64.61-5.78,112.34,44.41,115.64,97.4Z"/></g></g></g></svg>
