<svg xmlns="http://www.w3.org/2000/svg" viewBox="0 0 71.59 71.59"><defs><style>.cls-1{fill:#231f20;opacity:0.1;}</style></defs><g id="catering_home_icon"> <g id="Layer_2" data-name="Layer 2"><g id="Layer_1-2" data-name="Layer 1"><circle fill="var(--brand-grey)" class="cls-1" cx="35.79" cy="35.79" r="35.79"/><path d="M56.58,35.61a1.23,1.23,0,0,1-.79.36c-1.08,0-2.16,0-3.24,0-.1,0-.19,0-.34.06V52.64c0,2.27-1.2,3.46-3.46,3.46H40.06V44.49A1.87,1.87,0,0,0,38,42.38q-1.18,0-2.37,0a1.84,1.84,0,0,0-2,2V56.07l-.62,0H24.74a3.06,3.06,0,0,1-3.3-3.31V36H18.88c-.82,0-1.7.19-2.17-.85A3.12,3.12,0,0,1,16.82,32a4.23,4.23,0,0,1,.64-.76q8.49-8.49,17-17a3.08,3.08,0,0,1,4.77,0L56.26,31.31A3.06,3.06,0,0,1,56.58,35.61Z"/></g></g></g></svg>
