<svg xmlns="http://www.w3.org/2000/svg" viewBox="0 0 35.82 35.82"><defs><style>.cls-1{fill:#001e5b;}.cls-2{fill:#fff;}</style></defs><g id="circle-trash"> <g id="Layer_2" data-name="Layer 2"><g id="Layer_1-2" data-name="Layer 1"><circle style="fill: var(--primary)" class="cls-1" cx="17.91" cy="17.91" r="17.91"/><path style="fill: var(--white)" class="cls-2" d="M24,13.47c0-.24,0-.48,0-.75h-12c0,.28,0,.52,0,.75V26.06c0,1.2.41,1.61,1.62,1.61h8.88c1.21,0,1.62-.42,1.62-1.61Zm-8.46,10.4c0,.43,0,.91-.58.91s-.57-.5-.57-.92V16.52c0-.1,0-.22,0-.29.16-.23.35-.44.53-.66.2.22.57.44.58.67.06,1.31,0,2.62,0,3.93h0C15.51,21.4,15.52,22.64,15.51,23.87Zm3,.27c-.17.22-.37.43-.55.65-.2-.23-.56-.45-.57-.68-.06-1.31,0-2.62,0-3.93h0c0-1.21,0-2.42,0-3.64,0-.43,0-1,.59-.95s.57.5.57.91v7.35C18.49,24,18.52,24.07,18.48,24.14Zm3-.26c0,.42,0,.91-.59.89s-.57-.49-.57-.91V16.52c0-.1,0-.22,0-.29.16-.23.35-.44.53-.66.2.23.56.44.57.68.06,1.3,0,2.61,0,3.92h0Z"/><path style="fill: var(--white)" class="cls-2" d="M22.85,10H20.71c0-.22,0-.31-.05-.41-.07-1.14-.39-1.45-1.51-1.46-.92,0-1.84,0-2.76,0a1.13,1.13,0,0,0-1.22,1.08c0,.23,0,.47-.06.68C15,10,15,10,14.93,10L13,10c-1.45,0-1.7.3-1.56,1.8h13C24.55,10.32,24.28,10,22.85,10Zm-6.33,0c-.11,0-.31-.23-.28-.3s.21-.53.34-.54a21.79,21.79,0,0,1,2.68,0c.15,0,.28.44.51.84C18.53,10,17.52,10,16.52,10Z"/></g></g></g></svg>
