<svg xmlns="http://www.w3.org/2000/svg" viewBox="0 0 11.45 11.45"><defs><style>.cls-1{opacity:0.5;}</style></defs><title>Asset 4</title><g id="Layer_2" data-name="Layer 2"><g id="Layer_1-2" data-name="Layer 1"><g class="cls-1"><path d="M11.45,5.25v.94s0,.06,0,.09a5.29,5.29,0,0,1-.29,1.31,5.71,5.71,0,0,1-5.93,3.84,5.64,5.64,0,0,1-2.37-.75A5.74,5.74,0,0,1,4.21.19a8.89,8.89,0,0,1,1-.19h1c.18,0,.36,0,.54.08a5.68,5.68,0,0,1,4.46,4A5.42,5.42,0,0,1,11.45,5.25ZM5.73.76a5,5,0,1,0,5,5A4.95,4.95,0,0,0,5.73.76Z"/><path d="M6.12,4V5.42a.34.34,0,0,0,.1.27L7.91,7.61c.11.13.11.13,0,.23l-.37.33c-.07.06-.11.06-.17,0-.58-.67-1.16-1.34-1.76-2a1,1,0,0,1-.26-.72c0-1,0-2,0-3,0-.2,0-.2.21-.2H6c.11,0,.14,0,.14.14Z"/></g></g></g></svg>