<svg xmlns="http://www.w3.org/2000/svg" viewBox="0 0 15.76 20.88"><g id="content"><path d="M10.2,20.72A4.65,4.65,0,0,1,8.7,20c-.66-.4-1.28-.86-1.91-1.31a13.7,13.7,0,0,1-3-3.08,24.25,24.25,0,0,1-2.58-4.54A14,14,0,0,1,.12,6.47,15.89,15.89,0,0,1,0,4.65a4.89,4.89,0,0,1,1.17-3A6.68,6.68,0,0,1,2.51.36,1.89,1.89,0,0,1,3.66,0,6.42,6.42,0,0,1,5.1.16a.6.6,0,0,1,.46.41c.19.56.31,1.14.47,1.71.23.78.4,1.57.69,2.33a.81.81,0,0,1-.25,1,2.83,2.83,0,0,1-.93.55,8.67,8.67,0,0,0-1.12.5.9.9,0,0,0-.57,1.27,17.5,17.5,0,0,0,1.38,3.72,13.79,13.79,0,0,0,2.58,3.27,4.68,4.68,0,0,0,.77.7.75.75,0,0,0,.85,0,10.65,10.65,0,0,0,1.35-1,3.82,3.82,0,0,1,.68-.45.92.92,0,0,1,1,.16c.31.27.55.61.83.9.57.56,1.2,1,1.74,1.63l.49.51a.62.62,0,0,1,.13.73A6.51,6.51,0,0,1,15,19.49a2.34,2.34,0,0,1-1,.86A5.82,5.82,0,0,1,10.2,20.72Z"/></g></svg>
