<svg xmlns="http://www.w3.org/2000/svg" viewBox="0 0 19.57 13.75"><g id="content"><path d="M9.78,0h7.68A2,2,0,0,1,18.8.46c.15.13.15.14,0,.28L15.72,3.56,10.93,7.93,10,8.8c-.11.11-.18.11-.29,0-1.06-1-2.1-1.93-3.16-2.88-.74-.67-1.46-1.36-2.2-2C3.14,2.84,2,1.74.82.7.63.54.63.54.83.4A2.07,2.07,0,0,1,2.08,0Z"/><path d="M9.78,13.75H2.05A2,2,0,0,1,.8,13.33c-.21-.15-.19-.18,0-.32C2.52,11.45,4.22,9.85,6,8.28l.73-.67c.11-.11.18-.08.28,0L8.65,9.18a5.67,5.67,0,0,0,.7.58.9.9,0,0,0,1.09,0A5.8,5.8,0,0,0,11,9.21c.57-.55,1.17-1.07,1.75-1.61.08-.08.14-.06.22,0,.58.54,1.17,1.06,1.74,1.61.78.74,1.59,1.44,2.38,2.16L18.87,13c.11.11.1.18,0,.27a2.09,2.09,0,0,1-1.38.5Z"/><path d="M0,6.86V2A1.33,1.33,0,0,1,.06,1.5c0-.1.08-.11.15,0,.51.51,1.07,1,1.6,1.46L4.53,5.4,6,6.74c.09.08.08.12,0,.2L2.64,10,.21,12.22c-.1.1-.14.09-.17-.05a1.83,1.83,0,0,1,0-.47Z"/><path d="M19.57,6.88c0,1.58,0,3.17,0,4.75,0,.14,0,.27,0,.41s0,.09-.05.11-.09,0-.13-.05l-.6-.55L15.86,8.9,13.77,7c-.16-.15-.16-.16,0-.31l4.07-3.74,1.48-1.35s.07-.09.14-.06.06.08.07.13,0,.3,0,.44c0,1.59,0,3.19,0,4.78Z"/></g></svg>
