<svg xmlns="http://www.w3.org/2000/svg" viewBox="0 0 22.68 14.83">
    <defs>
        <style>.cls-1{fill:#001e5b;}</style>
    </defs>
    <g id="content">
        <g id="Layer_2" data-name="Layer 2">
            <g id="Layer_1-2" data-name="Layer 1">
                <path class="cls-1" fill="#001e5b"
                      d="M11.33,14.83H1.83a1.84,1.84,0,0,1-.4,0,1.72,1.72,0,0,1-1.2-.86A1.57,1.57,0,0,1,0,13.09V1.83a2.42,2.42,0,0,1,0-.38A1.76,1.76,0,0,1,1.5,0l.33,0h19a2.61,2.61,0,0,1,.48.05A1.77,1.77,0,0,1,22.64,1.4a1.55,1.55,0,0,1,0,.37V13a1.88,1.88,0,0,1-.06.53,1.7,1.7,0,0,1-.77,1,1.6,1.6,0,0,1-.69.25H11.33Zm0-9.21H.8s-.05,0-.06.06v7.45a.59.59,0,0,0,0,.14,1,1,0,0,0,1,.8H21.11a1,1,0,0,0,.68-.46,1.15,1.15,0,0,0,.15-.61V5.7c0-.06,0-.07-.08-.08H11.35Zm0-2.43H.91c-.17,0-.17,0-.17.16V4.81c0,.05,0,.07.07.07H21.89s.05,0,.05,0V3.25a.05.05,0,0,0-.06-.06H11.35Zm0-.74H21.86c.07,0,.08,0,.08-.09V1.89a2.62,2.62,0,0,0,0-.28A1,1,0,0,0,21,.75H1.63L1.5.78a1,1,0,0,0-.76,1v.63s0,.06.06.06H11.35Z"/>
                <path class="cls-1" fill="#001e5b"
                      d="M8.23,10.26a2.14,2.14,0,0,1-3.15,1.87c-.16-.08-.12-.08-.27,0a2.1,2.1,0,0,1-.77.24,2.13,2.13,0,0,1-2.09-1,2.1,2.1,0,0,1,.23-2.46,2.07,2.07,0,0,1,1.41-.74,2.09,2.09,0,0,1,1.13.2l.16.09a.15.15,0,0,0,.13,0,1.59,1.59,0,0,1,.29-.15,2.11,2.11,0,0,1,2.17.35A2.07,2.07,0,0,1,8.2,9.87,2.56,2.56,0,0,1,8.23,10.26Zm-.74,0a1.4,1.4,0,1,0-2.79,0,1.4,1.4,0,1,0,2.79,0ZM3.81,8.85a1.53,1.53,0,0,0-.3,0,1.28,1.28,0,0,0-.73.41,1.4,1.4,0,0,0,1.29,2.33l.25-.07s0,0,0-.07l-.09-.14A2.15,2.15,0,0,1,4,10a2.29,2.29,0,0,1,.33-.88.56.56,0,0,0,0-.08s0,0,0,0l-.07,0A1.44,1.44,0,0,0,3.81,8.85Z"/>
                <path class="cls-1" fill="#001e5b"
                      d="M15.25,9.88h1.24a.37.37,0,0,1,.32.31.36.36,0,0,1-.22.4l-.15,0H14a.37.37,0,0,1-.34-.34.37.37,0,0,1,.32-.4h1.25Z"/>
                <path class="cls-1" fill="#001e5b"
                      d="M11.06,9.88h1.22a.37.37,0,0,1,.08.72.39.39,0,0,1-.15,0H9.93a.55.55,0,0,1-.18,0,.37.37,0,0,1,.07-.72h1.24Z"/>
                <path class="cls-1" fill="#001e5b"
                      d="M19.43,10.62H18.16a.38.38,0,0,1-.29-.38.37.37,0,0,1,.35-.35h2.46a.36.36,0,0,1,.33.33.36.36,0,0,1-.27.39.5.5,0,0,1-.17,0Z"/>
            </g>
        </g>
    </g>
</svg>
