<svg id="Layer_1" data-name="Layer 1" xmlns="http://www.w3.org/2000/svg" xmlns:xlink="http://www.w3.org/1999/xlink" viewBox="0 0 320.4 205.37"><defs><style>.cls-1{fill:none;}.cls-2{fill:#1f2a6d;opacity:0.1;}.cls-3{clip-path:url(#clip-path);}.cls-4{fill:#d8d8d8;}</style><clipPath id="clip-path"><rect class="cls-1" width="320.4" height="158.67"/></clipPath></defs><rect class="cls-2" width="320.4" height="206.05"/><g class="cls-3"><path class="cls-4" d="M113.93,20.52a15.5,15.5,0,0,0,3-1.22c.13-.08.58-.44,1.48-1.15,1.29-1,1.3-1.07,2-1.57A16.26,16.26,0,0,0,122,15.4a15.07,15.07,0,0,0,1.27-1.53c1-1.21,1.1-1,1.53-1.64a7.4,7.4,0,0,0,1-4.14c0-.73-.05-.78,0-1.79A22.4,22.4,0,0,1,126,3.81c.26-2.06.39-3.09.55-3.75.42-1.74.7-1.66,1.27-3.71a28.29,28.29,0,0,0,.69-3.44,24.58,24.58,0,0,0,.48-4.28c0-.66-.25-2.11-.74-5a17.34,17.34,0,0,0-.74-3.33c-.63-1.69-1-1.55-1.37-2.75-.49-1.62.17-2,.17-5.21,0-1.88-.21-3.05.26-3.25.24-.09.41.15,1.13.53,1.4.74,1.88.42,2.8,1.05.73.51.42.72,1.33,1.51a14.22,14.22,0,0,0,2.35,1.38,18.68,18.68,0,0,0,1.79,1,11.58,11.58,0,0,0,2.37.6s1.43.27,3.75.93a27.32,27.32,0,0,1,3.49,1.19c2.85,1.23,3.56,2.24,5,1.94.57-.12.4-.27,1.63-.84a23.53,23.53,0,0,1,4.14-1.24c2.41-.64,2.54-.73,3.1-.72a8.27,8.27,0,0,1,3.06.86s2.56,1,5.5,1.77a13.44,13.44,0,0,0,4.42.77c1.51-.11,1.74-.52,3.57-.65a11.67,11.67,0,0,1,3.7.29c1.65.41,1.73.86,3.75,1.53a19.17,19.17,0,0,0,3.54.79,35.4,35.4,0,0,1,4.78.55c.93.23.79.29,1.82.57,2.3.64,3.32.43,6.19.81,2.15.29,1.78.44,3.61.65a30.83,30.83,0,0,0,5.23.12,64.13,64.13,0,0,0,6.44-.72c2.23-.3,5.07-.69,8-1,4.72-.5,7.08-.75,8.78-.77,3.63,0,5.15.32,6.59-.88.83-.68,1.44-1.71,2.85-2a8.47,8.47,0,0,1,2.1.1,21.8,21.8,0,0,0,3.44.1c.87-.09.93-.26,3.57-1.25,1.57-.59,2.69-1,4.13-1.46,2.22-.68,2.7-.65,3.64-1.24a11.27,11.27,0,0,0,2.17-2.25c2.59-3,2.49-3.27,3.35-3.8,1.07-.66,1-.14,3.82-1.26a27.5,27.5,0,0,0,2.89-1.32c1.4-.74,1.35-.88,1.92-1,1.12-.28,2.1.06,3.73.62,1,.35,2,.54,3,.91.26.1.71.27.93.08s-.28-1.23,0-1.61,2.13.82,3.28.12c.45-.27.3-.55.81-.86.77-.47,1.46,0,2.63-.14a8.09,8.09,0,0,0,2.15-.69c2.13-.78,2.14-.67,4.47-1.51,1.66-.6,1.45-.58,2.7-1,2.65-.94,3.56-1,6.5-2,1.38-.45,2.41-.83,3-1,4.64-1.75,5.38-2.6,9.52-4.14a35.17,35.17,0,0,0,3.65-1.36,12.49,12.49,0,0,0,4.62-3.23c.79-.95.69-1.23,1.36-1.69,1.1-.77,1.85-.35,4-.84A9.3,9.3,0,0,0,332.06-54a7.49,7.49,0,0,0,2.32-2.37,13.81,13.81,0,0,0,.69-1.6c.57-1.18.94-1.39,3.14-4.28.24-.32.46-.61.81-1a8,8,0,0,1,1.89-2c.78-.39,1.42-.06,2.7.14A13.68,13.68,0,0,0,348-65.3c3.08-.41,3-1.61,6-2.2,2.8-.54,3.51.37,5.45-.52.91-.42,1-.75,3.22-3,4.8-5,4.87-4.07,5.86-5.81.4-.7,1.57-2.91,2.84-3.08a3,3,0,0,0,1-.29c.61-.3.71-.63,1.08-.88.7-.49,1.39,0,3.34.17a7.14,7.14,0,0,0,2.47,0c1.19-.32,1.7-1.07,2.75-2a15.2,15.2,0,0,1,3.82-2.34c3.68-1.48,5.65,1.07,8.18-.55,1.17-.75.77-1.31,3-3.25a9.47,9.47,0,0,1,3.13-2c1.19-.39,1.29-.07,2.84-.47a7.51,7.51,0,0,0,3.47-1.53c.77-.7,1.08-1.42,2.1-1.72.25-.08.77-.23,1,0s0,.85-.21,2.13a25.7,25.7,0,0,1-.22,2.6c-.18.72-.32.73-.69,1.82a19.76,19.76,0,0,0-.53,2c-.55,1.95-2.85,3-3.94,3.56-2.05,1-2.56.49-5,1.27a29.63,29.63,0,0,0-5.41,2.94c-2.59,1.59-2.65,1.77-6.33,4.11a34,34,0,0,0-3.47,2.27,12.34,12.34,0,0,0-4,5.24c-.53,1.47-.12,1.45-.57,2.7-1,2.74-3.48,4.25-6.89,6.26-1.93,1.14-2,.94-3.94,2.15a25.15,25.15,0,0,0-4.9,3.59c-2.58,2.55-2.05,3.58-4,4.76-1.55.91-2,.35-5.07,1.46-2.18.78-2,1.07-4.33,2-3.16,1.27-4,.94-6.67,2.08a28.28,28.28,0,0,0-4.32,2.54,23.62,23.62,0,0,0-2.56,1.77c-2.08,1.75-2.27,3-4.3,5.26-1.13,1.26-1,.87-3.06,2.82-3,2.93-4.54,4.4-5.31,6.38-.2.51-.63,2.15-1.48,5.45a4.9,4.9,0,0,1-1.22,2.7,5.7,5.7,0,0,1-3.56,1.12c-.33,0-.88,0-2-.09a38.46,38.46,0,0,1-4.33-.43c-1.57-.31-1.48-.53-2.68-.77-.58-.11-3.5-.68-5.73.6-.48.27-.87.6-3.3,4.83-1.94,3.36-2,3.76-3.37,5.95-1.51,2.47-1.6,2.32-2,3.28a11.46,11.46,0,0,0-.79,6.21,29.63,29.63,0,0,1,.7,3.06,6.56,6.56,0,0,1-.24,3.35c-.25.62-.42.66-.5,1.17-.16.88.24,1.35.43,2.53s-.09,1.08,0,1.8c.23,1.24,1.09,1.75,2.87,3.56.68.69,1.23,1.31,2.32,2.56a37.57,37.57,0,0,1,3,3.72c2.2,3.25,1.62,4.27,3.61,6.41.22.24,1.1.94,2.84,2.34,3.77,3,3.57,2.73,4.57,3.61a36.82,36.82,0,0,1,5.14,5.67,26.3,26.3,0,0,0,2.6,3.46c1.22,1.25,1.84,1.48,2.37,2.56s.18,1.13.62,3.44c.37,1.94.57,2.92,1.25,3.83.87,1.18,1.85,1.42,1.74,1.82s-1.9.78-3.56.31c-2.9-.84-3-3.32-6.26-4.43a16.66,16.66,0,0,0-2.56-.45c-3-.42-3.49-.06-6-.38-3.09-.41-3.27-1.08-4.67-.7s-1.53,1.28-3.51,2c-1.83.65-2.18,0-3.49.74s-.88,1.13-2.92,3c-1.47,1.36-1.83,1.29-2.39,2.22-.64,1.09-.5,1.79-1.24,2.28a2.81,2.81,0,0,1-2.13.19c-1.19-.31-1.49-1-3.18-2.49a13.5,13.5,0,0,0-2.53-1.82c-1.18-.62-1.47-.47-4-1.31a28.52,28.52,0,0,0-3.18-1.1c-1.6-.31-2.43,0-4.11.17s-4-.17-8.66-.79a11.66,11.66,0,0,0-4-.07,11.08,11.08,0,0,0-2.94,1,13,13,0,0,0-5,3.52c-.89,1.15-1.19,2.49-1.79,5.16-.94,4.19-1.41,6.29-.67,8.77.44,1.46,1,2.13.86,3.54a7.27,7.27,0,0,1-1.7,3.56c-1.29,1.78-1.93,1.7-3.06,3.47-.87,1.38-.66,1.71-1.29,2.13-1,.67-1.88,0-4.63,0-2-.07-3-.1-3.78.5-1.34,1-.4,2.4-1.53,4.14-1.47,2.26-3.86,1.16-7.77,4.13a13.9,13.9,0,0,1-2,1.41,12.61,12.61,0,0,1-4.31,1.39c-3.63.59-3.8-.39-5.47.33-1.94.85-1.72,2.18-4.21,3.45-1.4.71-1.46.29-3.13,1-2.92,1.25-2.76,2.56-5.45,3.56a11,11,0,0,1-3.68.93c-1,.05-2.25-.07-2.63.6-.19.34,0,.58-.24.86-.08.1-.41.45-2.08.19-.91-.13-1.17-.29-2-.47a7.66,7.66,0,0,0-2.39-.27,5.56,5.56,0,0,0-3.27,1.51c-1.11,1.06-.65,1.55-1.6,2.51a5.82,5.82,0,0,1-5.33,1.29c-.75-.2-.88-.44-1.94-.69a9.39,9.39,0,0,0-2.75-.24c-4.7.18-4.93.46-6.5.31-2.29-.22-2-.84-4.5-1a8.07,8.07,0,0,0-5,.71c-1.29.78-1,1.34-2.63,2.66-.92.73-1.37.84-4,2.12-1.9,1-2.85,1.42-3.77,2-2.67,1.58-4,2.37-4.86,3.85a8.1,8.1,0,0,0-.62,6.53,9,9,0,0,1,.77,2.32c.22,1.43-.19,1.61,0,2.65.09.55.27.86,2.51,4,.83,1.17,1.32,1.85,1.07,2.27-.06.12-.19.23-1,.39a5.47,5.47,0,0,1-2.63.16c-.89-.24-.76-.63-1.91-1.21a5.48,5.48,0,0,0-2.8-.67c-1.3.07-1.24.69-2.63.93s-1.36-.37-4-.53c-1,0-1.61,0-1.84-.43s-.07-.69.11-1.48a3.22,3.22,0,0,0,.22-1.22c0-.26-.07-.22-.14-.69a3.39,3.39,0,0,0-.17-1c-.09-.19-.13-.19-.29-.48a4,4,0,0,1-.26-.62,54.72,54.72,0,0,0-2.92-6.12c-1.4-2.54-2.11-3.81-3.25-4.71-.52-.41-1-.7-2.1-1.6a14.93,14.93,0,0,0-2.15-1.77,6.58,6.58,0,0,0-3.28-.45c-2.37,0-2.18.44-4.4.43a16.38,16.38,0,0,0-3.3.29,6.21,6.21,0,0,0-1,.38c-.33.16-.45.27-.81.48a11,11,0,0,1-1.12.52c-1.36.54-3.47-.65-5.21,0-1.4.52-.94,1.62-3,2.8a8.29,8.29,0,0,1-2.8,1,8.49,8.49,0,0,1-2.92,0,8.22,8.22,0,0,1-2.86-1.15c-.64-.38-.79-.39-8.8-3-6.84-2.23-7.48-2.47-8.37-3.42a23.31,23.31,0,0,0-3.08-3.32A10.3,10.3,0,0,0,63,115a12.08,12.08,0,0,0-3.8-.52,17.44,17.44,0,0,1-3.15-.08,12.51,12.51,0,0,1-2-.55c-3.09-1-3.94-.27-6.53-1.24-1.36-.51-2-.76-2.51-1.48-.71-1.09-.25-2.16-1.14-3.06-.12-.12-.28-.26-1.68-.77-2.69-1-3.41-1-3.92-1.72s-.15-1-.64-1.46c-.76-.65-1.74-.06-2.27-.59s-.1-1.44.07-2.49c.28-1.85-.46-2.22-1-5.16-.61-3.4.23-3.78-.58-6.39a13.37,13.37,0,0,0-1.62-3.39A17.47,17.47,0,0,0,28.35,82c-1.53-1.26-2.6-1-3.1-2.17-.41-.89,0-1.3-.46-2.51-.38-1-.83-1.16-1.6-2.3a12.13,12.13,0,0,1-1.36-2.79c-.67-2.13.13-2.77-.31-5.12-.35-1.86-.88-1.63-1.34-3.54-.67-2.76.45-3.26-.05-6a13.74,13.74,0,0,0-2.58-5.47,31.05,31.05,0,0,1-2-2.56,14.54,14.54,0,0,1-1.67-4.06c-.39-1.42-.47-3.85-.62-8.66a25.82,25.82,0,0,1,.09-2.72c.13-1.58.2-2.38.5-2.63,1.08-.9,4.3,1.3,6.67,2.91a44,44,0,0,1,6.72,5.34c1.66,1.63,1.85,2.1,2.87,2.48,1.27.47,2,.12,6.4-.24a26.82,26.82,0,0,0,2.94-.24c1.28-.27,2.53-.81,5.48-3,3.62-2.74,5.46-4.15,6.55-6.41.8-1.65.17-1.4,1-3.49,1.75-4.16,4.23-5.14,5.55-8.87A12.78,12.78,0,0,1,59,18c.77-1.45,1.28-2.42,2.32-2.92a5.32,5.32,0,0,1,3.61,0c1,.28,1.21.6,1.94.55s.91-.41,2.39-1.22a9.06,9.06,0,0,1,2.32-1.05,10.85,10.85,0,0,1,2.7-.12,12.32,12.32,0,0,0,3.42-.79c1.92-.63,1.89-.94,2.65-.91,1,0,1.2.59,3.35,1.62,1.38.67,2.08,1,2.82.89,1.23-.19,1.42-1.17,2.46-1.39,1.29-.27,2.29,1,3.75,2.11,2,1.53,4.14,2.09,8.42,3.22,1.7.45,3.82.89,6,1.63,1.08.35,1.62.53,2,.69,1.49.61,1.77.93,2.54,1C112.06,21.25,112.14,21.18,113.93,20.52Z"/></g></svg>