<svg id="Layer_1" data-name="Layer 1" xmlns="http://www.w3.org/2000/svg" xmlns:xlink="http://www.w3.org/1999/xlink" viewBox="0 0 1903 574.13"><defs><style>.cls-1{fill:none;}.cls-2{fill:#1f2a6d;opacity:0.1;}.cls-3{clip-path:url(#clip-path);}.cls-4{fill:#d8d8d8;}</style><clipPath id="clip-path"><rect class="cls-1" width="1903" height="522.77"/></clipPath></defs><title>cyprus-map</title><rect class="cls-2" x="-79.67" y="-91.42" width="2030" height="778"/><g class="cls-3"><path class="cls-4" d="M714.74,92.71c6.62-2.45,7.42-2.57,9.37-3.79.43-.27,1.82-1.37,4.62-3.57,4-3.17,4-3.33,6.17-4.91,3.25-2.42,3.49-2.29,4.92-3.65,1.64-1.57,1.94-2.34,3.94-4.76,3.11-3.78,3.42-3.19,4.76-5.14,2.89-4.2,3-9.25,3.13-12.87.06-2.27-.17-2.42-.08-5.58a75.25,75.25,0,0,1,.67-7.74c.81-6.41,1.22-9.61,1.71-11.68,1.3-5.41,2.18-5.18,3.95-11.54a89.39,89.39,0,0,0,2.16-10.71c1-6.36,1.52-9.54,1.48-13.32,0-2.07-.78-6.56-2.3-15.55-1.07-6.27-1.45-8-2.31-10.35-1.94-5.25-3.11-4.82-4.24-8.56-1.53-5,.51-6.14.52-16.22,0-5.85-.67-9.52.82-10.12.73-.29,1.25.45,3.5,1.64,4.35,2.3,5.85,1.3,8.7,3.27,2.29,1.59,1.33,2.23,4.17,4.69,1,.89,1.51,1.12,7.29,4.32a57.37,57.37,0,0,0,5.58,3,33.43,33.43,0,0,0,7.37,1.86s4.47.87,11.68,2.91A82.49,82.49,0,0,1,813.19-42c8.88,3.81,11.08,7,15.55,6,1.76-.37,1.23-.82,5.06-2.6,3.15-1.46,4.61-1.67,12.87-3.87,7.52-2,7.91-2.26,9.67-2.23,3.25,0,5,1,9.53,2.68,0,0,8,3,17.11,5.5,6.6,1.77,9.9,2.66,13.77,2.39,4.68-.33,5.41-1.62,11.09-2a36,36,0,0,1,11.53.89c5.14,1.28,5.38,2.67,11.68,4.76a59.16,59.16,0,0,0,11,2.46c6.52.88,8.86.21,14.88,1.71,2.9.72,2.45.9,5.66,1.78,7.17,2,10.32,1.34,19.27,2.53,6.69.9,5.55,1.35,11.23,2a95.61,95.61,0,0,0,16.3.38c7-.34,11-1,20-2.24,7-1,15.78-2.16,24.93-3.12,14.67-1.55,22-2.33,27.31-2.38,11.31-.12,16,1,20.53-2.76,2.57-2.12,4.48-5.32,8.86-6.17,1.5-.29,1.9,0,6.55.29,5.33.39,8,.58,10.71.3s2.88-.78,11.09-3.87c4.89-1.84,8.4-3.16,12.87-4.54,6.9-2.12,8.41-2,11.31-3.87,1-.65,2.05-1.47,6.77-7,8.07-9.42,7.74-10.19,10.42-11.83,3.35-2.06,3.21-.46,11.91-4a83.07,83.07,0,0,0,9-4.09c4.35-2.31,4.18-2.75,6-3.2,3.49-.88,6.56.18,11.61,1.94,3.11,1.07,6.37,1.67,9.45,2.82.81.31,2.2.84,2.91.23,1.14-1-.9-3.8.14-5,1.46-1.66,6.62,2.53,10.2.37,1.41-.85.94-1.7,2.53-2.67,2.39-1.47,4.53-.18,8.18-.45,1.63-.12,2-.44,6.7-2.16,6.63-2.42,6.65-2.07,13.92-4.69,5.15-1.86,4.52-1.81,8.41-3.2,8.24-2.93,11.08-3.13,20.24-6.1,4.29-1.39,7.48-2.59,9.3-3.27,14.44-5.44,16.75-8.1,29.61-12.88,6.34-2.35,7.25-2.25,11.39-4.24,4.83-2.32,10-4.82,14.36-10,2.47-3,2.17-3.84,4.24-5.29,3.44-2.4,5.76-1.08,12.58-2.6a29,29,0,0,0,10.34-4,23.44,23.44,0,0,0,7.22-7.37c1.24-2.08.82-2.21,2.16-5,1.76-3.68,2.91-4.32,9.74-13.32.76-1,1.45-1.91,2.53-3.28,3-3.75,4.52-5.64,5.88-6.32,2.46-1.23,4.45-.2,8.41.45,5,.81,8.77.3,13.77-.38,9.58-1.29,9.18-5,18.6-6.84,8.74-1.71,10.93,1.13,17-1.64,2.84-1.31,3.2-2.33,10-9.45,14.94-15.55,15.15-12.68,18.23-18.08,1.25-2.18,4.88-9.07,8.86-9.6a9.56,9.56,0,0,0,3.2-.89c1.9-.94,2.2-2,3.35-2.76,2.18-1.51,4.34-.08,10.41.52,3.72.37,5.58.56,7.67,0,3.72-1,5.3-3.32,8.56-6.17a46.83,46.83,0,0,1,11.9-7.29c11.45-4.61,17.58,3.32,25.45-1.72,3.65-2.33,2.41-4.09,9.38-10.12,5.29-4.58,8.57-5.78,9.74-6.17,3.7-1.23,4-.23,8.86-1.49,4.4-1.14,7.76-2,10.79-4.76,2.41-2.18,3.36-4.42,6.55-5.36.75-.22,2.37-.7,3.2.07s-.06,2.65-.67,6.63c-.68,4.39.2,4.74-.67,8.11-.58,2.25-1,2.27-2.16,5.65a63.16,63.16,0,0,0-1.64,6.18c-1.72,6.05-8.87,9.46-12.27,11.09-6.39,3-8,1.51-15.48,3.94-3.92,1.27-8.28,3.91-16.82,9.15-8.08,5-8.27,5.52-19.72,12.8-8.25,5.25-8.58,5.23-10.79,7.07-3.36,2.8-9.4,7.95-12.43,16.3-1.65,4.57-.38,4.51-1.78,8.41-3.08,8.52-10.81,13.22-21.43,19.49-6,3.55-6.12,2.9-12.28,6.7-5.9,3.64-10.5,6.48-15.25,11.16-8,7.92-6.39,11.15-12.58,14.81-4.82,2.84-6.15,1.08-15.78,4.54-6.77,2.43-6.21,3.34-13.46,6.25-9.85,4-12.49,2.92-20.77,6.47-4.86,2.09-9.08,5.05-13.46,7.89a81.69,81.69,0,0,0-8,5.51c-6.46,5.47-7.06,9.27-13.39,16.37-3.51,3.93-3.27,2.71-9.53,8.78-9.41,9.14-14.12,13.72-16.51,19.87-.62,1.57-2,6.7-4.62,17-1.08,4.18-1.64,6.45-3.79,8.41-3.35,3-8.35,3.34-11.09,3.5-1,.06-2.73-.06-6.1-.3-7-.49-10.49-.75-13.47-1.34-4.89-1-4.62-1.66-8.34-2.38-1.82-.36-10.9-2.13-17.85,1.86-1.47.84-2.7,1.86-10.27,15-6,10.47-6.33,11.7-10.5,18.53-4.68,7.67-5,7.21-6.17,10.19-1,2.34-4.1,10.15-2.46,19.35.69,3.82,1.63,4.69,2.16,9.53.38,3.4.71,6.76-.74,10.41-.77,1.94-1.29,2.06-1.57,3.65-.47,2.75.76,4.2,1.34,7.89.52,3.25-.25,3.35.15,5.58.7,3.88,3.37,5.47,8.93,11.09,2.12,2.14,3.82,4.08,7.22,8a117.07,117.07,0,0,1,9.3,11.61c6.86,10.1,5,13.27,11.24,19.94.7.76,3.42,2.94,8.85,7.29,11.73,9.4,11.1,8.48,14.22,11.24a116.38,116.38,0,0,1,16,17.63c3.92,5.33,4.43,7,8.11,10.79s5.7,4.58,7.37,8c1.45,2.94.55,3.5,1.94,10.71,1.15,6,1.77,9.08,3.87,11.91,2.71,3.66,5.76,4.43,5.43,5.65-.42,1.55-5.93,2.46-11.09,1-9-2.6-9.32-10.31-19.5-13.77a48.13,48.13,0,0,0-8-1.41c-9.45-1.3-10.85-.19-18.53-1.19-9.59-1.26-10.16-3.35-14.51-2.16-4.72,1.3-4.76,4-10.94,6.18-5.69,2-6.79.16-10.86,2.3-3.74,2-2.74,3.52-9.08,9.38-4.57,4.23-5.72,4-7.44,6.92-2,3.37-1.58,5.56-3.87,7.07-2.5,1.64-5.72.82-6.62.59-3.71-.94-4.63-3.26-9.9-7.73a41.45,41.45,0,0,0-7.89-5.66c-3.68-1.95-4.56-1.48-12.42-4.09-6.79-2.26-6.8-2.84-9.9-3.43-5-.94-7.56,0-12.8.53-5,.45-12.31-.52-26.94-2.46-4.25-.56-7.74-1.1-12.5-.22a34.26,34.26,0,0,0-9.15,3.2c-5.37,2.53-11.42,5.39-15.7,10.93-2.77,3.6-3.71,7.76-5.58,16.08-2.94,13-4.4,19.56-2.08,27.31,1.35,4.53,3.14,6.6,2.67,11s-2.91,7.85-5.28,11.09c-4,5.52-6,5.28-9.52,10.79-2.72,4.28-2.08,5.32-4,6.62-3.12,2.09-5.88.14-14.44-.15-6.17-.21-9.25-.31-11.76,1.56-4.16,3.12-1.24,7.45-4.76,12.88-4.57,7-12,3.61-24.18,12.87a42.66,42.66,0,0,1-6.18,4.39,39.38,39.38,0,0,1-13.39,4.32c-11.3,1.83-11.84-1.23-17,1-6,2.63-5.34,6.76-13.1,10.71-4.35,2.22-4.55.91-9.75,3.13-9.09,3.89-8.59,7.95-17,11.09-4.28,1.6-7.24,2.71-11.46,2.9-3.15.14-7-.22-8.19,1.86-.59,1,0,1.79-.74,2.68-.24.29-1.27,1.38-6.48.59-2.83-.42-3.65-.91-6.25-1.49a24.43,24.43,0,0,0-7.44-.81,17.56,17.56,0,0,0-10.19,4.68c-3.45,3.29-2,4.84-5,7.82-4.17,4.19-11.32,5.45-16.59,4-2.31-.63-2.74-1.37-6-2.16a29.85,29.85,0,0,0-8.56-.75c-14.62.57-15.36,1.45-20.24,1-7.11-.69-6.31-2.62-14-3.27-4.72-.4-10.48-.89-15.7,2.23-4,2.41-3,4.16-8.18,8.26-2.86,2.27-4.27,2.61-12.35,6.62-5.92,2.94-8.88,4.41-11.76,6.1-8.31,4.9-12.46,7.35-15.11,12-3.14,5.49-4.5,13.91-1.93,20.32a27.82,27.82,0,0,1,2.38,7.22c.7,4.47-.57,5,0,8.26.3,1.69.84,2.67,7.81,12.42,2.59,3.63,4.12,5.74,3.35,7.07-.2.35-.59.7-3,1.19-3.77.75-5.83,1.16-8.19.52-2.77-.74-2.36-2-5.95-3.79a17.39,17.39,0,0,0-8.7-2.08c-4.06.23-3.88,2.16-8.19,2.9s-4.25-1.16-12.35-1.64c-3-.18-5,0-5.73-1.34-.51-.89-.21-2.15.37-4.61.41-1.72.8-2.4.67-3.8-.08-.81-.22-.69-.45-2.16-.25-1.63-.11-2.07-.52-3-.27-.61-.41-.59-.89-1.49a11.89,11.89,0,0,1-.82-1.94,173.07,173.07,0,0,0-9.08-19c-4.38-7.91-6.57-11.86-10.12-14.66-1.61-1.28-3.18-2.19-6.55-5-4.2-3.49-4.57-4.41-6.69-5.51-2.74-1.41-5.27-1.43-10.2-1.41-7.39,0-6.79,1.37-13.69,1.34-.58,0-6.65,0-10.27.89a18.37,18.37,0,0,0-3.27,1.19c-1,.52-1.4.85-2.53,1.49a32,32,0,0,1-3.5,1.64c-4.22,1.67-10.79-2-16.22,0-4.34,1.62-2.92,5-9.3,8.7a25.2,25.2,0,0,1-8.71,3,26.65,26.65,0,0,1-9.08-.07,26.15,26.15,0,0,1-8.93-3.58c-2-1.19-2.46-1.23-27.38-9.37-21.28-6.95-23.28-7.69-26.05-10.64s-4.33-6-9.59-10.35a32.32,32.32,0,0,0-10.79-6.47,38.28,38.28,0,0,0-11.84-1.64c-4,0-5.86.43-9.82-.22a41.13,41.13,0,0,1-6.25-1.71c-9.6-3-12.25-.86-20.31-3.87-4.23-1.58-6.35-2.36-7.82-4.61-2.21-3.39-.8-6.73-3.57-9.53-.37-.37-.87-.79-5.21-2.38-8.39-3.07-10.62-3-12.2-5.36-1.35-2-.46-3.2-2-4.54-2.35-2-5.4-.19-7.07-1.86s-.28-4.47.22-7.74c.9-5.76-1.41-6.9-3.05-16.07-1.88-10.58.72-11.75-1.78-19.87a41.43,41.43,0,0,0-5.06-10.56A54,54,0,0,0,448.34,284c-4.76-3.93-8.09-3.29-9.67-6.77-1.26-2.77.06-4-1.41-7.81-1.19-3-2.59-3.6-5-7.15a37.09,37.09,0,0,1-4.24-8.7c-2.07-6.62.39-8.63-1-15.93-1.08-5.79-2.73-5.08-4.17-11-2.08-8.6,1.4-10.15-.15-18.53-1.46-7.94-6-14.21-8-17-2.65-3.66-3.79-4.17-6.1-8a45.59,45.59,0,0,1-5.21-12.65c-1.19-4.41-1.46-12-1.94-26.94a82.87,82.87,0,0,1,.3-8.48c.4-4.93.61-7.39,1.56-8.19,3.36-2.79,13.39,4,20.76,9.08,6.64,4.53,13.22,9,20.91,16.6,5.16,5.08,5.75,6.56,8.93,7.74,4,1.46,6.27.37,19.95-.75,7.56-.62,7.13-.31,9.15-.74,4-.85,7.87-2.53,17-9.45,11.28-8.52,17-12.93,20.39-20,2.49-5.15.53-4.36,3.27-10.86,5.46-12.95,13.18-16,17.27-27.61a41.33,41.33,0,0,1,2.6-6c2.39-4.52,4-7.53,7.22-9.08,4.17-2,9.13-.65,11.23-.08,3.23.88,3.77,1.88,6,1.71s2.85-1.25,7.44-3.79c3.1-1.71,4.83-2.67,7.22-3.27,3.31-.84,4.76-.21,8.41-.38,4.32-.19,7.69-1.49,10.64-2.45,6-2,5.89-2.91,8.26-2.83,3.2.1,3.73,1.84,10.42,5.06,4.29,2.07,6.49,3.1,8.78,2.75,3.84-.57,4.43-3.64,7.66-4.31,4-.84,7.13,3.06,11.69,6.55,6.22,4.76,12.88,6.52,26.19,10,5.31,1.41,11.89,2.77,18.83,5.06,3.35,1.11,5,1.67,6.25,2.16,4.64,1.88,5.5,2.88,7.88,3C708.91,95,709.17,94.77,714.74,92.71Z"/></g></svg>