<svg id="Layer_1" data-name="Layer 1" xmlns="http://www.w3.org/2000/svg" viewBox="0 0 265.33 17.6"><defs><style>.cls-1{opacity:0.5;}</style></defs><g class="cls-1"><path d="M.26.94A1,1,0,0,1,1,.66a1,1,0,0,1,.76.28A1,1,0,0,1,2,1.63a1,1,0,0,1-.26.7A1,1,0,0,1,1,2.61a1,1,0,0,1-.76-.28A1,1,0,0,1,0,1.63,1,1,0,0,1,.26.94ZM.2,4.43H1.84v9.25H.2Z"/><path d="M4.52,4.43H6l.07,1.19h.06a3.47,3.47,0,0,1,1.22-1A3.6,3.6,0,0,1,9,4.25a3.11,3.11,0,0,1,2.23.8A3.59,3.59,0,0,1,12,7.71v6H10.37v-6A2.15,2.15,0,0,0,9.88,6.1a2,2,0,0,0-1.42-.48,2.35,2.35,0,0,0-1.38.43,3,3,0,0,0-.93,1.09v6.54H4.52Z"/><path d="M13.44,4.43h5.14V5.68H13.44Zm1.5-1.3A3.06,3.06,0,0,1,15.78.8,3.14,3.14,0,0,1,18.05,0a3.64,3.64,0,0,1,.57,0,3.27,3.27,0,0,1,.56.1l-.09,1.32-.41-.06a3.4,3.4,0,0,0-.45,0A1.63,1.63,0,0,0,17,1.81a1.79,1.79,0,0,0-.43,1.32V13.68H14.94Z"/><path d="M19.24,8.91a4.92,4.92,0,0,1,1.19-3.42A4,4,0,0,1,23.6,4.17a4.05,4.05,0,0,1,3.17,1.32A5,5,0,0,1,28,8.91v.28a4.93,4.93,0,0,1-1.19,3.42,4,4,0,0,1-3.17,1.33,4,4,0,0,1-3.17-1.33,4.88,4.88,0,0,1-1.19-3.42Zm1.67.28a4.14,4.14,0,0,0,.68,2.43,2.29,2.29,0,0,0,2,1,2.29,2.29,0,0,0,2-1,4.21,4.21,0,0,0,.68-2.43V8.91a4.2,4.2,0,0,0-.68-2.42,2.27,2.27,0,0,0-2-1,2.27,2.27,0,0,0-2,1,4.13,4.13,0,0,0-.68,2.42Z"/><path d="M35.41,6.06a3.73,3.73,0,0,1,3-1.63,3.61,3.61,0,0,1,1.45.29,5.32,5.32,0,0,1,1.1.64h.79L40.66,10.6a1.71,1.71,0,0,0,.16,1.47,1.36,1.36,0,0,0,1.07.41,2.29,2.29,0,0,0,2-1.25A6.09,6.09,0,0,0,44.67,8a5.93,5.93,0,0,0-6.3-6,6.46,6.46,0,0,0-5,2.24,7.8,7.8,0,0,0-2,5.4,6.51,6.51,0,0,0,1.76,4.88,6,6,0,0,0,4.39,1.71A7.89,7.89,0,0,0,39.58,16,7,7,0,0,0,41,15.43V16.8a4.64,4.64,0,0,1-1.45.59,8.68,8.68,0,0,1-2.07.21A7.8,7.8,0,0,1,32,15.46a7.55,7.55,0,0,1-2.31-5.83,8.83,8.83,0,0,1,2.57-6.35A8.18,8.18,0,0,1,38.37.62a7.8,7.8,0,0,1,5.7,2.13A7,7,0,0,1,46.25,8,6.64,6.64,0,0,1,45,12.09a3.63,3.63,0,0,1-3,1.59,3.53,3.53,0,0,1-1.78-.44,2.81,2.81,0,0,1-1.12-1.15,4,4,0,0,1-1,1.15,2.25,2.25,0,0,1-1.32.44,2.32,2.32,0,0,1-1.95-1,4.13,4.13,0,0,1-.73-2.55A6.37,6.37,0,0,1,35.41,6.06Zm.74,5.7a1.23,1.23,0,0,0,1.08.54,1.61,1.61,0,0,0,1.11-.45,3,3,0,0,0,.74-1.6L40,6a2,2,0,0,0-.62-.27,2.42,2.42,0,0,0-.7-.1,2.38,2.38,0,0,0-2,1.28,5.94,5.94,0,0,0-.81,3.22A2.83,2.83,0,0,0,36.15,11.76Z"/><path d="M48.46,4.43H50.1v6A2.14,2.14,0,0,0,50.59,12a2,2,0,0,0,1.41.48,2.3,2.3,0,0,0,1.38-.42A3,3,0,0,0,54.32,11V4.43H56v9.25H54.47l-.07-1.19h0a3.64,3.64,0,0,1-1.23,1,3.52,3.52,0,0,1-1.6.36,3.1,3.1,0,0,1-2.23-.79,3.59,3.59,0,0,1-.83-2.66Z"/><path d="M58.55,4.43H60l.07,1.2h0a2.94,2.94,0,0,1,1.08-1,3.66,3.66,0,0,1,4.5.91,5.14,5.14,0,0,1,1.06,3.34v.28a5.14,5.14,0,0,1-1.06,3.34,3.41,3.41,0,0,1-2.81,1.32,3.53,3.53,0,0,1-1.65-.35,2.92,2.92,0,0,1-1.08-.91v4.74H58.55ZM61.08,12a2.34,2.34,0,0,0,1.49.49,2.12,2.12,0,0,0,1.93-1,4.31,4.31,0,0,0,.62-2.37V8.91a4.27,4.27,0,0,0-.62-2.36,2.12,2.12,0,0,0-1.93-1,2.34,2.34,0,0,0-1.49.48,3,3,0,0,0-.89,1.1v3.76A2.87,2.87,0,0,0,61.08,12Z"/><path d="M67.54,4.43h5.27V5.68H67.54Zm1.65.76V2.14h1.63v9.25a1.25,1.25,0,0,0,.25.88,1,1,0,0,0,.77.26,2,2,0,0,0,.49,0,3.59,3.59,0,0,0,.48-.14v1.34a2.71,2.71,0,0,1-.6.18,4,4,0,0,1-.81.08,2.15,2.15,0,0,1-1.61-.62,2.67,2.67,0,0,1-.6-1.93Z"/><path d="M73.82,8.91A4.92,4.92,0,0,1,75,5.49a4.47,4.47,0,0,1,6.34,0,5,5,0,0,1,1.19,3.42v.28a4.93,4.93,0,0,1-1.19,3.42,4.44,4.44,0,0,1-6.34,0,4.88,4.88,0,0,1-1.19-3.42Zm1.67.28a4.14,4.14,0,0,0,.68,2.43,2.55,2.55,0,0,0,4,0,4.21,4.21,0,0,0,.68-2.43V8.91a4.2,4.2,0,0,0-.68-2.42,2.54,2.54,0,0,0-4,0,4.13,4.13,0,0,0-.68,2.42Z"/><path d="M85.09,4.43l1.7,6.08.16.57c0,.15.08.34.12.57h.06q.06-.35.12-.57l.17-.57,2-6.08h1.37l2.07,6.08c.08.24.15.43.18.57s.08.34.13.57h0l.12-.57q0-.21.15-.57l1.65-6.08h1.49L93.8,13.68H92.52l-2-6c-.08-.24-.15-.47-.22-.7s-.13-.47-.18-.71h-.06c-.06.24-.12.47-.19.71s-.14.46-.21.7l-2,6H86.36L83.5,4.43Z"/><path d="M98.17,4.43h1.48l.07,1.19h0a3.6,3.6,0,0,1,1.23-1,3.55,3.55,0,0,1,1.6-.37,3.08,3.08,0,0,1,2.23.8,3.59,3.59,0,0,1,.83,2.66v6H104v-6a2.15,2.15,0,0,0-.5-1.59,2,2,0,0,0-1.41-.48,2.35,2.35,0,0,0-1.38.43,2.81,2.81,0,0,0-.93,1.09v6.54H98.17Z"/><path d="M109.21,11V11a1.37,1.37,0,0,0,.59,1.2,3.24,3.24,0,0,0,3.08,0,1.2,1.2,0,0,0,.56-1,1.09,1.09,0,0,0-.45-.94,6,6,0,0,0-1.94-.68,6.53,6.53,0,0,1-2.37-1,2.06,2.06,0,0,1-.88-1.78,2.34,2.34,0,0,1,.94-1.9,4,4,0,0,1,2.53-.75,4.07,4.07,0,0,1,2.55.75,2.45,2.45,0,0,1,1,2V7h-1.63V6.92a1.26,1.26,0,0,0-.46-1,2.95,2.95,0,0,0-2.84,0,1.08,1.08,0,0,0-.44.88.94.94,0,0,0,.5.84,8.46,8.46,0,0,0,2,.66,5.77,5.77,0,0,1,2.31,1,2.3,2.3,0,0,1,.81,1.89,2.56,2.56,0,0,1-.92,2,4.16,4.16,0,0,1-2.77.79,4.31,4.31,0,0,1-2.82-.81,2.62,2.62,0,0,1-1-2.13V11Z"/><path d="M116.5,8.91a5.19,5.19,0,0,1,1-3.34,3.68,3.68,0,0,1,4.51-.91,2.83,2.83,0,0,1,1.07,1h.06l.07-1.2h1.47v12.9H123.1V12.59a2.88,2.88,0,0,1-1.09.91,3.78,3.78,0,0,1-4.46-1,5.19,5.19,0,0,1-1-3.34Zm2.28,2.65a2.14,2.14,0,0,0,1.94,1,2.36,2.36,0,0,0,1.49-.49,2.87,2.87,0,0,0,.89-1.1V7.17a3,3,0,0,0-.89-1.1,2.35,2.35,0,0,0-1.49-.48,2.14,2.14,0,0,0-1.94,1,4.27,4.27,0,0,0-.61,2.36v.28A4.31,4.31,0,0,0,118.78,11.56Z"/><path d="M127.25,4.43h1.63v6a2.14,2.14,0,0,0,.5,1.58,1.94,1.94,0,0,0,1.41.48,2.35,2.35,0,0,0,1.38-.42A2.89,2.89,0,0,0,133.1,11V4.43h1.64v9.25h-1.48l-.07-1.19h-.05a3.84,3.84,0,0,1-1.23,1,3.55,3.55,0,0,1-1.6.36,3.09,3.09,0,0,1-2.23-.79,3.59,3.59,0,0,1-.83-2.66Z"/><path d="M137.94,8.76A4.86,4.86,0,0,1,140.78,8h2.1V7.35A2.06,2.06,0,0,0,142.44,6,1.81,1.81,0,0,0,141,5.47a2.15,2.15,0,0,0-1.51.43,1.37,1.37,0,0,0-.45,1V7h-1.63v0a2.46,2.46,0,0,1,1-1.92A4,4,0,0,1,141,4.17a3.77,3.77,0,0,1,2.59.8,3,3,0,0,1,.92,2.38v4.22a6,6,0,0,0,.09,1.07,4.88,4.88,0,0,0,.24.9v.14h-1.58a3.09,3.09,0,0,1-.22-.58,3.32,3.32,0,0,1-.13-.7,2.92,2.92,0,0,1-1,1,3.5,3.5,0,0,1-1.87.44,3.44,3.44,0,0,1-2.24-.75,2.6,2.6,0,0,1-.92-2.15A2.52,2.52,0,0,1,137.94,8.76Zm1,3.34a2,2,0,0,0,1.42.45,2.59,2.59,0,0,0,1.75-.67,1.88,1.88,0,0,0,.79-1.41V9.14H141a3.11,3.11,0,0,0-1.86.47,1.46,1.46,0,0,0-.64,1.25A1.68,1.68,0,0,0,138.92,12.1Z"/><path d="M147.06,4.43h1.48l.07,1.19h0a3.56,3.56,0,0,1,.92-1,2.19,2.19,0,0,1,1.36-.43,2,2,0,0,1,.41,0l.3.08V5.8l-.37,0-.42,0a2.23,2.23,0,0,0-1.35.41,2.56,2.56,0,0,0-.82,1v6.51h-1.63Z"/><path d="M152.49,8.91a5,5,0,0,1,1.15-3.42,3.8,3.8,0,0,1,3-1.32,3.54,3.54,0,0,1,2.91,1.24,5.09,5.09,0,0,1,1,3.34v.67h-7.11V8.12H159V7.91a2.59,2.59,0,0,0-.57-1.7,2,2,0,0,0-1.65-.71,2.16,2.16,0,0,0-1.94,1,4.35,4.35,0,0,0-.64,2.42v.28a4.21,4.21,0,0,0,.68,2.43,2.38,2.38,0,0,0,2.1,1,2.92,2.92,0,0,0,1.51-.38,3.83,3.83,0,0,0,1-.92l1.05.84a4.24,4.24,0,0,1-1.36,1.23,4.72,4.72,0,0,1-5.53-.76,5,5,0,0,1-1.15-3.42Z"/><path d="M162.05,8.91a5.08,5.08,0,0,1,1.14-3.42,3.91,3.91,0,0,1,3.13-1.32,3.74,3.74,0,0,1,2.81,1,3.15,3.15,0,0,1,1,2.23v.05H168.5V7.39A1.92,1.92,0,0,0,168,6.07a2.56,2.56,0,0,0-3.63.42,4.35,4.35,0,0,0-.64,2.42v.28a4.36,4.36,0,0,0,.64,2.43A2.56,2.56,0,0,0,168,12a1.92,1.92,0,0,0,.51-1.32v0h1.59v0a3.14,3.14,0,0,1-1,2.23,3.71,3.71,0,0,1-2.81,1,3.89,3.89,0,0,1-3.13-1.33,5,5,0,0,1-1.14-3.42Z"/><path d="M172.6,8.76A4.83,4.83,0,0,1,175.44,8h2.09V7.35A2.05,2.05,0,0,0,177.1,6a1.83,1.83,0,0,0-1.49-.52,2.12,2.12,0,0,0-1.5.43,1.34,1.34,0,0,0-.46,1V7H172v0A2.46,2.46,0,0,1,173,5a4,4,0,0,1,2.65-.82,3.81,3.81,0,0,1,2.59.8,3,3,0,0,1,.92,2.38v4.22a6,6,0,0,0,.08,1.07,4.18,4.18,0,0,0,.25.9v.14h-1.58a2.5,2.5,0,0,1-.23-.58,2.78,2.78,0,0,1-.12-.7,2.92,2.92,0,0,1-1,1,3.52,3.52,0,0,1-1.87.44,3.42,3.42,0,0,1-2.24-.75,2.58,2.58,0,0,1-.93-2.15A2.53,2.53,0,0,1,172.6,8.76Zm1,3.34a1.94,1.94,0,0,0,1.42.45,2.61,2.61,0,0,0,1.75-.67,1.86,1.86,0,0,0,.78-1.41V9.14h-1.92a3.11,3.11,0,0,0-1.86.47,1.48,1.48,0,0,0-.63,1.25A1.64,1.64,0,0,0,173.58,12.1Z"/><path d="M180.41,4.43h5.28V5.68h-5.28Zm1.66.76V2.14h1.63v9.25a1.25,1.25,0,0,0,.25.88,1,1,0,0,0,.77.26,2,2,0,0,0,.48,0,3.32,3.32,0,0,0,.49-.14v1.34a3.09,3.09,0,0,1-.6.18,4.12,4.12,0,0,1-.81.08,2.15,2.15,0,0,1-1.61-.62,2.67,2.67,0,0,1-.6-1.93Z"/><path d="M186.87,8.91A5.09,5.09,0,0,1,188,5.49a3.84,3.84,0,0,1,3-1.32A3.54,3.54,0,0,1,194,5.41a5.09,5.09,0,0,1,1,3.34v.67h-7.11V8.12h5.46V7.91a2.59,2.59,0,0,0-.57-1.7,2,2,0,0,0-1.64-.71,2.17,2.17,0,0,0-1.95,1,4.43,4.43,0,0,0-.64,2.42v.28a4.21,4.21,0,0,0,.68,2.43,2.38,2.38,0,0,0,2.1,1,2.89,2.89,0,0,0,1.51-.38,3.69,3.69,0,0,0,1-.92l1.06.84a4.46,4.46,0,0,1-1.36,1.23,4.17,4.17,0,0,1-2.24.57,4.11,4.11,0,0,1-3.3-1.33,5.05,5.05,0,0,1-1.15-3.42Z"/><path d="M197,4.43h1.48l.07,1.19h.05a3.56,3.56,0,0,1,.92-1,2.19,2.19,0,0,1,1.36-.43,2,2,0,0,1,.41,0l.3.08V5.8l-.37,0-.42,0a2.23,2.23,0,0,0-1.35.41,2.56,2.56,0,0,0-.82,1v6.51H197Z"/><path d="M203.28.94A1,1,0,0,1,204,.66a1,1,0,0,1,.75.28,1,1,0,0,1,.27.69,1,1,0,0,1-.27.7,1,1,0,0,1-.75.28,1,1,0,0,1-.76-.28,1,1,0,0,1-.26-.7A1,1,0,0,1,203.28.94Zm-.06,3.49h1.64v9.25h-1.64Z"/><path d="M207.54,4.43H209l.07,1.19h.06a3.47,3.47,0,0,1,1.22-1A3.6,3.6,0,0,1,212,4.25a3.07,3.07,0,0,1,2.22.8A3.55,3.55,0,0,1,215,7.71v6h-1.63v-6a2.15,2.15,0,0,0-.5-1.59,2,2,0,0,0-1.41-.48,2.35,2.35,0,0,0-1.38.43,2.81,2.81,0,0,0-.93,1.09v6.54h-1.63Z"/><path d="M218.36,14.94a3.43,3.43,0,0,0,1.09.8,3.5,3.5,0,0,0,1.58.34,2.55,2.55,0,0,0,1.87-.67,2.55,2.55,0,0,0,.68-1.91v-.91a2.85,2.85,0,0,1-1.08.91,3.5,3.5,0,0,1-1.65.35A3.41,3.41,0,0,1,218,12.53,5.2,5.2,0,0,1,217,9.19V8.91A5.2,5.2,0,0,1,218,5.57a3.66,3.66,0,0,1,4.5-.91,2.79,2.79,0,0,1,1.08,1h0l.07-1.2h1.48V13.5a3.78,3.78,0,0,1-1.15,3,4.33,4.33,0,0,1-3,1,5.82,5.82,0,0,1-2.11-.38,5.4,5.4,0,0,1-1.63-1Zm.91-3.38a2.12,2.12,0,0,0,1.93,1,2.37,2.37,0,0,0,1.5-.49,2.85,2.85,0,0,0,.88-1.1V7.17a2.92,2.92,0,0,0-.88-1.1,2.36,2.36,0,0,0-1.5-.48,2.12,2.12,0,0,0-1.93,1,4.27,4.27,0,0,0-.62,2.36v.28A4.31,4.31,0,0,0,219.27,11.56Z"/><path d="M228.22,12a1.29,1.29,0,0,1,1.7,0,1.16,1.16,0,0,1,.29.78,1.14,1.14,0,0,1-.29.78,1.29,1.29,0,0,1-1.7,0,1.14,1.14,0,0,1-.29-.78A1.16,1.16,0,0,1,228.22,12Z"/><path d="M232.19,8.91a5.08,5.08,0,0,1,1.14-3.42,3.91,3.91,0,0,1,3.13-1.32,3.7,3.7,0,0,1,2.8,1,3.15,3.15,0,0,1,1,2.23v.05h-1.58V7.39a1.88,1.88,0,0,0-.52-1.32,2.14,2.14,0,0,0-1.66-.57,2.17,2.17,0,0,0-2,1,4.43,4.43,0,0,0-.63,2.42v.28a4.44,4.44,0,0,0,.63,2.43,2.18,2.18,0,0,0,2,1,2.14,2.14,0,0,0,1.66-.57,1.88,1.88,0,0,0,.52-1.32v0h1.58v0a3.14,3.14,0,0,1-1,2.23,3.67,3.67,0,0,1-2.8,1,3.89,3.89,0,0,1-3.13-1.33,5,5,0,0,1-1.14-3.42Z"/><path d="M241.58,8.91a5,5,0,0,1,1.18-3.42,4.48,4.48,0,0,1,6.35,0,5,5,0,0,1,1.18,3.42v.28a4.92,4.92,0,0,1-1.18,3.42,4.45,4.45,0,0,1-6.35,0,4.92,4.92,0,0,1-1.18-3.42Zm1.67.28a4.21,4.21,0,0,0,.67,2.43,2.56,2.56,0,0,0,4,0,4.21,4.21,0,0,0,.67-2.43V8.91A4.2,4.2,0,0,0,248,6.49a2.55,2.55,0,0,0-4,0,4.2,4.2,0,0,0-.67,2.42Z"/><path d="M252.34,4.43h1.48l.07,1.19h.05a3.81,3.81,0,0,1,1.19-1,3.56,3.56,0,0,1,3.16,0,2.37,2.37,0,0,1,1,1.2h.05a3.81,3.81,0,0,1,1.29-1.2,3.5,3.5,0,0,1,1.61-.37,3,3,0,0,1,2.25.8,3.63,3.63,0,0,1,.81,2.66v6H263.7v-6a2.19,2.19,0,0,0-.48-1.59,1.83,1.83,0,0,0-1.34-.48,2.15,2.15,0,0,0-1.32.43,2.92,2.92,0,0,0-.9,1.09v6.54H258v-6a2.24,2.24,0,0,0-.47-1.59,1.87,1.87,0,0,0-1.35-.48,2.17,2.17,0,0,0-1.32.43,2.92,2.92,0,0,0-.9,1.09v6.54h-1.64Z"/></g></svg>