<?xml version="1.0" encoding="UTF-8"?>
<svg id="Layer_1" data-name="Layer 1" xmlns="http://www.w3.org/2000/svg" viewBox="0 0 17.6 16.53">
  <g id="content">
    <path d="m17.6,8.99c-.07.43-.12.87-.23,1.3-.78,3.17-3.48,5.64-6.69,6.13-1.71.26-3.37.07-4.93-.7-1.16-.57-2.11-1.38-2.87-2.42-.2-.27-.15-.63.1-.81.26-.19.61-.14.82.14.82,1.11,1.88,1.9,3.17,2.37.87.31,1.77.43,2.7.39,1.49-.07,2.84-.54,4.02-1.45,1.58-1.22,2.54-2.83,2.74-4.82.3-3.07-.91-5.42-3.53-7.03-.96-.59-2.03-.88-3.16-.93-2.16-.1-4,.64-5.51,2.17-.97.98-1.57,2.17-1.85,3.52,0,.03,0,.07-.01.1,0,0,.01.02.05.07.07-.08.13-.17.2-.24.25-.24.61-.24.83-.02.22.22.21.58-.02.82-.44.45-.89.9-1.34,1.34-.29.29-.68.24-.91-.1-.35-.52-.7-1.05-1.05-1.57-.2-.3-.15-.65.13-.83.27-.18.61-.1.82.2.04.06.06.14.15.17.04-.16.07-.32.11-.47C2.28,2.92,4.47.77,7.93.15c3.34-.6,6.09.6,8.14,3.31.89,1.18,1.36,2.53,1.51,4,0,.03.01.06.02.08v1.44Z"/>
    <path d="m8.52,6.07c0-.83,0-1.66,0-2.49,0-.28.19-.5.45-.55.29-.05.54.1.64.37.03.09.03.18.03.27,0,1.45,0,2.91,0,4.36,0,.16.05.25.17.34.95.71,1.89,1.43,2.84,2.14.18.14.29.31.27.54-.04.45-.52.67-.9.4-.36-.25-.7-.52-1.05-.78-.72-.54-1.43-1.08-2.16-1.62-.21-.15-.3-.34-.3-.6,0-.8,0-1.6,0-2.4Z"/>
  </g>
</svg>
