<?xml version="1.0" encoding="UTF-8"?>
<svg id="Layer_1" data-name="Layer 1" xmlns="http://www.w3.org/2000/svg" viewBox="0 0 17.52 15.8">
  <g id="content">
    <path d="m17.52,2.36c-.21.73-.43,1.45-.63,2.18-.36,1.27-.73,2.54-1.09,3.81-.1.35-.23.44-.59.44-3.63,0-7.25,0-10.88,0-.28,0-.29,0-.24.28.05.29.08.59.25.84.26.38.62.58,1.08.58.6,0,1.21,0,1.81,0,2.63,0,5.27,0,7.9,0,.1,0,.21,0,.31.03.2.06.34.25.33.45,0,.2-.15.38-.36.43-.08.02-.16.02-.24.02-3.23,0-6.46,0-9.7,0-1.17,0-2.06-.78-2.25-1.93-.31-1.88-.63-3.76-.94-5.64-.11-.63-.2-1.26-.32-1.89-.11-.6-.6-1.01-1.21-1.03-.11,0-.23,0-.34-.01C.18.89.02.72,0,.5-.02.27.11.1.36.02.38.02.4,0,.42,0c.14,0,.27,0,.41,0,.03,0,.05.02.08.02.95.11,1.59.62,1.9,1.52.06.18.13.23.32.23,4.62,0,9.25,0,13.87,0,.26,0,.43.09.53.32v.27Zm-7.78.31c-2.1,0-4.21,0-6.31,0-.39,0-.39,0-.33.38.25,1.54.51,3.08.76,4.62.03.18.1.22.28.22,3.54,0,7.08,0,10.62,0,.17,0,.25-.05.29-.22.44-1.57.89-3.14,1.34-4.72q.08-.28-.22-.28c-2.14,0-4.29,0-6.43,0Z"/>
    <path d="m5.27,12.27c.99,0,1.76.78,1.76,1.77,0,.87-.66,1.74-1.77,1.76-.97.02-1.77-.81-1.77-1.78,0-.97.8-1.75,1.78-1.75Zm0,2.61c.47,0,.85-.37.85-.85,0-.47-.38-.85-.86-.85-.47,0-.85.38-.85.85,0,.47.38.85.86.85Z"/>
    <path d="m14.9,14.04c.03.83-.65,1.75-1.76,1.76-.98,0-1.78-.81-1.76-1.78.01-1.1.94-1.78,1.81-1.75.96.03,1.72.8,1.72,1.78Zm-1.76.83c.49,0,.85-.37.85-.85,0-.47-.37-.84-.85-.85-.48,0-.85.37-.85.85,0,.48.37.84.84.84Z"/>
  </g>
</svg>
