<?xml version="1.0" encoding="UTF-8"?>
<svg id="Layer_1" data-name="Layer 1" xmlns="http://www.w3.org/2000/svg" viewBox="0 0 17.44 17.45">
  <g id="content">
    <path d="m6.29,8.81c-.26-.18-.52-.35-.75-.56-.73-.65-1.21-1.45-1.43-2.39-.41-1.78.09-3.3,1.38-4.56C6.27.54,7.23.14,8.3.03c.86-.09,1.69.07,2.46.46,1.55.78,2.46,2.04,2.67,3.76.17,1.37-.24,2.58-1.15,3.62-.3.34-.64.63-1.03.87-.04.02-.1.03-.09.08,0,.05.07.05.11.06.75.22,1.46.54,2.12.97,2.12,1.37,3.41,3.3,3.9,5.77.08.42.13.85.14,1.28.01.36-.19.56-.55.56-5.43,0-10.86,0-16.29,0-.32,0-.63-.2-.61-.62.05-1.08.3-2.11.72-3.1.46-1.07,1.11-2.03,1.96-2.83.76-.73,1.65-1.28,2.61-1.71.28-.13.58-.22.87-.31.04-.01.09-.01.13-.07Zm2.42,7.64h0c2.41,0,4.82,0,7.23,0,.12,0,.23,0,.35,0,.08,0,.12-.02.11-.12-.08-.66-.23-1.3-.46-1.93-.46-1.26-1.21-2.31-2.24-3.16-1.79-1.48-3.86-2.01-6.14-1.69-1.64.23-3.05.93-4.24,2.08-1.3,1.27-2.05,2.83-2.25,4.64-.01.12-.01.17.13.17,2.51,0,5.01,0,7.52,0Zm-.02-15.44c-2.15-.05-3.73,1.86-3.73,3.72,0,1.98,1.63,3.79,3.81,3.79,1.94,0,3.75-1.56,3.72-3.83-.03-2.07-1.79-3.75-3.8-3.68Z"/>
  </g>
</svg>
