<?xml version="1.0" encoding="UTF-8"?>
<svg id="Layer_1" data-name="Layer 1" xmlns="http://www.w3.org/2000/svg" viewBox="0 0 18.02 18.52">
  <g id="content">
    <path d="m18.02,12.82c0,1.46,0,2.93,0,4.39,0,.81-.5,1.31-1.31,1.31-1.5,0-2.99,0-4.49,0-.77,0-1.29-.51-1.29-1.28,0-1.5,0-3,0-4.5,0-.35-.11-.47-.46-.47-.98,0-1.96,0-2.94,0-.34,0-.46.12-.46.46,0,1.5,0,2.99,0,4.49,0,.8-.51,1.31-1.31,1.31-1.48,0-2.97,0-4.45,0-.82,0-1.31-.5-1.31-1.31C0,14.28,0,11.36,0,8.44c0-.46.17-.83.52-1.13.84-.74,1.65-1.5,2.48-2.25,1.13-1.03,2.26-2.05,3.39-3.08.6-.54,1.2-1.08,1.79-1.63.51-.47,1.18-.46,1.69,0,1.08.99,2.17,1.97,3.25,2.95.98.89,1.96,1.79,2.95,2.68.5.46,1,.91,1.51,1.36.31.27.46.61.46,1.02,0,1.48,0,2.97,0,4.45Zm-17.19-.02c0,1.47,0,2.94,0,4.41,0,.38.11.49.48.49,1.49,0,2.98,0,4.47,0,.36,0,.48-.11.48-.47,0-1.49,0-2.98,0-4.47,0-.81.5-1.31,1.3-1.31.96,0,1.92,0,2.88,0,.84,0,1.33.5,1.33,1.33,0,1.48,0,2.97,0,4.45,0,.35.11.47.46.47,1.5,0,2.99,0,4.49,0,.36,0,.48-.11.48-.47,0-1.03,0-2.05,0-3.08,0-1.92,0-3.84,0-5.77,0-.16-.03-.29-.16-.4-.85-.77-1.7-1.54-2.55-2.31-1.73-1.57-3.45-3.14-5.18-4.71-.21-.19-.4-.19-.6,0-.72.65-1.43,1.3-2.15,1.95-.98.89-1.96,1.78-2.94,2.67-.86.78-1.72,1.57-2.58,2.34-.15.13-.22.27-.22.47,0,1.47,0,2.94,0,4.41Z"/>
  </g>
</svg>
