<?xml version="1.0" encoding="UTF-8"?>
<svg id="Layer_1" data-name="Layer 1" xmlns="http://www.w3.org/2000/svg" viewBox="0 0 17.07 17.06">
  <g id="content">
    <path d="m17.02,7.51c-.03-.2-.06-.41-.1-.61-.81-3.45-2.96-5.67-6.42-6.59-.73-.2-1.45.23-1.65.98-.09.33-.21.59-.38.82-.45.62-1.09.96-1.91,1.02-.16.02-.32.09-.42.22-.1.13-.16.3-.14.47.08.61-.07,1.19-.46,1.7-.63.83-1.69,1.15-2.7.8-.1-.04-.2-.06-.29-.06-.23,0-.41.12-.56.38-.1.19-.21.33-.32.45-.32.35-.71.59-1.19.73-.27.07-.46.3-.47.56-.02.51,0,.97.07,1.42.26,1.66.93,3.1,1.99,4.3,1.96,2.21,4.46,3.19,7.42,2.91,1.46-.14,2.81-.66,4.04-1.55,1.62-1.18,2.72-2.76,3.26-4.68.14-.48.21-.99.28-1.48v-1.46c-.02-.1-.03-.22-.05-.34Zm-2.63,5.4c-1.18,1.57-2.77,2.51-4.75,2.84-.33.06-.67.08-.99.08h-.1c-3.3,0-6.2-2.2-7.03-5.32-.13-.48-.21-.96-.24-1.43,0-.14.04-.22.15-.28.52-.24.96-.59,1.33-1.04.11-.14.25-.12.32-.11,1.86.3,3.61-.84,4.1-2.66.04-.15.06-.32.09-.5.02-.17.13-.22.22-.25,1.29-.39,2.14-1.23,2.53-2.5.07-.27.29-.21.38-.19,1.16.3,2.18.84,3.04,1.61,1.29,1.17,2.08,2.62,2.33,4.3.3,2-.17,3.83-1.37,5.43Z"/>
    <path d="m6.99.71c-.05.29-.29.51-.58.52h-.03c-.27,0-.54-.19-.6-.45-.08-.3.05-.58.32-.72.03-.02.06-.04.08-.05h.02s.35,0,.35,0c.35.17.49.4.44.71Z"/>
    <path d="m4.12,3.86c0,.26-.1.51-.3.7-.19.19-.44.27-.69.28-.54,0-.96-.45-.96-.99,0-.27.1-.51.29-.7.18-.19.43-.29.69-.29s.51.1.69.29c.19.19.29.44.29.71Z"/>
    <path d="m6.28,10.33c0,.27-.1.51-.3.7-.19.19-.43.29-.68.29h0c-.55,0-.97-.45-.96-1.01,0-.26.1-.5.29-.69.19-.18.43-.28.69-.28h0c.55,0,.96.45.96.99Z"/>
    <path d="m12.05,11.78c0,.54-.45.96-.99.96-.27,0-.51-.1-.7-.3-.19-.19-.29-.43-.29-.68,0-.55.45-.97,1-.97h0c.26,0,.5.1.69.29.18.19.28.44.28.71Z"/>
    <path d="m11.33,6.01c0,.53-.46.98-.98.98h0c-.53,0-.98-.46-.98-.99s.45-.98.98-.98c.26,0,.51.11.71.3.19.19.29.44.29.7Z"/>
    <path d="m9.17,8.53c0,.17-.08.33-.2.45-.12.12-.27.18-.44.18-.16,0-.32-.07-.45-.2-.11-.12-.18-.28-.17-.43,0-.33.3-.61.62-.61.17,0,.32.06.45.19s.19.29.19.44Z"/>
    <path d="m13.49,8.53c0,.17-.07.32-.19.45s-.28.19-.44.18c-.32,0-.61-.29-.62-.62,0-.16.07-.32.19-.44.12-.12.29-.19.45-.19.16,0,.32.07.44.19s.19.28.19.44Z"/>
    <path d="m7.72,12.86c0,.16-.07.32-.19.44-.12.12-.28.18-.44.18-.34,0-.6-.28-.6-.62s.26-.62.6-.63h0c.16,0,.32.06.44.19.12.12.19.29.19.45Z"/>
  </g>
</svg>
