<svg xmlns="http://www.w3.org/2000/svg" viewBox="0 0 11.67 11.67"><title>Asset 5</title><g id="Layer_2" data-name="Layer 2"><g id="Layer_1-2" data-name="Layer 1"><path d="M5.84,0A5.84,5.84,0,1,1,0,5.81,5.84,5.84,0,0,1,5.84,0ZM.75,5.84A5.09,5.09,0,1,0,5.84.75,5.08,5.08,0,0,0,.75,5.84Z"/><path d="M5.83,8.76a4,4,0,0,1-2.36-.7,3,3,0,0,1-.86-.93.38.38,0,0,1,0-.45.37.37,0,0,1,.41-.1.29.29,0,0,1,.19.15,2.61,2.61,0,0,0,1.81,1.2,3.63,3.63,0,0,0,2.23-.21,2.39,2.39,0,0,0,1.14-1,.37.37,0,0,1,.51-.15.38.38,0,0,1,.14.53A3,3,0,0,1,7.85,8.28,4.07,4.07,0,0,1,5.83,8.76Z"/><path d="M4,3.64A.74.74,0,0,1,4,5.12a.75.75,0,0,1-.74-.74A.74.74,0,0,1,4,3.64Z"/><path d="M6.92,4.39a.73.73,0,0,1,.74-.75.74.74,0,1,1-.74.75Z"/></g></g></svg>