<?xml version="1.0" encoding="utf-8"?>
<!-- Generator: Adobe Illustrator 22.1.0, SVG Export Plug-In . SVG Version: 6.00 Build 0)  -->
<svg version="1.1" xmlns="http://www.w3.org/2000/svg" xmlns:xlink="http://www.w3.org/1999/xlink" x="0px" y="0px"
	 viewBox="0 0 30 30" style="enable-background:new 0 0 30 30;" xml:space="preserve">
<style type="text/css">
	.st0{fill:#2D2929;}
	.st1{fill:#777777;}
	.st2{opacity:0.1;}
	.st3{fill:#9E1717;}
	.st4{fill:#332F2F;}
	.st5{fill:#3F3B3B;}
	.st6{opacity:0.2;fill:#2D2929;}
	.st7{opacity:0.6;fill:#FFFFFF;}
	.st8{fill:#B21919;}
	.st9{fill:#B41717;}
	.st10{opacity:0.2;fill:#FFFFFF;}
	.st11{fill:#1F2A6D;}
	.st12{fill:#FFFFFF;}
	.st13{fill:#939292;}
	.st14{opacity:0.42;}
	.st15{fill:#8D8D8D;}
	.st16{opacity:0.1;fill:#2D2929;}
	.st17{fill:#E01C24;}
	.st18{fill:none;stroke:#FFFFFF;stroke-miterlimit:10;}
	.st19{fill:#809DB2;}
	.st20{opacity:0.6;}
	.st21{opacity:0.2;}
	.st22{fill:url(#SVGID_19_);}
	.st23{fill:url(#SVGID_20_);}
	.st24{fill:url(#SVGID_21_);}
	.st25{opacity:0.5;}
	.st26{fill:url(#SVGID_28_);}
	.st27{fill:url(#SVGID_29_);}
	.st28{fill:url(#SVGID_30_);}
	.st29{opacity:0.8;}
	.st30{fill:none;stroke:#FFFFFF;stroke-width:2;stroke-miterlimit:10;}
	.st31{opacity:0.2;fill:none;stroke:#FFFFFF;stroke-width:2;stroke-miterlimit:10;}
	.st32{opacity:0.8;fill:#2D2929;}
	.st33{fill:url(#SVGID_35_);}
	.st34{opacity:0.1;fill:none;stroke:#2D2929;stroke-miterlimit:10;}
	.st35{fill:none;stroke:#9E1717;stroke-width:2;stroke-miterlimit:10;}
	.st36{fill:url(#SVGID_46_);}
	.st37{fill:none;stroke:#2D2929;stroke-miterlimit:10;}
	.st38{fill:url(#SVGID_53_);}
	.st39{fill:url(#SVGID_54_);}
	.st40{fill:url(#SVGID_55_);}
	.st41{fill:url(#SVGID_64_);}
	.st42{fill:url(#SVGID_65_);}
	.st43{fill:url(#SVGID_66_);}
	.st44{fill:url(#SVGID_73_);}
	.st45{fill:url(#SVGID_74_);}
	.st46{fill:url(#SVGID_75_);}
	.st47{opacity:0.2;fill:none;stroke:#2D2929;stroke-miterlimit:10;}
	.st48{fill:url(#SVGID_88_);}
	.st49{fill:url(#SVGID_91_);}
	.st50{opacity:0.1;fill:none;stroke:#000000;stroke-width:2;stroke-miterlimit:10;}
	.st51{fill:none;stroke:#9E1717;stroke-width:3;stroke-miterlimit:10;}
	.st52{fill:#1A171B;}
	.st53{opacity:0.4;}
	.st54{fill:url(#SVGID_108_);}
	.st55{fill:url(#SVGID_109_);}
	.st56{opacity:0.2;fill:none;stroke:#FFFFFF;stroke-miterlimit:10;}
	.st57{opacity:0.4;fill:none;stroke:#FFFFFF;stroke-miterlimit:10;}
	.st58{fill:url(#SVGID_110_);}
	.st59{fill:#D0D0D0;}
	.st60{fill:url(#SVGID_111_);}
	.st61{opacity:0.5;fill:#FFFFFF;}
	.st62{fill:url(#SVGID_114_);}
	.st63{fill:#C4C4C4;}
	.st64{fill:url(#SVGID_119_);}
	.st65{fill:url(#SVGID_120_);}
	.st66{fill:url(#SVGID_121_);}
	.st67{fill:url(#SVGID_126_);}
	.st68{fill:url(#SVGID_131_);}
	.st69{fill:url(#SVGID_136_);}
</style>
<g id="Layer_1">
	<g>
		<defs>
			<rect id="SVGID_44_" x="278.5" y="-170.8" width="321.6" height="496.1"/>
		</defs>
		<clipPath id="SVGID_2_">
			<use xlink:href="#SVGID_44_"  style="overflow:visible;"/>
		</clipPath>
		<g transform="matrix(1 0 0 1 0 0)" style="clip-path:url(#SVGID_2_);">
			
				<image style="overflow:visible;" width="2000" height="1125" xlink:href="../links/edited.jpg"  transform="matrix(0.4575 0 0 0.4552 -98.9472 -182.6052)">
			</image>
		</g>
	</g>
	<g>
		<g>
			<path class="st12" d="M24.7,21.7c-1.3-1.9-3-3.3-5.1-4.3l-0.5-0.2l0.5-0.3c2-1.4,3.3-3.5,3.5-5.9c0.2-2.4-0.6-4.8-2.3-6.4
				c-3.1-3.1-8.1-3.2-11.3-0.1C7.8,6,7,7.9,7,10.1c0,2.8,1.1,5.1,3.5,6.8l0.4,0.3l-0.5,0.2c-4.4,2.2-6.7,5.6-7,10.3h1.8
				c0.3-5.2,4.4-9.3,9.5-9.5c2.2-0.1,4.2,0.5,6,1.8c2.6,1.9,4,4.4,4.2,7.7h1.7C26.5,25.5,25.9,23.5,24.7,21.7z M15,16.5
				c-1.7,0-3.3-0.7-4.4-1.8c-1.2-1.2-1.8-2.8-1.8-4.4C8.8,6.8,11.6,4,15,4c0,0,0,0,0,0c3.4,0,6.2,2.8,6.2,6.3c0,1.7-0.6,3.3-1.8,4.4
				C18.3,15.9,16.7,16.5,15,16.5C15,16.5,15,16.5,15,16.5z"/>
		</g>
	</g>
</g>
<g id="Layer_2">
</g>
</svg>
