<?xml version="1.0" encoding="utf-8"?>
<!-- Generator: Adobe Illustrator 22.1.0, SVG Export Plug-In . SVG Version: 6.00 Build 0)  -->
<svg version="1.1" xmlns="http://www.w3.org/2000/svg" xmlns:xlink="http://www.w3.org/1999/xlink" x="0px" y="0px"
	 viewBox="0 0 30 30" style="enable-background:new 0 0 30 30;" xml:space="preserve">
<style type="text/css">
	.st0{fill:#2D2929;}
	.st1{fill:#777777;}
	.st2{opacity:0.1;}
	.st3{fill:#9E1717;}
	.st4{fill:#332F2F;}
	.st5{fill:#3F3B3B;}
	.st6{opacity:0.2;fill:#2D2929;}
	.st7{opacity:0.6;fill:#FFFFFF;}
	.st8{fill:#B21919;}
	.st9{fill:#B41717;}
	.st10{opacity:0.2;fill:#FFFFFF;}
	.st11{fill:#1F2A6D;}
	.st12{fill:#FFFFFF;}
	.st13{fill:#939292;}
	.st14{opacity:0.42;}
	.st15{fill:#8D8D8D;}
	.st16{opacity:0.1;fill:#2D2929;}
	.st17{fill:#E01C24;}
	.st18{fill:none;stroke:#FFFFFF;stroke-miterlimit:10;}
	.st19{fill:#809DB2;}
	.st20{opacity:0.6;}
	.st21{opacity:0.2;}
	.st22{fill:url(#SVGID_19_);}
	.st23{fill:url(#SVGID_20_);}
	.st24{fill:url(#SVGID_21_);}
	.st25{opacity:0.5;}
	.st26{fill:url(#SVGID_28_);}
	.st27{fill:url(#SVGID_29_);}
	.st28{fill:url(#SVGID_30_);}
	.st29{opacity:0.8;}
	.st30{fill:none;stroke:#FFFFFF;stroke-width:2;stroke-miterlimit:10;}
	.st31{opacity:0.2;fill:none;stroke:#FFFFFF;stroke-width:2;stroke-miterlimit:10;}
	.st32{opacity:0.8;fill:#2D2929;}
	.st33{fill:url(#SVGID_35_);}
	.st34{opacity:0.1;fill:none;stroke:#2D2929;stroke-miterlimit:10;}
	.st35{fill:none;stroke:#9E1717;stroke-width:2;stroke-miterlimit:10;}
	.st36{fill:url(#SVGID_46_);}
	.st37{fill:none;stroke:#2D2929;stroke-miterlimit:10;}
	.st38{fill:url(#SVGID_53_);}
	.st39{fill:url(#SVGID_54_);}
	.st40{fill:url(#SVGID_55_);}
	.st41{fill:url(#SVGID_64_);}
	.st42{fill:url(#SVGID_65_);}
	.st43{fill:url(#SVGID_66_);}
	.st44{fill:url(#SVGID_73_);}
	.st45{fill:url(#SVGID_74_);}
	.st46{fill:url(#SVGID_75_);}
	.st47{opacity:0.2;fill:none;stroke:#2D2929;stroke-miterlimit:10;}
	.st48{fill:url(#SVGID_88_);}
	.st49{fill:url(#SVGID_91_);}
	.st50{opacity:0.1;fill:none;stroke:#000000;stroke-width:2;stroke-miterlimit:10;}
	.st51{fill:none;stroke:#9E1717;stroke-width:3;stroke-miterlimit:10;}
	.st52{fill:#1A171B;}
	.st53{opacity:0.4;}
	.st54{fill:url(#SVGID_108_);}
	.st55{fill:url(#SVGID_109_);}
	.st56{opacity:0.2;fill:none;stroke:#FFFFFF;stroke-miterlimit:10;}
	.st57{opacity:0.4;fill:none;stroke:#FFFFFF;stroke-miterlimit:10;}
	.st58{fill:url(#SVGID_110_);}
	.st59{fill:#D0D0D0;}
	.st60{fill:url(#SVGID_111_);}
	.st61{opacity:0.5;fill:#FFFFFF;}
	.st62{fill:url(#SVGID_114_);}
	.st63{fill:#C4C4C4;}
	.st64{fill:url(#SVGID_119_);}
	.st65{fill:url(#SVGID_120_);}
	.st66{fill:url(#SVGID_121_);}
	.st67{fill:url(#SVGID_126_);}
	.st68{fill:url(#SVGID_131_);}
	.st69{fill:url(#SVGID_136_);}
</style>
<g id="Layer_1">
	<g>
		<defs>
			<rect id="SVGID_44_" x="182" y="-170.1" width="321.6" height="496.1"/>
		</defs>
		<clipPath id="SVGID_2_">
			<use xlink:href="#SVGID_44_"  style="overflow:visible;"/>
		</clipPath>
		<g transform="matrix(1 0 0 1 0 0)" style="clip-path:url(#SVGID_2_);">
			
				<image style="overflow:visible;" width="2000" height="1125" xlink:href="../links/edited.jpg"  transform="matrix(0.4575 0 0 0.4552 -195.4315 -181.8991)">
			</image>
		</g>
	</g>
	<path class="st12" d="M26.7,12.1c-0.1,0-0.1,0-0.2,0c-2,0-3.9,0-5.9,0c-0.1,0-0.2,0-0.2-0.2c-0.1-0.3-2.6-6.1-2.6-6.1l-1,0.5
		c0,0,1.6,3.8,2,4.9c0.1,0.3,0.2,0.6,0.4,0.9h-8.2c0,0,0-0.1,0-0.1c0.5-1.1,1.6-3.7,1.6-3.9c0,0,0.7-1.7,0.7-1.7l-1-0.5
		c0,0-2.2,5.2-2.6,6C9.8,12,9.8,12,9.6,12c-1.9,0-3.9,0-5.8,0c-0.1,0-0.1,0-0.2,0H2.4V14h1.8c0.2,0.9,0.3,1.9,0.5,2.8
		c0.3,1.8,0.6,3.5,1,5.3c0.1,0.3,0.1,0.7,0.2,1c0.4,0.8,1.1,1.3,2,1.3c1.8,0,3.6,0,5.4,0h4.1c1.7,0,3.4,0,5.2,0c1,0,1.8-0.8,2-1.8
		c0.1-0.7,0.2-1.4,0.4-2.1c0.3-1.4,0.5-2.8,0.8-4.3c0.1-0.7,0.3-1.4,0.4-2.2h1.5v-1.9H26.7z M24.3,17.5l-0.2,1.3
		c0,0.2-0.1,0.4-0.1,0.6c-0.2,0.9-0.3,1.8-0.5,2.6c0,0.1,0,0.1,0,0.2c-0.1,0.5-0.5,0.8-0.9,0.8c-0.4,0-0.7,0-1.1,0H7.9
		c-0.6,0-0.9-0.3-1.1-0.9l-1.7-8.2h4.3v0h1.2c0,0,0,0,0,0h3.9v0h10.4L24.3,17.5z"/>
</g>
<g id="Layer_2">
</g>
</svg>
