<?xml version="1.0" encoding="utf-8"?>
<!-- Generator: Adobe Illustrator 25.0.0, SVG Export Plug-In . SVG Version: 6.00 Build 0)  -->
<svg version="1.1" id="Layer_1" xmlns="http://www.w3.org/2000/svg" xmlns:xlink="http://www.w3.org/1999/xlink" x="0px" y="0px"
	 viewBox="0 0 15.6 16.1" style="enable-background:new 0 0 15.6 16.1;" xml:space="preserve">
<style type="text/css">
	.st0{fill:#FFFFFF;}
</style>
    <g id="language_choice">
	<path class="st0" d="M7.8,0.3c-4.3,0-7.8,3.5-7.8,7.8c0,4.3,3.5,7.7,7.7,7.7c4.3,0,7.7-3.5,7.8-7.7C15.6,3.8,12.1,0.3,7.8,0.3z
		 M4.3,7.7c-0.1-0.3,0.2-2,0.4-2.5c0.9,0.3,1.8,0.4,2.7,0.5v2H4.3z M7.5,8.4v2c-0.9,0-1.8,0.2-2.7,0.5c-0.2-0.3-0.5-1.9-0.4-2.5
		C4.3,8.4,7.4,8.4,7.5,8.4z M7.4,1.3c0,0,0,0,0.1,0V5C6.9,5.1,5.3,4.8,5,4.6c0,0,0,0,0-0.1C5.6,3.3,6.3,2.2,7.4,1.3z M4.8,2
		C5.3,1.7,6,1.5,6.2,1.5C5.4,2.3,4.8,3.3,4.3,4.4C3.8,4.2,3.2,3.9,2.7,3.5C3.3,2.9,4,2.3,4.8,2z M1.5,5.6c0.2-0.5,0.6-1.3,0.8-1.6
		C2.9,4.4,3.5,4.8,4.1,5C3.8,5.9,3.7,6.8,3.6,7.7c-0.1,0-2.5,0-2.6,0C1.1,7,1.2,6.3,1.5,5.6z M2.3,12C1.5,10.9,1.1,9.7,1,8.4h2.6
		c0,0.9,0.2,1.8,0.5,2.7C3.5,11.3,2.9,11.7,2.3,12z M2.7,12.6c0.5-0.3,1-0.6,1.6-0.8c0.4,1.1,1,2,1.8,2.9
		C4.8,14.3,3.7,13.6,2.7,12.6z M7.5,14.8c-0.1,0-0.2,0-0.2-0.1c-1-0.9-1.7-1.9-2.2-3.2c0,0,0,0,0-0.1c0,0,0,0,0,0
		c0.8-0.3,1.6-0.4,2.5-0.4V14.8z M13.3,4.1c0.4,0.5,0.7,1.1,0.9,1.7c0.2,0.6,0.3,1.3,0.4,1.9c-0.1,0-2.4,0-2.6,0
		c0-0.3-0.1-0.6-0.1-0.9c0-0.3-0.1-0.6-0.2-0.9c-0.1-0.3-0.2-0.6-0.2-0.9C12.1,4.8,12.7,4.4,13.3,4.1z M12.9,3.5
		c-0.5,0.3-1,0.6-1.6,0.8c-0.2-0.5-0.5-1.1-0.8-1.5c-0.3-0.5-0.7-0.9-1.1-1.4C10.8,1.8,11.9,2.5,12.9,3.5z M11.3,8.4
		c0,0.8-0.2,1.7-0.4,2.5c-0.9-0.3-1.8-0.4-2.7-0.5v-2H11.3z M8.1,7.7v-2c0.9,0,1.8-0.2,2.7-0.5c0.3,0.8,0.4,1.6,0.5,2.5H8.1z
		 M8.1,1.3c0.1,0,0.1,0,0.1,0c0.3,0.3,0.6,0.5,0.9,0.9c0.6,0.7,1.1,1.5,1.5,2.3c0,0,0,0.1,0,0.1C9.8,4.9,9,5,8.1,5V1.3z M8.4,14.7
		c-0.1,0.1-0.1,0.1-0.2,0.1v-3.8c0.9,0,1.7,0.2,2.5,0.4c0,0,0,0.1,0,0.1C10.1,12.8,9.4,13.9,8.4,14.7z M11.3,13.8
		c-0.6,0.4-1.2,0.6-1.9,0.8c0.4-0.4,0.7-0.9,1-1.4c0.3-0.5,0.6-1,0.8-1.5c0.6,0.2,1.1,0.5,1.6,0.8C12.4,13.1,11.9,13.5,11.3,13.8z
		 M14.4,9.8c-0.2,0.8-0.6,1.6-1.1,2.2c-0.3-0.2-0.6-0.3-0.9-0.5c-0.3-0.2-0.6-0.3-0.9-0.4c0.1-0.4,0.3-0.9,0.3-1.3
		C11.9,9.3,12,8.9,12,8.4h2.6C14.6,8.5,14.5,9.3,14.4,9.8z"/>
</g>
</svg>
