<svg xmlns="http://www.w3.org/2000/svg" viewBox="0 0 12.47 9.5"><defs><style>.cls-1{fill:#fff;}</style></defs>
    <g id="location_svg"><g id="Layer_2" data-name="Layer 2"><g id="Layer_1-2" data-name="Layer 1"><path class="cls-1" d="M12.47,2.49v.88a5.4,5.4,0,0,0-.41.42.48.48,0,0,0-.1.28c0,1.52,0,3,0,4.55,0,.85,0,.89-.89.87-.36,0-.52-.16-.52-.55,0-1.31,0-2.62,0-3.93V3.83H1.94v.3c0,1.59,0,3.19,0,4.79,0,.43-.15.57-.58.57-.79,0-.82,0-.83-.82,0-1.53,0-3.06,0-4.6a.31.31,0,0,0-.19-.34C.19,3.67.1,3.5,0,3.37V2.58a.88.88,0,0,1,.05-.29l0,0a.31.31,0,0,1,.05-.1l0-.05.15-.18s0,0,0,0l.09-.08C1,1.27,1.6.73,2.19.22A.91.91,0,0,1,2.73,0C5.09,0,7.45,0,9.82,0a.81.81,0,0,1,.44.18c.59.52,1.18,1.06,1.76,1.6A1.08,1.08,0,0,1,12.47,2.49Z"/><path class="cls-1" d="M.13,2.14a.31.31,0,0,0,0,.1A.31.31,0,0,1,.13,2.14Z"/><path class="cls-1" d="M3.34,6.74c0,.25-.22.39-.49.38a.43.43,0,0,1-.42-.43c0-.74,0-1.48,0-2.22,0-.06.12-.18.19-.19.24,0,.48,0,.75,0C3.35,5.12,3.36,5.93,3.34,6.74Z"/><path class="cls-1" d="M10,6.6c0,.35-.17.52-.47.52s-.45-.18-.45-.52c0-.76,0-1.52,0-2.31H10a1.24,1.24,0,0,1,0,.16C10.05,5.17,10.05,5.88,10,6.6Z"/></g></g>
    </g></svg>
