<svg xmlns="http://www.w3.org/2000/svg" viewBox="0 0 7.2 8.61">
    <defs>
        <style>.cls-1{opacity:0.5;}.cls-2{fill:#001e5b;}</style>
    </defs>
    <g id="content">
        <g id="Layer_2" data-name="Layer 2">
            <g id="Layer_1-2" data-name="Layer 1">
                <g class="cls-1">
                    <path class="cls-2"
                          d="M7.2,4.36V6.78a2.28,2.28,0,0,1,0,.44A1.78,1.78,0,0,1,5.39,8.61H1.72A1.71,1.71,0,0,1,.5,8.06,1.82,1.82,0,0,1,0,6.79C0,6,0,5.15,0,4.33a.72.72,0,0,1,.67-.75,1.4,1.4,0,0,1,.29,0c.08,0,.11,0,.11-.11,0-.29,0-.57,0-.86a3,3,0,0,1,.1-.79A2.58,2.58,0,0,1,2.5.25,2.82,2.82,0,0,1,3.37,0h.47a3,3,0,0,1,.32.06,2.51,2.51,0,0,1,2,2.43.35.35,0,0,1-.38.39H5.43A.36.36,0,0,1,5,2.48a1.42,1.42,0,0,0-1.93-1.3,1.48,1.48,0,0,0-.91,1.35c0,.3,0,.6,0,.89s0,.16.15.16H6.42A.74.74,0,0,1,7.2,4.36Z"/>
                </g>
            </g>
        </g>
    </g>
</svg>
