<svg xmlns="http://www.w3.org/2000/svg" xmlns:xlink="http://www.w3.org/1999/xlink" viewBox="0 0 36.09 36.09"><defs><style>.cls-1{fill:#fff;}.cls-2{fill:url(#linear-gradient);}.cls-3{fill:#1f2a6d;}.cls-4{fill:#ab1717;}</style><linearGradient id="linear-gradient" x1="6.2" y1="28.76" x2="13.85" y2="7.71" gradientUnits="userSpaceOnUse"><stop offset="0.01" stop-color="#3b3b3b"/><stop offset="0.01" stop-color="#444"/><stop offset="0.02" stop-color="#696969"/><stop offset="0.03" stop-color="#878787"/><stop offset="0.04" stop-color="#9f9f9f"/><stop offset="0.06" stop-color="#b0b0b0"/><stop offset="0.07" stop-color="#bababa"/><stop offset="0.09" stop-color="#bdbdbd"/><stop offset="0.18" stop-color="#fff"/><stop offset="0.22" stop-color="#eee"/><stop offset="0.29" stop-color="#c1c1c1"/><stop offset="0.31" stop-color="#b7b7b7"/><stop offset="0.43" stop-color="#bdbdbd"/><stop offset="0.56" stop-color="#fff"/><stop offset="0.68" stop-color="#bdbdbd"/><stop offset="0.8" stop-color="#fff"/><stop offset="0.92" stop-color="#bdbdbd"/><stop offset="0.94" stop-color="#bababa"/><stop offset="0.96" stop-color="#b1b1b1"/><stop offset="0.97" stop-color="#a2a2a2"/><stop offset="0.98" stop-color="#8c8c8c"/><stop offset="0.99" stop-color="#707070"/><stop offset="1" stop-color="#4d4d4d"/><stop offset="1" stop-color="#3b3b3b"/></linearGradient></defs><title>Asset 2</title><g id="Layer_2" data-name="Layer 2"><g id="Layer_1-2" data-name="Layer 1"><rect class="cls-1" width="36.09" height="36.09"/><path class="cls-2" d="M10.29,26.93H7.09a2.52,2.52,0,0,1-2.4-3.3L9.9,9.16h3.78L8.39,24.33A2,2,0,0,0,10.29,26.93Z"/><path class="cls-3" d="M24.69,9.16l-5.94,7.73h0l-3.28,10H10.29a2,2,0,0,1-1.9-2.6L13.68,9.16Z"/><path class="cls-4" d="M23.76,26.93H15.31l5.17-15.09a3.85,3.85,0,0,1,3.67-2.68h7.38L26.36,25.05A2.74,2.74,0,0,1,23.76,26.93Z"/></g></g></svg>