<svg id="Layer_1" data-name="Layer 1" xmlns="http://www.w3.org/2000/svg" viewBox="0 0 122.47 76.24"><defs><style>.cls-1{fill:#e81f26;}.cls-2{fill:#231f20;}</style></defs><g id="uptown-logo"><rect fill="#e81f26" y="30.87" width="33.53" height="33.54"/>

    <path class="cls-1"  fill="#e81f26" d="M48.51,46.8v1.89H45.78v-2.1c0-.63-.21-1.05-.21-1.47a1.09,1.09,0,0,0-.84-.42,1.15,1.15,0,0,0-1,.63c-.21.21-.21.84-.21,1.68v1.05a5.6,5.6,0,0,0,1.05,2.73l2.73,3.78a18.93,18.93,0,0,1,1,1.89,5.81,5.81,0,0,1,.21,1.89v1.46c0,1.69-.21,2.73-1,3.57a3.69,3.69,0,0,1-3.15,1.26,4.9,4.9,0,0,1-2.94-.84,5.31,5.31,0,0,1-.84-3.36V58.35h2.73v2.09a7.76,7.76,0,0,0,.21,1.48,1.2,1.2,0,0,0,2.1,0c.21-.22.21-.85.21-1.9V58.77a7.12,7.12,0,0,0-1.05-2.94l-.53-.77-2.41-3.22A6.29,6.29,0,0,1,41,50.16a3.11,3.11,0,0,1-.21-1.47V47.22a4.93,4.93,0,0,1,1-3.36,3.71,3.71,0,0,1,3.15-1.25,3.66,3.66,0,0,1,2.73,1,4.37,4.37,0,0,1,.84,3.15"/><path class="cls-1"  fill="#e81f26" d="M54.8,48.27a7.51,7.51,0,0,1,1.05-4.41c.63-.83,1.68-1.25,3.36-1.25a4.16,4.16,0,0,1,3.36,1.25c.63.84.84,2.31.84,4.41V59a7.18,7.18,0,0,1-.21,2.51,5.57,5.57,0,0,1-1.05,1.26,2.27,2.27,0,0,1,1.07-.47,7.85,7.85,0,0,1,1-.15h.42v2.09c-.84,0-2.1.21-3.36.21a16.73,16.73,0,0,0-2.31.21,4.13,4.13,0,0,1-3.36-1.26c-.63-.84-.84-2.31-.84-4.4Zm2.73-.42V59.4A6,6,0,0,0,58,61.91a1.27,1.27,0,0,0,1.26.63,1.15,1.15,0,0,0,1-.63,6,6,0,0,0,.42-2.51V47.85a5.94,5.94,0,0,0-.42-2.51,1.56,1.56,0,0,0-1-.43,1.27,1.27,0,0,0-1.26.63,4.28,4.28,0,0,0-.42,2.31"/><path class="cls-1"  fill="#e81f26" d="M70.33,43h2.73V59.4a6,6,0,0,0,.42,2.51,1.19,1.19,0,0,0,2.1,0A6,6,0,0,0,76,59.4V43h2.73V59c0,2.09-.21,3.56-.84,4.4a4.13,4.13,0,0,1-3.36,1.26c-1.68,0-2.73-.42-3.36-1.26s-.84-2.31-.84-4.4Z"/><path class="cls-1"  fill="#e81f26" d="M87.76,43h3.77l3.15,21.2H92L91.32,59H87.76l-.84,5.24H84.19Zm1.67,2.31L88,56.67H90.9L89.64,45.33Z"/><path class="cls-1"  fill="#e81f26" d="M100.35,43h3.78c1.68,0,2.73.21,3.35.83.84.42,1,1.48,1,2.73V50a4.48,4.48,0,0,1-.63,2.52,4.84,4.84,0,0,1-2.3.84,3.35,3.35,0,0,1,2.3.84,3.56,3.56,0,0,1,.84,2.73v7.34h-2.93V56.88a4.52,4.52,0,0,0-.42-2.1,2.74,2.74,0,0,0-1.68-.42h-.63v9.86h-2.73Zm2.73,2.09v7.14h.42a3.55,3.55,0,0,0,1.89-.42,4.19,4.19,0,0,0,.42-1.89V47.64a4.52,4.52,0,0,0-.42-2.1,3.65,3.65,0,0,0-1.89-.42Z"/><polygon class="cls-1"  fill="#e81f26" points="115.46 43.03 121.75 43.03 121.75 45.34 118.19 45.34 118.19 52.05 121.75 52.05 121.75 54.36 118.19 54.36 118.19 62.12 121.97 62.12 121.97 64.22 115.46 64.22 115.46 43.03"/><polygon class="cls-2"  points="35.91 0.63 50.6 0.63 50.6 4.83 45.78 4.83 45.78 39.88 40.74 39.88 40.74 4.83 35.91 4.83 35.91 0.63"/><path class="cls-2"  d="M64.67,9.44a15.66,15.66,0,0,0-.42-4.19A2.41,2.41,0,0,0,61.94,4a2.32,2.32,0,0,0-2.1,1,10.79,10.79,0,0,0-.63,4.4V31.06q0,3.47.63,4.41a2.32,2.32,0,0,0,2.1,1.05,2.71,2.71,0,0,0,2.31-1.05,19.11,19.11,0,0,0,.42-4.41Zm5.25,1.05V30c0,4.2-.63,6.93-1.68,8.4-1.26,1.47-3.36,2.1-6.3,2.1s-5-.63-6.09-2.1C54.59,36.94,54.17,34,54.17,30V10.49c0-4,.42-6.71,1.68-8.18C56.9.84,59,0,62.15,0c2.94,0,4.83.84,6.09,2.31,1.05,1.47,1.68,4.2,1.68,8.18"/><polygon class="cls-2"  points="73.69 0.63 78.73 0.63 80.83 32.74 81.25 32.74 84.4 0.63 90.69 0.63 93.84 32.74 94.26 32.74 96.78 0.63 101.4 0.63 96.78 39.88 90.9 39.88 87.55 5.88 87.12 5.88 83.77 39.88 77.68 39.88 73.69 0.63"/><polygon class="cls-2"  points="105.17 0.63 112.1 0.63 117.77 36.31 117.98 36.31 117.56 0.63 121.76 0.63 121.76 39.88 115.04 39.88 109.37 4.62 109.16 4.62 109.58 39.88 105.17 39.88 105.17 0.63"/><path class="cls-2"  d="M.3.46H5.12V18.32a6.27,6.27,0,0,0,.63,3.36,2.31,2.31,0,0,0,1.89.84,2,2,0,0,0,1.89-.84,6.27,6.27,0,0,0,.63-3.36V.46H15v17c0,3.15-.42,5.25-1.47,6.3-1.26,1.26-3.15,1.89-6.09,1.89C4.7,25.67,3,25,1.76,23.78.71,22.73.3,20.63.3,17.48Z"/><path class="cls-2"  d="M19.76.42h5.46q4.73,0,6.29,1.26c1.27.84,1.9,2.1,1.9,4.2v6.29a4.36,4.36,0,0,1-1.9,4c-1,1.05-3.14,1.47-5.87,1.47H24.38v7.81H19.76Zm4.62,2.94V14.48h.84a3.65,3.65,0,0,0,2.52-.63c.63-.42.84-1.47.84-2.94v-4c0-1.47-.21-2.31-.63-2.73a3.56,3.56,0,0,0-2.73-.84Z"/><path class="cls-2"  d="M6.56,75.79a8.34,8.34,0,0,1-2.44.41,4.11,4.11,0,0,1-3-1,3.66,3.66,0,0,1-1-2.67c0-2.42,1.78-3.81,4.17-3.81a5.36,5.36,0,0,1,2,.35L6,70.43a3.9,3.9,0,0,0-1.69-.31,2.38,2.38,0,0,0-.12,4.75,2.33,2.33,0,0,0,.8-.1V73.23H3.84V72H6.56Z"/><path class="cls-2"  d="M9.48,72.06h.65c.82,0,1.31-.41,1.31-1s-.46-1-1.21-1a3.59,3.59,0,0,0-.75,0ZM7.84,68.93a13.92,13.92,0,0,1,2.2-.16,3.74,3.74,0,0,1,2.36.58,1.82,1.82,0,0,1,.69,1.53,1.94,1.94,0,0,1-1.29,1.79v0a1.85,1.85,0,0,1,1,1.36,21,21,0,0,0,.59,2.07H11.67a9.4,9.4,0,0,1-.5-1.7c-.21-.92-.52-1.16-1.2-1.17H9.48v2.87H7.84Z"/><path class="cls-2"  d="M15.63,72.49c0,1.44.67,2.44,1.77,2.44s1.76-1.06,1.76-2.47S18.54,70,17.4,70s-1.77,1.06-1.77,2.48m5.27-.09c0,2.41-1.44,3.84-3.58,3.84a3.4,3.4,0,0,1-3.43-3.72,3.53,3.53,0,0,1,3.55-3.82,3.4,3.4,0,0,1,3.46,3.7"/><path class="cls-2"  d="M23.63,68.83V73c0,1.26.49,1.9,1.32,1.9s1.35-.6,1.35-1.9V68.83h1.64v4.09c0,2.25-1.13,3.32-3,3.32S22,75.22,22,72.9V68.83Z"/><path class="cls-2"  d="M31,72.24a2.62,2.62,0,0,0,.55,0c.88,0,1.42-.44,1.42-1.18S32.51,70,31.68,70a3.14,3.14,0,0,0-.67,0Zm-1.64-3.31a12.93,12.93,0,0,1,2.23-.16,3.5,3.5,0,0,1,2.23.59,2.09,2.09,0,0,1,.78,1.69,2.29,2.29,0,0,1-.67,1.73,3.43,3.43,0,0,1-2.37.77,3,3,0,0,1-.56,0v2.62H29.37Z"/><path class="cls-2"  d="M39.26,72.49c0,1.44.67,2.44,1.77,2.44s1.76-1.06,1.76-2.47S42.17,70,41,70s-1.77,1.06-1.77,2.48m5.27-.09c0,2.41-1.44,3.84-3.58,3.84a3.41,3.41,0,0,1-3.44-3.72,3.54,3.54,0,0,1,3.56-3.82,3.4,3.4,0,0,1,3.46,3.7"/><polygon class="cls-2"  points="45.63 68.83 50.08 68.83 50.08 70.18 47.27 70.18 47.27 71.85 49.89 71.85 49.89 73.19 47.27 73.19 47.27 76.13 45.63 76.13 45.63 68.83"/><path class="cls-2"  d="M55.14,72.06h.65c.83,0,1.31-.41,1.31-1s-.45-1-1.21-1a3.59,3.59,0,0,0-.75,0Zm-1.63-3.13a13.78,13.78,0,0,1,2.19-.16,3.7,3.7,0,0,1,2.36.58,1.82,1.82,0,0,1,.69,1.53,1.93,1.93,0,0,1-1.29,1.79v0a1.83,1.83,0,0,1,1,1.36c.23.83.45,1.78.59,2.07H57.33a10.35,10.35,0,0,1-.5-1.7c-.2-.92-.52-1.16-1.2-1.17h-.49v2.87H53.51Z"/><polygon class="cls-2"  points="64.27 73.04 61.59 73.04 61.59 74.77 64.58 74.77 64.58 76.12 59.94 76.12 59.94 68.83 64.43 68.83 64.43 70.18 61.59 70.18 61.59 71.7 64.27 71.7 64.27 73.04"/><path class="cls-2"  d="M65.77,74.43a4.24,4.24,0,0,0,1.83.45c.75,0,1.15-.31,1.15-.79s-.34-.72-1.22-1c-1.21-.43-2-1.1-2-2.16,0-1.25,1-2.19,2.76-2.19a4.19,4.19,0,0,1,1.86.37l-.37,1.32a3.39,3.39,0,0,0-1.51-.35c-.72,0-1.07.34-1.07.71s.41.67,1.36,1c1.29.48,1.88,1.15,1.88,2.18,0,1.22-.93,2.26-2.93,2.26a4.75,4.75,0,0,1-2.07-.45Z"/><polygon class="cls-2"  points="72.98 70.21 71.01 70.21 71.01 68.83 76.61 68.83 76.61 70.21 74.62 70.21 74.62 76.13 72.98 76.13 72.98 70.21"/><path class="cls-2"  d="M80.26,73l-.45-1.55c-.13-.43-.26-1-.37-1.41h0c-.11.44-.22,1-.33,1.41L78.65,73Zm-1.85,1.23-.52,1.87h-1.7l2.22-7.29h2.17l2.27,7.29H81.07l-.57-1.87Z"/><path class="cls-2"  d="M85.08,68.83V73c0,1.26.49,1.9,1.32,1.9s1.35-.6,1.35-1.9V68.83h1.64v4.09c0,2.25-1.13,3.32-3,3.32s-2.91-1-2.91-3.34V68.83Z"/><path class="cls-2"  d="M92.46,72.06h.65c.82,0,1.31-.41,1.31-1S94,70,93.2,70a3.47,3.47,0,0,0-.74,0Zm-1.64-3.13a13.82,13.82,0,0,1,2.2-.16,3.74,3.74,0,0,1,2.36.58,1.84,1.84,0,0,1,.68,1.53,1.93,1.93,0,0,1-1.29,1.79v0a1.86,1.86,0,0,1,1,1.36c.23.83.44,1.78.58,2.07H94.64a10.74,10.74,0,0,1-.49-1.7c-.21-.92-.52-1.16-1.21-1.17h-.48v2.87H90.82Z"/><path class="cls-2"  d="M100.89,73l-.45-1.55c-.13-.43-.26-1-.37-1.41h0c-.11.44-.22,1-.34,1.41L99.28,73ZM99,74.25l-.52,1.87h-1.7L99,68.83h2.17l2.27,7.29h-1.79l-.56-1.87Z"/><path class="cls-2"  d="M104.44,76.12V68.83h1.93l1.52,2.67a24.89,24.89,0,0,1,1.19,2.5h0a29.21,29.21,0,0,1-.13-3V68.83h1.52v7.29h-1.74l-1.56-2.81a23.71,23.71,0,0,1-1.26-2.58h-.05c.06,1,.08,2,.08,3.2v2.19Z"/><polygon class="cls-2"  points="113.33 70.21 111.36 70.21 111.36 68.83 116.97 68.83 116.97 70.21 114.98 70.21 114.98 76.13 113.33 76.13 113.33 70.21"/><path class="cls-2"  d="M117.81,74.43a4.24,4.24,0,0,0,1.83.45c.75,0,1.16-.31,1.16-.79s-.35-.72-1.23-1c-1.21-.43-2-1.1-2-2.16,0-1.25,1-2.19,2.76-2.19a4.19,4.19,0,0,1,1.86.37l-.37,1.32a3.39,3.39,0,0,0-1.51-.35c-.72,0-1.06.34-1.06.71s.4.67,1.35,1c1.29.48,1.88,1.15,1.88,2.18,0,1.22-.93,2.26-2.93,2.26a4.75,4.75,0,0,1-2.07-.45Z"/>
    </g></svg>
