<svg xmlns="http://www.w3.org/2000/svg" viewBox="0 0 296.31 248.78"><defs><style>.cls-1{fill:#001e5b;}</style></defs><g id="lunch_icon"> <g id="Layer_2" data-name="Layer 2"><g id="Layer_1-2" data-name="Layer 1"><path class="cls-1" d="M296.31,74.91c-.7-1.57-1.37-3.15-2.09-4.7a21.39,21.39,0,0,0-32.14-8.55c-1.94,1.38-4.09,2.86-5.34,4.81C250,77,239.8,77.59,229.07,76.22c-2.29-.28-4.74-2-6.47-3.7C188.07,38.4,147.33,15.5,99.73,5.81,83.3,2.46,66.33,1.42,49.56.08,40.89-.62,33.4,3.35,27.3,9.64,13.45,23.94,7.78,42,3.94,60.87,2.19,69.42,1.29,78.12,0,86.76v27.67C1.74,125,3,135.59,5.33,146c3.6,16.1,9.46,31.31,21.68,45.25-11.44-.08-22.73-1.45-27,11.47v6.59C3.06,214.82,6.74,219.4,13.75,220c1.08.08,2.38,1.65,2.95,2.83a51.84,51.84,0,0,1,2,6.25c4.67,13.93,12.6,19.68,27.43,19.7q68.43.06,136.88,0h65.81c16.57,0,24.19-5.39,29-21,1.43-4.61,3.1-7.48,8.38-9.14,3.94-1.24,6.76-6.09,10.06-9.34V202.7c-3-8.2-9-12.06-16.42-11.52.3-7.22,1.36-14.17.57-20.9-.43-3.7-3.24-9.19-6.21-10.15-11.24-3.7-14-17.45-25.07-20.39-10.2-2.71-20.7-4.19-30.81-6.16,6-11.63,23.12-14.4,33.07-4.48,2.64,2.63,5.17,5.37,7.93,7.86,12.63,11.31,29.34,7.3,35.68-8.51a16.55,16.55,0,0,1,1.26-2.15v-9.24a90.86,90.86,0,0,0-5.11-8.83A78.86,78.86,0,0,0,285,101.3l11.28-18.49ZM18.11,156.08c-12.29-37.77-11.93-76,.62-113.71A79.53,79.53,0,0,1,29.16,22C40.89,5.31,54.76,5.48,66.6,22c9.12,12.74,13.8,27.35,16.21,42.6,1.87,11.88,2.67,23.93,4,35.91-.84,24-3.7,47.4-14.68,69a61.77,61.77,0,0,1-11.49,15.83c-8.28,8.15-18.75,8.41-26-.62C27.79,176.21,21.45,166.38,18.11,156.08ZM276.49,200.6c1.32,0,2.94-.46,3.89.13a67.92,67.92,0,0,1,6.41,5.13c-2.29,1.56-4.46,4.22-6.87,4.43-6.93.61-13.95.21-21.56.21v9.15h11.17c-.81,13.67-6.91,19.63-19.68,19.64q-101,0-202,0c-14,0-18.62-4-21.38-19.27H248.15v-9.51h-7.36q-110.56,0-221.13,0c-4,0-9.72,1.23-9.86-4.64-.15-6.43,5.87-5.21,10-5.21Q148.15,200.55,276.49,200.6ZM235.23,151c10-4,11.87-3.71,16.37,2.24-13.33,8.31-16.66,12.79-16.84,23H243c.55-1.38,1.18-3.16,1.94-4.89,3.05-6.79,9.59-10,16.68-8.27a14.37,14.37,0,0,1,10.87,14.57,14.2,14.2,0,0,1-13,13.31,69.77,69.77,0,0,1-7.23.24H115.4c-2.18,0-4.4,0-6.57-.22-5.15-.5-8.65-3.93-8.18-8.53a14.07,14.07,0,0,1,6.21-9.5,7.63,7.63,0,0,1,11.06,4c2.15,6.15,6.33,4.48,10.92,4.64-.27-6.89-3-12.13-8.46-15.48-3.53-2.14-7.11-3.68-5.37-8.81s5.13-8.6,10.92-8.87c2.38-.12,4.78,0,7.53,0,.29-2.7.34-5.51.91-8.23a13.84,13.84,0,0,1,19.33-9.8c5.22,2.48,8.94,5.69,5.19,12.2-.78,1.37-.66,3.27-1,5.31h7.87c2.33-2.86,4-6.07,6.69-8,4.08-2.92,10.53-1.4,12.32,3.4,2.22,5.9,6,5.09,11,4.42a31.29,31.29,0,0,1-.93-5.81c.08-2.2.59-6.24,1.16-6.28,3.62-.26,7.54-.25,10.88,1,1.17.44,1.51,4.66,1.22,7-.33,2.71-1.8,5.29-3,8.62H214C221.27,140.47,226.43,140.1,235.23,151ZM215.69,122c-3.24,2.87-5.7,5.54-10.68,3.23-2.33-1.08-6.4-1.33-8.3,0-7.51,5.3-15.8,5-24.18,4.66-2.22-.09-5.07-.62-6.52-2.07-13.3-13.3-32-10-39.95,7a10.37,10.37,0,0,1-5.26,4.62c-9.28,3.59-14.64,9.91-15.56,20a6.85,6.85,0,0,1-2.37,4.63c-10.28,6.68-12.22,10.16-12,23.43-6.86.91-13.31,1.75-20.87,2.76,20.44-27.54,25.22-58.37,25.16-90.32-.06-31.79-5-62.42-25.18-89.34,39.13,3.79,74.79,15.64,106.73,37.2C190.86,57.3,203.48,69,216.48,80.1c2,1.67,3.13,5.15,3.29,7.86.44,7.66-.06,15.37.24,23C220.19,115.47,219.18,118.85,215.69,122Zm67.5-34.45c-4.05,4.24-8.83,7.79-14.32,12.54,5.57,5,9.83,8.49,13.63,12.41,5.75,6,5.79,13,.52,18.06-5.11,4.9-12.31,5.16-17.47-.86-9.47-11.06-19.72-19.2-36.06-14.11V85.8c3.81,0,7.51-.45,11.08.09,7.5,1.11,13-1.59,17.58-7.43a66,66,0,0,1,7.87-7.9c5.43-4.91,12.28-4.87,17.1-.08S288.36,82.09,283.19,87.5Z"/><path class="cls-1" d="M180,74.91l-7.29-7c-2.47,3.3-4.58,6.12-6.9,9.2-5-4.86-8.81-8.66-13-12.72,6.38-5.55-1-6.66-2.06-8.43H140.21l-4.67,4.34,2.66,3.91-12,12-7.27-6.8-7.56,5.47,8.39,8.81-8.26,8.72,6.6,6.23,8.25-7.81c4.07,4.11,7.89,7.94,12,12.07-.71,1.1-1.6,2.47-2.55,3.9,2,2.11,3.74,4,4.35,4.65h9.44l6.06-4.79-2.07-3.31c4.05-4.61,7.65-8.68,12.05-13.67,2.59,3.42,4.83,6.39,6.36,8.4l8-5.82c-3.12-3.33-5.6-6-8.18-8.69C174.77,80.44,177.26,77.81,180,74.91ZM145.82,95.08C142,91.45,138,87.6,133.66,83.55L146,71.84l10.72,13Z"/><path class="cls-1" d="M39.59,160.43l-8.23,4.41C15.13,121.76,15.17,79.5,31.28,36.06l8.35,4.15C25,80.11,24.78,119.84,39.59,160.43Z"/><path class="cls-1" d="M64.29,164.16c-1.85-.66-3.25-1.06-4.58-1.64s-2.3-1.22-4-2.14c11.87-28.63,13.5-58.38,9.08-89.21l8.94-2C79,102,76.78,133.31,64.29,164.16Z"/><rect class="cls-1" x="43.7" y="81.64" width="8.55" height="37.61"/><path class="cls-1" d="M71.77,59.89l-8.86,2-2.2-7.59c2.77-.94,5.41-1.84,8.73-3C70.19,54.07,70.89,56.67,71.77,59.89Z"/><rect class="cls-1" x="144.01" y="163.14" width="8.47" height="8.82"/><rect class="cls-1" x="182.07" y="172.56" width="8.6" height="8.7"/></g></g></g></svg>
