<?xml version="1.0" encoding="UTF-8"?>
<svg id="a" xmlns="http://www.w3.org/2000/svg" width="34.92" height="18.66" viewBox="0 0 34.92 18.66">
    <defs>
        <style>.b{fill:#001e5b;}</style>
    </defs>
    <g id="content">
    <path class="b"
          d="m33.96,12.86c-.07-.02-.14-.05-.21-.06-.13-.02-.14-.08-.11-.19.22-.66.13-1.28-.27-1.84-.09-.13-.1-.21,0-.33.28-.34.42-.74.39-1.19-.03-.4-.04-.4.33-.54.59-.23.87-.73.74-1.35-.04-.25-.12-.48-.21-.72-.43-1.12-1.2-1.98-2.13-2.7-1.32-1.02-2.79-1.74-4.36-2.28-2.07-.71-4.2-1.15-6.37-1.39-1.23-.14-2.46-.18-3.69-.26-.47-.03-.92.03-1.38.05-.56.02-1.12.04-1.68.06-1.2.06-2.39.19-3.57.38-2.11.35-4.17.88-6.13,1.73-1.47.63-2.81,1.46-3.92,2.64-.62.67-1.07,1.44-1.28,2.34-.18.8.15,1.36.94,1.57.14.03.18.1.16.23-.1.52,0,.99.32,1.41.07.1.07.19.02.3-.15.33-.32.66-.36,1.03-.02.27.02.53.05.8.02.15,0,.24-.19.25-.19.01-.37.1-.53.21C.22,13.24.02,13.52,0,13.93c0,.52.08,1.02.25,1.5.42,1.21,1.16,2.16,2.33,2.74.74.36,1.53.49,2.34.49h24.86c.39,0,.78-.02,1.17-.07,1.16-.16,2.12-.7,2.87-1.58.68-.81,1.05-1.75,1.1-2.8.03-.69-.17-1.13-.96-1.35ZM1.37,7.23c.19-.65.57-1.17,1.02-1.66.72-.79,1.61-1.36,2.56-1.83.75-.38,1.52-.7,2.31-.97h0c6.93-2.33,13.91-2.08,19.98-.17,1.68.56,3.29,1.24,4.68,2.38.67.55,1.24,1.19,1.55,2.02.05.11.08.23.12.35.05.14.01.2-.15.2-2.45,0-4.89.01-7.34,0-.9,0-1.8-.02-2.7-.01-4.32.03-8.64,0-12.96.01-2.94.01-5.88,0-8.82,0-.33,0-.34-.01-.25-.32Zm30.75,2.64c-.13.03-.27.04-.4.04H3.44c-.19,0-.38-.02-.57-.04-.29-.03-.47-.23-.48-.51-.02-.28.12-.45.42-.52.18-.05.37-.03.56-.03h28.66c.28.02.48.21.5.47.02.28-.14.51-.41.59Zm.34,2.42c-.12.32-.37.49-.71.49-.69.01-1.37.01-2.05.01-.03,0-.06-.01-.13-.02.5-.53.95-1.06,1.44-1.55.06-.06.13-.09.22-.1.39-.05.77-.03,1.07.27.25.26.3.57.16.9Zm-3.11-1.13c.02.06-.05.1-.09.14-.6.65-1.2,1.3-1.8,1.95-.09.1-.15.09-.23,0-.61-.67-1.23-1.33-1.84-2-.03-.02-.07-.05-.05-.09.02-.06.09-.03.13-.03h3.71c.06,0,.14-.03.17.03Zm-4.29,1.59c-.03.06-.12.03-.18.03h-4.96c-.06,0-.14.03-.17-.03-.03-.07.06-.1.1-.15.29-.34.61-.67.89-1.02.31-.38.7-.55,1.18-.49.31.04.62.01.93,0,.56-.03.99.19,1.32.63.24.31.5.6.78.88.05.04.14.07.11.15Zm-5.63-1.56c.03.07-.05.1-.08.13-.59.64-1.17,1.27-1.76,1.91-.09.1-.15.12-.25.01-.53-.58-1.07-1.16-1.6-1.74-.09-.09-.17-.2-.27-.31.08-.05.15-.03.21-.03h3.6c.05,0,.12-.03.15.03Zm-4.25,1.55c-.02.07-.1.05-.15.05h-4.98c-.06,0-.14.02-.17-.04-.03-.07.05-.11.09-.16.23-.23.46-.47.65-.73.34-.48.82-.71,1.38-.76.45-.04.91-.04,1.36.06.43.09.77.32,1.04.67.22.28.44.55.7.8.03.03.09.06.08.11Zm-5.65-1.46c-.22.23-.43.46-.65.69-.39.42-.79.85-1.18,1.27-.09.1-.15.1-.25-.01-.6-.66-1.21-1.32-1.82-1.97-.01-.02-.03-.04-.06-.08.14-.04.25-.02.36-.03,1.18,0,2.36,0,3.54,0,.04,0,.08-.02.1.02.03.05-.01.09-.04.12Zm-4.24,1.47c-.03.06-.1.04-.16.04h-1.9c-.48-.01-.82-.32-.84-.77-.03-.45.29-.83.75-.89.47-.07.85.04,1.14.45.23.33.52.62.81.9.04.04.08.07.12.12.04.04.11.08.08.15Zm28.39,1.62c-.18,1.67-1.58,2.95-3.18,3.05-.21.02-.42.03-.63.03H4.99c-.45,0-.9-.05-1.34-.18-1.29-.41-2.06-1.28-2.34-2.59-.03-.14-.04-.29-.08-.44-.05-.18.02-.22.18-.21h.45c1.41,0,2.82,0,4.24,0,.26,0,.47.07.67.24.54.46,1.09.45,1.64,0,.21-.17.42-.24.68-.24,2.3,0,4.6,0,6.91,0,.26,0,.46.08.66.24.52.45,1.11.45,1.63-.01.19-.16.38-.23.63-.23,2.33,0,4.66,0,6.99,0,.23,0,.41.05.58.2.57.49,1.18.49,1.75-.01.14-.13.3-.2.5-.19h4.63c.34,0,.34.01.31.34Z"/>
    </g>
</svg>
