<svg id="Layer_1" data-name="Layer 1" xmlns="http://www.w3.org/2000/svg" width="10" height="10"
     viewBox="0 0 15.61 16.1"><defs><style>.cls-1{fill:var(--primary);}</style></defs>
    <g id="my_account">
    <path d="M13.92,16.09q-6.1,0-12.21,0A1.6,1.6,0,0,1,.08,14,8,8,0,0,1,3.31,9.43a6.44,6.44,0,0,0,3.23,1.71A6.28,6.28,0,0,0,12,9.71c.25-.22.4-.25.68,0a8.06,8.06,0,0,1,2.87,4.23A1.58,1.58,0,0,1,13.92,16.09Z"/>
    <path d="M12.61,4.81A4.81,4.81,0,1,1,7.81,0,4.83,4.83,0,0,1,12.61,4.81Z"/>
    </g>
</svg>
