<svg xmlns="http://www.w3.org/2000/svg" viewBox="0 0 36.13 36.13"><defs><style>.cls-1,.cls-3{opacity:0.5;}.cls-2{fill:#001e5b;}.cls-3{fill:none;stroke:#001e5b;stroke-miterlimit:10;stroke-width:2px;}</style></defs><title>Asset 2</title><g id="Layer_2" data-name="Layer 2"><g id="Layer_1-2" data-name="Layer 1"><g class="cls-1"><path class="cls-2" d="M26.41,29.05H9.74a2.2,2.2,0,0,1-2.23-2.93A11,11,0,0,1,11.93,20a8.78,8.78,0,0,0,4.41,2.33,8.5,8.5,0,0,0,7.4-2c.35-.3.56-.34.94,0a11.1,11.1,0,0,1,3.92,5.78A2.17,2.17,0,0,1,26.41,29.05Z"/><path class="cls-2" d="M24.62,13.65a6.57,6.57,0,1,1-6.55-6.58A6.59,6.59,0,0,1,24.62,13.65Z"/></g><rect class="cls-3" x="1" y="1" width="34.13" height="34.13"/></g></g></svg>