<?xml version="1.0" encoding="UTF-8"?>
<svg id="a" xmlns="http://www.w3.org/2000/svg" width="20.49" height="26.09" viewBox="0 0 20.49 26.09">
    <defs>
        <style>.b{fill:#001e5b;stroke:#001e5b;stroke-miterlimit:10;stroke-width:.5px;}</style>
    </defs>
    <g id="content">
    <path class="b"
          d="m18.05,2.79c0,.09,0,.18,0,.27,0,.27-.07.37-.34.44-.12.03-.14.07-.12.18.22,1.27.44,2.54.64,3.82.25,1.66.52,3.32.74,4.99.18,1.41.38,2.81.56,4.22.13,1.04.24,2.08.35,3.12.11,1.01.21,2.03.31,3.04.02.21.04.43.05.64.02.35-.05.46-.4.53-.41.09-.82.17-1.24.25-1.71.34-3.43.63-5.16.9-1.54.23-3.09.41-4.63.61-.99.13-1.88-.17-2.8-.41-.45-.12-.91-.24-1.33-.46-.33-.17-.66-.16-1-.13-.76.08-1.51.07-2.27.02-.25-.02-.5-.04-.74-.07-.33-.04-.43-.15-.41-.47.03-.65.08-1.31.13-1.96.07-.8.15-1.61.23-2.41.11-1.15.26-2.29.4-3.43.18-1.4.39-2.8.63-4.19.48-2.77,1.06-5.51,1.94-8.19.28-.87.64-1.7.99-2.55.09-.23.25-.36.49-.39.8-.1,1.6-.21,2.4-.3.79-.09,1.59-.16,2.39-.24.58-.05,1.17-.1,1.75-.14,1.1-.07,2.2-.14,3.3-.19.79-.04,1.59-.04,2.38-.06.22,0,.33.11.38.3.19.74.33,1.48.36,2.24Zm-1.37.8c-.24.02-.46.03-.68.05-1.03.09-2.06.19-3.09.28-.65.06-1.3.11-1.96.18-.8.08-1.59.18-2.38.27-.57.07-1.15.15-1.72.22-.16.02-.2.09-.17.25.09.52.16,1.04.23,1.55.2,1.45.38,2.91.55,4.37.2,1.78.36,3.57.52,5.35.11,1.33.21,2.65.29,3.98.09,1.57.18,3.14.22,4.71q0,.31.33.29c.06,0,.12,0,.19-.01,1.4-.19,2.8-.37,4.2-.57,2.03-.29,4.06-.67,6.07-1.05.26-.05.27-.08.24-.35-.12-1.18-.24-2.36-.37-3.54-.12-1.14-.24-2.29-.38-3.43-.13-1.07-.3-2.14-.43-3.22-.23-1.85-.54-3.7-.81-5.55-.18-1.2-.4-2.39-.59-3.59-.03-.17-.08-.26-.24-.22ZM7.74,24.4c0-.26,0-.47,0-.68-.06-1.19-.13-2.38-.2-3.57-.04-.7-.08-1.4-.13-2.1-.1-1.27-.21-2.54-.32-3.81-.09-1.07-.18-2.14-.31-3.21-.17-1.41-.31-2.82-.53-4.23-.1-.63-.19-1.25-.28-1.88-.03-.22-.18-.16-.31-.17-.13,0-.2.04-.22.18-.06.67-.15,1.34-.2,2.02-.08,1.02-.17,2.05-.23,3.07-.09,1.53-.17,3.06-.19,4.59-.04,2.13-.02,4.26.11,6.39.02.26.1.45.29.63.52.49,1.03.98,1.5,1.52.34.39.68.79,1.01,1.26ZM4.94,3.29c0-.13-.03-.25-.05-.37,0-.03,0-.07-.05-.08-.04,0-.05.04-.07.07-.02.04-.04.09-.06.13-.42,1.1-.78,2.23-1.08,3.37-.64,2.41-1.13,4.85-1.5,7.31-.25,1.7-.5,3.41-.69,5.12-.16,1.45-.28,2.91-.42,4.36,0,.07-.04.15.02.19.07.04.12-.04.18-.08.86-.61,1.71-1.21,2.63-1.73.32-.18.43-.36.4-.75-.09-1.04-.11-2.08-.14-3.12-.05-2.17.04-4.35.13-6.52.02-.5.05-.99.09-1.49.06-.83.12-1.65.19-2.47.07-.81.15-1.62.23-2.43.05-.51.12-1.01.19-1.52ZM16.25.99s0-.01,0-.02c-.8.03-1.6.06-2.4.1-.96.06-1.93.13-2.89.2-.75.05-1.5.1-2.25.18-1.06.11-2.11.24-3.16.36-.14.02-.2.07-.17.21.11.61.25,1.21.41,1.82.04.15.11.2.27.18.82-.13,1.64-.23,2.46-.33,1.35-.16,2.7-.31,4.05-.44,1.54-.14,3.07-.31,4.62-.38.13,0,.19-.06.18-.19-.05-.53-.11-1.06-.24-1.57-.03-.11-.09-.16-.21-.15-.22.02-.44.02-.66.04ZM7.32,25.01s-.03-.07-.04-.08c-.77-1.05-1.64-2-2.58-2.9-.11-.1-.19-.05-.27,0-.98.62-1.95,1.25-2.9,1.92-.06.04-.16.07-.13.16.03.07.12.04.19.04.82,0,1.64.03,2.46-.07.15-.02.3-.02.45.04.76.35,1.57.57,2.37.81.14.04.28.1.46.08Z"/>
    </g>
</svg>
