<svg xmlns="http://www.w3.org/2000/svg" viewBox="0 0 10.7 11.9"><defs><style>.cls-1{fill:#fff;}</style></defs>
    <g id="organisation_svg"> <g id="Layer_2" data-name="Layer 2"><g id="Layer_1-2" data-name="Layer 1"><path class="cls-1" d="M9.52,10.72V1.8H7.72V0H3A1.93,1.93,0,0,0,3,.24V1.79H1.18v8.92H0V11.9H10.7V10.72ZM7.14,3H8.32V4.16H7.14ZM4.76,3H5.93V4.16H4.76Zm0,2.39H5.93V6.54H4.75ZM2.38,3H3.55V4.16H2.38ZM3.55,8.92H2.38V7.75H3.55Zm0-2.37H2.38V5.37H3.56Zm3,4.16H4.17v-3H6.53ZM8.32,8.92H7.14V7.74H8.32Zm0-2.38H7.14V5.36H8.32Z"/></g></g></g></svg>
