<?xml version="1.0" encoding="UTF-8"?>
<svg id="Layer_1" data-name="Layer 1" xmlns="http://www.w3.org/2000/svg" viewBox="0 0 14.81 15.02">
  <defs>
    <style>
      .cls-1 {
        fill: #fff;
      }
    </style>
  </defs>
    <g id="content">
          <path class="cls-1" d="m0,6.94c.04.11.01.23.06.34,0-.12,0-.25,0-.37.02-.42.11-.84.23-1.25.3-1.07.82-2.02,1.54-2.85.66-.75,1.44-1.34,2.33-1.79.64-.32,1.32-.53,2.03-.65.49-.08.98-.13,1.47-.1.98.05,1.92.26,2.82.67.15.07.3.14.44.22.02.01.05.04.08.01.03-.02,0-.05-.01-.08-.03-.09-.07-.19-.11-.28-.14-.34.1-.72.43-.81.27-.07.61.08.73.38.13.33.25.66.38.99.08.2.16.41.23.61.15.41-.03.76-.44.89-.53.17-1.07.32-1.6.49-.44.14-.89-.27-.77-.74.06-.24.23-.37.45-.45.02,0,.06,0,.06-.03,0-.03-.03-.03-.05-.04-.67-.35-1.38-.57-2.14-.65-.39-.04-.79-.05-1.18-.03-.93.06-1.81.32-2.62.78-1.09.62-1.93,1.48-2.51,2.59-.33.64-.54,1.32-.64,2.03-.07.5-.06,1,0,1.51.11,1.05.48,2.01,1.08,2.87.63.89,1.43,1.58,2.42,2.05.53.25,1.09.43,1.66.53.43.07.86.08,1.29.08.21,0,.42-.02.63-.05.21-.03.46.12.56.32.19.39-.12.78-.46.81-.11,0-.21.02-.34.03.08.03.14,0,.19.03h-1.65c.09-.04.19-.01.27-.03-1.86-.14-3.46-.89-4.76-2.23C.79,11.42.1,9.81.03,7.93c0,.14,0,.29-.03.43v-1.41Z"/>
          <path class="cls-1" d="m6.28,6.53c0-.62,0-1.24,0-1.86,0-.28.17-.51.44-.58.33-.09.67.15.7.49.01.11.02.22.02.32,0,.98,0,1.96,0,2.93,0,.06,0,.11,0,.17-.02.08.01.12.08.15.73.32,1.46.63,2.18.95.14.06.27.12.36.26.14.22.13.48-.04.68-.15.19-.42.26-.65.16-.8-.35-1.6-.7-2.4-1.05-.08-.03-.16-.07-.24-.1-.31-.11-.44-.33-.44-.66,0-.62,0-1.24,0-1.86h0Z"/>
          <path class="cls-1" d="m14.81,7.65c0,.23-.01.47-.04.7-.03.31-.3.53-.62.52-.29-.02-.53-.27-.52-.58.02-.38.01-.77.02-1.15,0-.28.24-.52.52-.54.29-.02.56.19.6.47.03.19.03.39.03.58Z"/>
          <path class="cls-1" d="m14.18,10.51c0,.1-.03.2-.08.3-.16.34-.35.67-.56.99-.14.21-.35.29-.6.25-.24-.05-.38-.21-.44-.44-.04-.13-.01-.27.06-.38.2-.32.38-.65.55-.99.12-.25.39-.36.65-.29.25.07.42.29.42.56Z"/>
          <path class="cls-1" d="m10.52,14.29c-.25,0-.49-.17-.55-.4-.07-.27.02-.52.26-.65.33-.18.65-.37.96-.58.32-.22.63-.04.76.14.18.25.14.58-.11.78-.34.27-.72.49-1.11.68-.07.03-.14.05-.2.04Z"/>
          <path class="cls-1" d="m12.59,3.97c0-.26.13-.45.36-.53.23-.09.46-.03.63.16.11.12.18.27.26.41.14.24.27.49.37.75.15.39-.14.8-.56.78-.22-.01-.38-.12-.47-.32-.15-.33-.32-.65-.51-.96-.06-.09-.09-.19-.08-.29Z"/>
    </g>
</svg>
