<svg xmlns="http://www.w3.org/2000/svg" viewBox="0 0 15.62 14.55"><g id="content"><path class="cls-1" d="M7.3,1.48A5.79,5.79,0,0,0,6.37,13a5.51,5.51,0,0,0,1.57,0c.12,0,.16,0,.18.13a3.73,3.73,0,0,0,.36,1.13c0,.11,0,.14-.1.16a5.94,5.94,0,0,1-2.06.05,7.11,7.11,0,0,1-3.58-1.54A7.13,7.13,0,0,1,.05,8.1,7.26,7.26,0,0,1,3.94.81,6.74,6.74,0,0,1,6.88,0a7.16,7.16,0,0,1,6.85,3.91,6.88,6.88,0,0,1,.84,3.26,7.11,7.11,0,0,1-.13,1.22c0,.1-.07.12-.16.07a4.46,4.46,0,0,0-1.14-.36C13,8.09,13,8,13,7.94a5.47,5.47,0,0,0-.63-3.39A5.7,5.7,0,0,0,8,1.52C7.73,1.49,7.51,1.49,7.3,1.48Z"/><path class="cls-1" d="M12,14.52a.11.11,0,0,1-.09-.06L9.54,12.09c-.08-.08-.08-.13,0-.21l.89-.89c.09-.1.16-.09.25,0l1.21,1.22c.09.09.14.08.23,0l2.29-2.3c.1-.1.16-.12.27,0l.86.86c.09.09.11.14,0,.24l-3.44,3.43S12.05,14.52,12,14.52Z"/><path class="cls-1" d="M6.53,5.82v-2c0-.16,0-.23.21-.22s.48,0,.71,0,.22.05.22.22c0,1.13,0,2.26,0,3.4a.37.37,0,0,0,.22.37c.63.35,1.25.72,1.88,1.09.16.09.16.11,0,.22a4.07,4.07,0,0,0-.58.52.14.14,0,0,1-.21,0L6.64,8.07c-.1-.06-.11-.14-.11-.25Z"/></g></svg>
