<svg id="Layer_1" data-name="Layer 1" xmlns="http://www.w3.org/2000/svg" viewBox="0 0 8.37 11.91"><defs><style>.cls-1{fill:#ab1717;}</style></defs><path class="cls-1" d="M8.24,3.14A4.19,4.19,0,0,0,0,4.1,5.1,5.1,0,0,0,.34,6,11.76,11.76,0,0,0,1.73,8.63c.69,1,1.39,2,2.1,3a2.13,2.13,0,0,0,.26.26h.19c.09-.09.19-.17.27-.26l.35-.51c.64-.93,1.3-1.85,1.92-2.8a10.52,10.52,0,0,0,1.29-2.6A4.6,4.6,0,0,0,8.24,3.14ZM7.43,5.56A10.27,10.27,0,0,1,6.15,8.1C5.52,9,4.87,10,4.22,10.89l0,0C3.79,10.37,3.39,9.82,3,9.27A18.13,18.13,0,0,1,1.34,6.54,6.62,6.62,0,0,1,.74,4.7,3.49,3.49,0,0,1,7.6,3.45,3.89,3.89,0,0,1,7.43,5.56Z"/><path class="cls-1" d="M4.2,2.09A2.1,2.1,0,1,0,6.28,4.2,2.1,2.1,0,0,0,4.2,2.09Zm0,3.49a1.4,1.4,0,1,1,1.4-1.39A1.4,1.4,0,0,1,4.18,5.58Z"/></svg>