<?xml version="1.0" encoding="UTF-8"?>
<svg id="a" xmlns="http://www.w3.org/2000/svg" width="79.88" height="95.91" viewBox="0 0 79.88 95.91">
    <defs>
        <style>.b{fill:#001e5b;}</style>
    </defs>
    <g id="content">
    <path class="b"
          d="m0,47.91C0,35.07,0,22.23,0,9.39,0,6.3,1.16,3.78,3.62,1.9,5.23.67,7.08.04,9.1.03,20.42,0,31.73.02,43.05.01c3.7,0,7.39.01,11.09-.01.67,0,1.14.2,1.62.67,3.03,2.96,6.1,5.87,9.14,8.82,4.86,4.72,9.7,9.46,14.56,14.18.32.31.44.63.44,1.07,0,20.29,0,40.57-.01,60.86,0,2.2-.26,4.35-1.57,6.22-1.84,2.62-4.34,4.08-7.55,4.08-20.56.02-41.11,0-61.67.01-4.57,0-8.41-3.41-8.98-7.93-.07-.56-.09-1.11-.09-1.67,0-12.8,0-25.6,0-38.4Zm6.16.04s.01,0,.02,0c0,8.93,0,17.86,0,26.79,0,4.06,0,8.12,0,12.18,0,1.69,1.17,2.87,2.85,2.93.33.01.65,0,.98,0,19.4,0,38.8,0,58.2,0,.87,0,1.73,0,2.6,0,.79-.01,1.45-.3,2-.88.72-.75.9-1.67.89-2.66-.05-4.48-.06-8.97-.08-13.45-.08-13.99-.05-27.98-.06-41.98,0-.82,0-.82-.84-.82-4.96-.02-9.93.08-14.89-.09-2.64-.09-4.84-1.18-6.56-3.16-1.49-1.71-2.18-3.73-2.18-5.99,0-4.7-.01-9.39,0-14.09,0-.5-.14-.67-.65-.67-13.01.01-26.02,0-39.03.01-2.15,0-3.25,1.13-3.25,3.3,0,12.86,0,25.71,0,38.57ZM55.42,8.98c-.01.09-.03.18-.03.27,0,4.06,0,8.12,0,12.17,0,.72.32,1.3.83,1.77.69.63,1.53.85,2.45.85,3.85,0,7.69-.01,11.54-.02.17,0,.43.1.5-.14.06-.18-.15-.29-.27-.41-1.07-1.02-2.15-2.03-3.21-3.07-3.78-3.7-7.56-7.4-11.34-11.1-.13-.13-.22-.32-.48-.33Z"/>
    <path class="b"
          d="m39.86,81.03c-7.93,0-15.86,0-23.78,0q-.81,0-.81-.79c0-1.58.01-3.16-.01-4.73,0-.49.17-.66.63-.66.62,0,1.23,0,1.85,0,15.16,0,30.33,0,45.49,0,1.35,0,1.26-.07,1.25,1.25-.01,1.4-.02,2.81.02,4.21.01.55-.18.73-.73.73-7.97-.01-15.93,0-23.9,0Z"/>
    <path class="b"
          d="m39.87,59.94c7.99,0,15.97,0,23.96,0,.48,0,.62.12.62.62-.02,1.54.02,3.08.03,4.62,0,.78-.03.82-.81.82-15.86,0-31.71,0-47.57,0-.82,0-.84-.02-.84-.84,0-1.52.02-3.04,0-4.56,0-.5.14-.66.66-.66,7.99.02,15.97.01,23.96.01h0Z"/>
    <path class="b"
          d="m39.82,51.01c-7.89,0-15.78,0-23.67,0-.98,0-.78-.06-.82-.81-.08-1.56-.02-3.12-.07-4.67-.01-.45.12-.66.58-.61.13.01.27,0,.4,0,15.78,0,31.56,0,47.34,0q.9,0,.89.88c-.02,1.58-.05,3.15-.06,4.73,0,.36-.13.49-.47.47-.19,0-.38,0-.58,0-7.85,0-15.7,0-23.56,0Z"/>
    <path class="b"
          d="m27.64,21.08c-3.85,0-7.7,0-11.54,0-.83,0-.83,0-.83-.84,0-1.56.02-3.12,0-4.68,0-.49.14-.68.65-.68,7.77.01,15.55.01,23.32,0,.51,0,.67.19.67.68-.02,1.6-.02,3.19,0,4.79.01.55-.16.74-.72.73-3.85-.02-7.7-.01-11.54,0Z"/>
    <path class="b"
          d="m27.55,35.99c-3.89,0-7.77,0-11.66,0-.46,0-.65-.11-.64-.61.03-1.6.03-3.19,0-4.79,0-.55.2-.69.71-.69,7.72.01,15.43.01,23.15,0,.57,0,.79.17.78.76-.03,1.5,0,3,0,4.5,0,.8-.03.82-.8.82-3.85,0-7.7,0-11.54,0h0Z"/>
    </g>
</svg>
