<svg xmlns="http://www.w3.org/2000/svg" viewBox="0 0 20.22 20.22"><defs><style>.cls-1{fill:#fff;}</style></defs><title>Asset 1</title><g id="Layer_2" data-name="Layer 2"><g id="Layer_1-2" data-name="Layer 1"><circle cx="10.11" cy="10.11" r="10.11" transform="translate(-4.19 10.11) rotate(-45)"/><path class="cls-1" d="M6.41,16.26c.08-.13.16-.25.25-.37s0-.07,0,0l0,0a.27.27,0,0,1,.07-.08,1.15,1.15,0,0,1,.14-.17c.1-.11.21-.21.32-.31l.17-.15,0,0,.1-.07a4.61,4.61,0,0,1,.77-.46l.09,0s.08,0,0,0l.05,0,.22-.08a4.29,4.29,0,0,1,.44-.13l.21,0,.12,0h.08c.15,0,.31,0,.47,0h.48l.21,0c.07,0-.06,0,0,0h0l.13,0a5.11,5.11,0,0,1,.87.25l.06,0c.06,0-.06,0,0,0l.09,0,.2.1.39.23.21.14,0,0,0,0h0l.1.08.35.32c.12.12.23.25.34.38s0,0,0,0l0,0,.07.1a1.64,1.64,0,0,1,.14.22.3.3,0,0,0,.39.1.29.29,0,0,0,.1-.38,4.9,4.9,0,0,0-6.87-1.54A5.16,5.16,0,0,0,5.92,16a.29.29,0,0,0,.1.38.3.3,0,0,0,.39-.1Z"/><path class="cls-1" d="M4.27,7.38a.27.27,0,0,1-.2-.07A.21.21,0,0,1,4,7.13.22.22,0,0,1,4.07,7a.32.32,0,0,1,.2-.07H7.38a.32.32,0,0,1,.2.07.25.25,0,0,1,.08.18.23.23,0,0,1-.08.18.27.27,0,0,1-.2.07Zm0,1a.27.27,0,0,1-.2-.07A.22.22,0,0,1,4,8.17.19.19,0,0,1,4.07,8a.27.27,0,0,1,.2-.07H7a.27.27,0,0,1,.2.07.21.21,0,0,1,.08.17.26.26,0,0,1-.08.19.27.27,0,0,1-.2.07ZM6.87,10a2.25,2.25,0,0,1-1.6-.67,2.41,2.41,0,0,1-.48-.75,2.52,2.52,0,0,1,0-1.82,2.36,2.36,0,0,1,.48-.74A2.23,2.23,0,0,1,6,5.55a2.18,2.18,0,0,1,.89-.18,2.22,2.22,0,0,1,.77.12,2.11,2.11,0,0,1,.65.38.46.46,0,0,1,.07.07.13.13,0,0,1,0,.08.22.22,0,0,1,0,.09.22.22,0,0,1-.08.18.26.26,0,0,1-.19.08.3.3,0,0,1-.21-.07A1.53,1.53,0,0,0,7.47,6a1.44,1.44,0,0,0-.6-.1,1.44,1.44,0,0,0-.65.14,1.66,1.66,0,0,0-.53.38A1.85,1.85,0,0,0,5.33,7a1.93,1.93,0,0,0-.13.69,2,2,0,0,0,.13.69A1.85,1.85,0,0,0,5.69,9a1.66,1.66,0,0,0,.53.38,1.58,1.58,0,0,0,.65.14,1.55,1.55,0,0,0,.56-.11,2.15,2.15,0,0,0,.51-.28A.35.35,0,0,1,8.14,9a.31.31,0,0,1,.18.09.28.28,0,0,1,.07.2.34.34,0,0,1-.1.21,2.36,2.36,0,0,1-.67.38A2.11,2.11,0,0,1,6.87,10Z"/><path class="cls-1" d="M11.45,7.38a.27.27,0,0,1-.2-.07.21.21,0,0,1-.08-.18A.22.22,0,0,1,11.25,7a.32.32,0,0,1,.2-.07h3.11a.32.32,0,0,1,.2.07.25.25,0,0,1,.08.18.23.23,0,0,1-.08.18.27.27,0,0,1-.2.07Zm0,1a.27.27,0,0,1-.2-.07.22.22,0,0,1-.08-.19A.19.19,0,0,1,11.25,8a.27.27,0,0,1,.2-.07h2.7a.27.27,0,0,1,.2.07.21.21,0,0,1,.08.17.26.26,0,0,1-.08.19.27.27,0,0,1-.2.07Zm2.6,1.6a2.25,2.25,0,0,1-1.6-.67A2.41,2.41,0,0,1,12,8.61a2.52,2.52,0,0,1,0-1.82,2.36,2.36,0,0,1,.48-.74,2.23,2.23,0,0,1,.71-.5,2.18,2.18,0,0,1,.89-.18,2.22,2.22,0,0,1,.77.12,2.11,2.11,0,0,1,.65.38.46.46,0,0,1,.07.07.13.13,0,0,1,0,.08.22.22,0,0,1,0,.09.22.22,0,0,1-.08.18.26.26,0,0,1-.19.08.3.3,0,0,1-.21-.07A1.53,1.53,0,0,0,14.65,6a1.7,1.7,0,0,0-1.25,0,1.66,1.66,0,0,0-.53.38,1.85,1.85,0,0,0-.36.57,1.93,1.93,0,0,0-.13.69,2,2,0,0,0,.13.69,1.85,1.85,0,0,0,.36.57,1.66,1.66,0,0,0,.53.38,1.58,1.58,0,0,0,.65.14,1.55,1.55,0,0,0,.56-.11,2.15,2.15,0,0,0,.51-.28.35.35,0,0,1,.2-.07.31.31,0,0,1,.18.09.28.28,0,0,1,.07.2.34.34,0,0,1-.1.21,2.36,2.36,0,0,1-.67.38A2.11,2.11,0,0,1,14.05,10Z"/></g></g></svg>