<?xml version="1.0" encoding="UTF-8"?>
<svg id="a" xmlns="http://www.w3.org/2000/svg" width="171.42" height="125.76" viewBox="0 0 171.42 125.76">
    <defs>
        <style>.b{fill:#001e5b;}</style>
    </defs>
    <g id="content">
    <path class="b"
          d="m85.71,68.71c-26.44,0-52.88,0-79.32,0-4.08,0-6.64-2.6-6.37-6.4.19-2.69,2.33-4.93,5-5.21.53-.06,1.07-.04,1.6-.04,52.7,0,105.4,0,158.1,0,1.45,0,2.84.08,4.09.95,2.14,1.49,3.1,4.13,2.36,6.59-.73,2.46-2.9,4.11-5.61,4.11-12.54.02-25.07.01-37.61.01-14.08,0-28.16,0-42.24,0Z"/>
    <path class="b"
          d="m148.57,102.91c0,5.52.01,11.05,0,16.57-.01,4.01-2.28,6.26-6.33,6.27-11.11.01-22.22.01-33.32,0-3.72,0-6.23-2.39-6.22-5.85,0-3.49,2.46-5.79,6.24-5.8,8.61-.01,17.23-.05,25.84.03,1.76.02,2.19-.56,2.17-2.24-.07-8.73-.05-17.46-.02-26.2,0-2.96,1.9-5.24,4.61-5.75,2.94-.55,5.63.97,6.71,3.75.31.8.32,1.62.32,2.45,0,5.58,0,11.17,0,16.75Z"/>
    <path class="b"
          d="m22.82,22.97c0-5.58-.01-11.17,0-16.75C22.84,2.29,25.1.02,29.02.01c11.17-.02,22.33-.01,33.5,0,3.68,0,6.21,2.44,6.18,5.89-.02,3.37-2.51,5.75-6.12,5.76-8.67.02-17.34.05-26.01-.03-1.63-.01-2.14.45-2.12,2.11.07,8.79.05,17.58.02,26.37,0,2.66-1.56,4.73-3.98,5.52-2.44.8-5.08-.09-6.63-2.21-.81-1.11-1.04-2.35-1.03-3.7.02-5.58,0-11.17,0-16.75Z"/>
    <path class="b"
          d="m45.67,125.76c-5.52,0-11.05.01-16.57,0-3.96-.01-6.27-2.35-6.27-6.34-.01-11.11-.01-22.21,0-33.32,0-3.77,2.32-6.22,5.82-6.22,3.45,0,5.82,2.51,5.82,6.25.02,8.61.05,17.22-.03,25.84-.02,1.76.56,2.19,2.24,2.17,8.73-.07,17.46-.05,26.19-.02,2.78,0,4.96,1.7,5.67,4.28.68,2.48-.34,5.09-2.55,6.51-1.04.67-2.18.87-3.4.86-5.64-.02-11.28,0-16.93,0Z"/>
    <path class="b"
          d="m125.72,0c5.52,0,11.05-.01,16.57,0,3.97.01,6.28,2.33,6.28,6.33.01,11.11.01,22.21,0,33.32,0,3.75-2.35,6.23-5.82,6.23-3.43,0-5.82-2.54-5.82-6.25-.01-8.61-.05-17.22.03-25.83.02-1.76-.56-2.19-2.24-2.17-8.73.07-17.46.07-26.19.02-4.3-.02-7.08-4.23-5.4-8.12C104.15,1.16,106.03,0,108.61,0c5.7,0,11.4,0,17.1,0Z"/>
    </g>
</svg>
