<svg xmlns="http://www.w3.org/2000/svg" viewBox="0 0 91.16 91.16"><defs><style>.cls-1{fill:#001e5b;}</style></defs><g id="search-icon"> <g id="Layer_2" data-name="Layer 2"><g id="Layer_1-2" data-name="Layer 1"><path class="cls-1" d="M90.59,80.5a12.46,12.46,0,0,0-3.15-4.67q-8.1-8.07-16.18-16.17l-2.14-2.13a1.64,1.64,0,0,1-.32-2.38,36,36,0,0,0,3.55-8.06,36.72,36.72,0,0,0,1.5-8.65,35.58,35.58,0,0,0-1-10.44,35,35,0,0,0-4.81-11.15A37,37,0,0,0,50.83,2.63,35.94,35.94,0,0,0,40.22.08,2.7,2.7,0,0,1,39.83,0H34.09c-1,.13-1.9.24-2.84.38a36.25,36.25,0,0,0-11,3.55A36.92,36.92,0,0,0,6.09,16.51a34,34,0,0,0-5,11.42c-.44,1.92-.67,3.88-1,5.83,0,.14-.06.28-.09.43v5.44c.13,1,.25,1.93.38,2.89a35,35,0,0,0,2.79,9.54A37.2,37.2,0,0,0,17.44,68.44a35.24,35.24,0,0,0,10,4.32A36.26,36.26,0,0,0,36.3,74a34.73,34.73,0,0,0,13.88-2.63c1.76-.73,3.44-1.66,5.14-2.53a1.6,1.6,0,0,1,2.15.28L69,80.58c2.44,2.44,4.87,4.88,7.32,7.31a11.28,11.28,0,0,0,5,3c.39.11.79.19,1.19.28h2a11.12,11.12,0,0,0,1.55-.46,8.21,8.21,0,0,0,5-6c0-.09.06-.18.09-.28V82.64C91,81.93,90.83,81.2,90.59,80.5ZM64.28,37.65A27.32,27.32,0,1,1,37,9.66,27.24,27.24,0,0,1,64.28,37.65Z"/><path class="cls-1" d="M55.46,34.48a3.82,3.82,0,0,1-5-2,16.2,16.2,0,0,0-10.7-9.39,15.91,15.91,0,0,0-10.79.67A3.83,3.83,0,1,1,26,16.66a23.24,23.24,0,0,1,8-1.86c10.91,0,19.7,5.81,23.44,14.61A3.78,3.78,0,0,1,55.46,34.48Z"/></g></g></g></svg>
