<svg xmlns="http://www.w3.org/2000/svg" viewBox="0 0 49.57 26.27"><defs><style>.cls-1{fill:#e62329;}.cls-2{fill:#221f1f;}</style></defs><title>Asset 3</title><g id="Layer_2" data-name="Layer 2"><g id="Layer_1-2" data-name="Layer 1"><rect class="cls-1" y="12.54" width="13.63" height="13.63"/><path class="cls-1" d="M19.71,19v.77H18.6v-.86c0-.25-.08-.42-.08-.59a.43.43,0,0,0-.34-.17.48.48,0,0,0-.43.25,1.39,1.39,0,0,0-.08.69v.42a2.34,2.34,0,0,0,.42,1.11l1.11,1.54a8.34,8.34,0,0,1,.43.76,2.56,2.56,0,0,1,.08.77v.6a1.86,1.86,0,0,1-.42,1.45,1.51,1.51,0,0,1-1.28.51,2,2,0,0,1-1.2-.34,2.21,2.21,0,0,1-.34-1.37v-.85h1.11v.85a2.74,2.74,0,0,0,.09.6.46.46,0,0,0,.42.26.49.49,0,0,0,.43-.26c.08-.08.08-.34.08-.77v-.51a2.94,2.94,0,0,0-.42-1.19L18,22.38l-1-1.31a2.88,2.88,0,0,1-.34-.68,1.39,1.39,0,0,1-.08-.6v-.6A2,2,0,0,1,17,17.83a1.52,1.52,0,0,1,1.28-.52,1.49,1.49,0,0,1,1.11.43A1.76,1.76,0,0,1,19.71,19"/><path class="cls-1" d="M22.27,19.62a3,3,0,0,1,.43-1.79,1.56,1.56,0,0,1,1.36-.51,1.7,1.7,0,0,1,1.37.51,3.18,3.18,0,0,1,.34,1.79V24a2.78,2.78,0,0,1-.09,1,2.1,2.1,0,0,1-.42.51,1,1,0,0,1,.43-.19,4.08,4.08,0,0,1,.42-.06h.17v.85c-.34,0-.85.09-1.36.09a7,7,0,0,0-.94.08,1.7,1.7,0,0,1-1.37-.51A3.2,3.2,0,0,1,22.27,24Zm1.11-.17v4.69a2.53,2.53,0,0,0,.17,1,.53.53,0,0,0,.51.26.49.49,0,0,0,.43-.26,2.36,2.36,0,0,0,.17-1V19.45a2.38,2.38,0,0,0-.17-1,.7.7,0,0,0-.43-.17.53.53,0,0,0-.51.26,1.76,1.76,0,0,0-.17.94"/><path class="cls-1" d="M28.58,17.49h1.11v6.65a2.53,2.53,0,0,0,.17,1,.49.49,0,0,0,.86,0,2.53,2.53,0,0,0,.17-1V17.49H32V24a3.1,3.1,0,0,1-.35,1.79,1.66,1.66,0,0,1-1.36.51,1.56,1.56,0,0,1-1.36-.51A3.1,3.1,0,0,1,28.58,24Z"/><path class="cls-1" d="M35.66,17.49H37.2l1.28,8.61H37.37L37.11,24H35.66l-.34,2.13H34.21Zm.69.93L35.75,23h1.19l-.51-4.61Z"/><path class="cls-1" d="M40.78,17.49h1.54a1.84,1.84,0,0,1,1.36.34c.34.17.43.59.43,1.1V20.3a1.79,1.79,0,0,1-.26,1,1.91,1.91,0,0,1-.94.34,1.36,1.36,0,0,1,.94.35,1.4,1.4,0,0,1,.34,1.1v3H43v-3a1.91,1.91,0,0,0-.17-.85,1.15,1.15,0,0,0-.68-.17h-.26v4H40.78Zm1.11.85v2.9h.17a1.49,1.49,0,0,0,.77-.17A1.79,1.79,0,0,0,43,20.3v-.94a1.88,1.88,0,0,0-.17-.85,1.4,1.4,0,0,0-.77-.17Z"/><polygon class="cls-1" points="46.92 17.49 49.48 17.49 49.48 18.42 48.03 18.42 48.03 21.15 49.48 21.15 49.48 22.09 48.03 22.09 48.03 25.25 49.57 25.25 49.57 26.1 46.92 26.1 46.92 17.49"/><polygon class="cls-2" points="14.6 0.26 20.57 0.26 20.57 1.96 18.61 1.96 18.61 16.21 16.56 16.21 16.56 1.96 14.6 1.96 14.6 0.26"/><path class="cls-2" d="M26.28,3.84a6.26,6.26,0,0,0-.17-1.71,1,1,0,0,0-.94-.51.94.94,0,0,0-.85.43,4.38,4.38,0,0,0-.26,1.79v8.78a3.83,3.83,0,0,0,.26,1.79.94.94,0,0,0,.85.43,1.09,1.09,0,0,0,.94-.43,7.44,7.44,0,0,0,.17-1.79Zm2.13.42V12.2a6.17,6.17,0,0,1-.68,3.41,3.18,3.18,0,0,1-2.56.85,2.89,2.89,0,0,1-2.47-.85C22.19,15,22,13.82,22,12.2V4.26c0-1.62.17-2.72.68-3.32A3,3,0,0,1,25.26,0a3,3,0,0,1,2.47.94,6,6,0,0,1,.68,3.32"/><polygon class="cls-2" points="29.95 0.26 32 0.26 32.85 13.31 33.02 13.31 34.3 0.26 36.86 0.26 38.14 13.31 38.31 13.31 39.33 0.26 41.21 0.26 39.33 16.21 36.94 16.21 35.58 2.39 35.41 2.39 34.04 16.21 31.57 16.21 29.95 0.26"/><polygon class="cls-2" points="42.74 0.26 45.56 0.26 47.86 14.76 47.95 14.76 47.77 0.26 49.48 0.26 49.48 16.21 46.75 16.21 44.45 1.88 44.36 1.88 44.53 16.21 42.74 16.21 42.74 0.26"/><path class="cls-2" d="M.12.19h2V7.44a2.56,2.56,0,0,0,.26,1.37.92.92,0,0,0,.77.34.81.81,0,0,0,.76-.34,2.56,2.56,0,0,0,.26-1.37V.19h2V7.1a3.71,3.71,0,0,1-.6,2.56A3.3,3.3,0,0,1,3,10.43a3,3,0,0,1-2.3-.77A3.71,3.71,0,0,1,.12,7.1Z"/><path class="cls-2" d="M8,.17h2.22a4.43,4.43,0,0,1,2.56.51,1.85,1.85,0,0,1,.77,1.71V5a1.79,1.79,0,0,1-.77,1.62,3.55,3.55,0,0,1-2.39.59H9.91v3.18H8ZM9.91,1.36V5.89h.34a1.47,1.47,0,0,0,1-.26c.26-.17.34-.6.34-1.19V2.81a1.59,1.59,0,0,0-.25-1.1,1.44,1.44,0,0,0-1.11-.35Z"/></g></g></svg>