<svg xmlns="http://www.w3.org/2000/svg" viewBox="0 0 290.03 299.7"><defs><style>.cls-1{fill:#001e5b;}</style></defs><g id="snack_icon"> <g id="Layer_2" data-name="Layer 2"><g id="Layer_1-2" data-name="Layer 1"><path class="cls-1" d="M287.63,208.66c-1.3-6.61-2.51-13.36-2.55-20.06-.05-8.08,1.11-16.17,1.87-24.24A393.62,393.62,0,0,0,287,93c-1.33-15.41-3.09-30.77.84-46.16,3.48-13.67,1.71-27.73,1.92-41.63C289.83,1,286.23-1,282.34.69a25.84,25.84,0,0,0-4.17,2.1c-2.23,1.49-4.32,1.65-6.52,0-4.45-3.27-8.95-3.42-13.44-.09a5.14,5.14,0,0,1-6.78-.06c-4.38-3.26-8.8-3.13-13.17,0a5.22,5.22,0,0,1-6.79,0c-4.23-3.08-8.57-3.35-12.88-.13-2.47,1.86-4.87,1.76-7.33,0-4.07-2.91-8.2-3.26-12.33-.13-2.78,2.11-5.46,1.84-8.19-.13-3.8-2.75-7.67-2.89-11.47,0-3,2.25-5.82,2-8.75-.12-3.6-2.57-7.28-2.72-10.93-.05-3,2.19-6,2.41-9,.08-.65-.49-1.51-.69-2.22-1.13a5.65,5.65,0,0,0-6.73.1c-4.48,3.34-8.6,2.88-13.29,0s-8.25-.44-8.27,5.23c0,7.69-.06,15.39,0,23.09a3.41,3.41,0,0,1-2,3.4c-2.26,1.39-4.15,1.17-6.28-.14-3.73-2.28-7.57-4.24-11.77-.92-3.39,2.68-6.76,2.45-10.12-.06-.25-.18-.57-.26-.83-.44a6.93,6.93,0,0,0-8.17.05c-1,.61-2.13.92-3,1.59a4.4,4.4,0,0,1-5.69-.08c-4.79-3.52-9.53-3.48-14.28,0a1.68,1.68,0,0,1-.84.4,15.47,15.47,0,0,1-4-.06,12.11,12.11,0,0,1-3.63-1.77c-2.94-1.92-5.89-2.05-8.71.05-3.93,2.93-7.66,2.66-11.55-.13-2.11-1.5-4.65-2.3-7-.58-4.76,3.49-9.13,3.29-14.13.12C3.94,28.34.25,30.87.21,35.86c0,5.62.17,11.24,0,16.85A49,49,0,0,0,2.38,69.3c2.31,7.3,2.91,14.76,2.88,22.42-.16,41.19-.06,82.39-.12,123.58A37,37,0,0,1,4.2,223C3,228.66.85,234.24.37,240c-.66,8.16-.26,16.43-.12,24.64.07,4,3.53,6,7.29,4.44a7.38,7.38,0,0,0,1.67-.81c4.06-3.14,8-2.88,12.1.07a6.24,6.24,0,0,0,7.84-.07c4.11-3,7.94-2.79,12.15,0,1.51,1,4.49,1.63,5.73.81,5.72-3.77,11-3.67,16.44.3a6.68,6.68,0,0,0,1.64.65c0,7.89,0,15.59,0,23.29,0,5.48,3,7.52,8.16,5.5,6.76-2.67,13.48-5.44,20.27-8A15.71,15.71,0,0,1,99,289.69c23.3-.07,46.62.5,69.9-.25,13.49-.43,25.81,1.49,37.33,8.8,5.21,3.31,8.73.8,8.73-5.5,0-12.27,0-24.53,0-37.41a55.72,55.72,0,0,1,5.12,2.53c3.21,2.07,6.38,2.37,9.54.05,3.61-2.66,7.08-2.55,10.72,0,2.63,1.86,5.55,2.54,8.4.42,4.17-3.12,8.09-3,12.44-.09,1.54,1,4.64,1.5,6,.62,5.31-3.35,10-3.41,15.33,0,3.47,2.24,7.3-.34,7.29-4.54C289.72,239.11,290.59,223.82,287.63,208.66ZM10.26,43.07c4.6,3.53,8.4,1,12.13-1.2a4.75,4.75,0,0,1,5.7.11c.08.06.19.09.27.15,4.46,3.27,9,3.42,13.44.1a5.18,5.18,0,0,1,6.78,0c4.24,3.09,8.57,3.31,12.89.14a5.6,5.6,0,0,1,7.33,0c4.18,3.09,8.44,3.09,12.61,0,2.61-1.94,5.07-1.74,7.62.1,4,2.9,8,3,12,0,2.6-1.89,5.19-2.1,7.91-.08,3.94,2.92,8,3.06,12,.09,2.75-2,5.46-2,8.19.05,3.92,2.91,7.86,2.79,11.75,0,2.75-2,5.36-1.89,8.21,0,3.21,2.11,6.66,3.65,10.63.44V54.73H10.26ZM64.87,258.9c-2.09-1-4.08-1.87-5.93-2.94-2.59-1.51-5.17-1.73-7.59.07-4.18,3.11-8.16,3.09-12.36,0-2.39-1.75-5-1.69-7.58-.08-1.22.75-2.68,1.16-3.87,2a3.84,3.84,0,0,1-4.84-.06c-.59-.41-1.32-.61-1.94-1-3.26-1.95-6.54-3.37-10.5-.09V245H64.87Zm8.25-58.33c-4.91-1.93-8,.16-8,5.43,0,9.44,0,18.88,0,28.52H11.85a13.93,13.93,0,0,1,.37-2.42c2.71-7.9,2.94-16,2.92-24.3q-.13-58.5.1-117a76.42,76.42,0,0,0-2.8-22.45c-.29-1-.45-2-.72-3.24H158.38a13.35,13.35,0,0,1-.32,2c-3.07,9.12-3.15,18.53-3.12,28,.13,36.82.06,73.64.06,110.46v4.13h-3.48c-17.58,0-35.16,0-52.74,0a15,15,0,0,1-5.11-1C86.79,206.09,80,203.27,73.12,200.57Zm131.66,24.09h-9.61v9.92h9.51v10h-9.56v9.93h9.61v10h-9.54v10h9.59v11.82c-3.74-1.85-7.18-3.74-10.77-5.29a15.58,15.58,0,0,0-5.93-1.42q-45.56-.14-91.11,0a16.06,16.06,0,0,0-5.42,1.05c-5.42,2-10.78,4.22-16.36,6.43V274.74h9.73v-9.93H75.29v-10h9.56v-10h-9.6v-9.92H84.9v-9.93H75.31V212.25c5.35,2.12,10.6,4.3,15.93,6.26a18.08,18.08,0,0,0,6,1.17c29.44.07,58.87,0,88.3.11a20.43,20.43,0,0,0,10.71-2.55c2.66-1.55,5.5-2.79,8.51-4.29Zm-13.42-99.81c-4.78,0-6.62,1.93-6.34,6.7a29.28,29.28,0,0,0,5.35,15.39c.58.83,1.15,1.67,1.95,2.83a16.1,16.1,0,0,1-11.8-5.39c-7.37-7.81-7.42-21.18-.06-29,4.49-4.76,10-6.76,16.4-4.8,6.87,2.11,10.54,7.25,12.55,14.28Zm42.56,10.22c-1.74,8.19-9.57,14.47-18.29,14.74a19.72,19.72,0,0,1-19.81-14.74Zm-58.06,18.56q11.28,9.17,25.16,4.71a7.72,7.72,0,0,1,4.39,0,30.1,30.1,0,0,0,39.37-25.68c.58-5.82-1.19-7.78-7.09-7.78H219.75c-4.65-16.3-14.24-25-27.32-24.95S169.5,108.83,165,124.28c0-7.82,0-15.65.06-23.47a4.59,4.59,0,0,1,1.18-2.41c12.07-15.31,33.08-22,52.14-16.62,19.25,5.44,33.59,21.88,36,41.25,3.85,31.43-20.2,57.94-51.71,56.64-14.78-.61-27-7-36.41-18.42a4.85,4.85,0,0,1-1.18-2.72c-.09-7.69-.06-15.39-.06-23.08C166.87,142.64,170.07,148.92,175.86,153.63Zm39.06,52.64c0-5.84-3.32-7.86-8.57-5.3-1.11.55-2.22,1.12-3.34,1.66-4.85,2.37-9.5,6-14.59,6.78-7.51,1.16-15.32.3-23.22.3V175.12c32.19,26.41,70.79,13,87.24-8.61A60.35,60.35,0,0,0,247.8,88c-20.27-21-55.69-25.71-83.05-2.78.3-2.7.22-4.71.77-6.51a100.28,100.28,0,0,0,4.46-36c0-.81,0-1.62,0-2.61H278.85c-.7,4.32-1.11,8.62-2.11,12.78-2.61,10.74-1.36,21.5-.34,32.23,2.78,28.87,3.22,57.75-.17,86.57-1.7,14.34-.42,28.38,2,42.44.3,1.73.48,3.49.73,5.41H214.93C214.93,215.13,214.94,210.7,214.92,206.27Zm64.73,40.25c-4.4-3.46-8.12-1-11.78,1.16-2.11,1.25-4,1.35-6-.06-.08-.06-.18-.09-.26-.15-4.49-3.27-9-3.31-13.46,0a5.08,5.08,0,0,1-6.52,0c-.91-.65-2.06-1-3-1.57-2.46-1.48-5-1.71-7.32,0-4.26,3.13-8.39,3.27-12.66,0a17.91,17.91,0,0,0-3.57-1.59V229.88h4.73v9.63h10V230h9.92v9.5h10V229.9h9.93v9.6h10V230h9.89Zm0-216.71H270V20.17h-10v9.58H250V20.24H240V29.9h-9.93V20.19H220v9.54H210V20.15h-9.93v9.62H190V20.21H180v9.61h-9.92V20.16h-9.92v9.59h-10V20.23h-10V29.8h-9.82V13c4,3.51,7.63,1.49,11-.63,2.72-1.7,5.12-1.81,7.65.12.24.18.57.27.82.45,3.58,2.47,7.16,2.48,10.66-.1,3.15-2.34,6.15-2.25,9.3.05,3.5,2.56,7.11,2.52,10.65,0,3-2.13,5.9-2.48,9-.14,3.67,2.75,7.47,2.73,11.19,0,2.92-2.14,5.78-2.23,8.75,0,3.67,2.73,7.46,2.75,11.19,0,2.91-2.11,5.76-2.29,8.75-.06,3.66,2.71,7.47,2.82,11.19.07,3.06-2.26,6-2.15,9,.07,3.62,2.64,7.31,2.58,10.91,0,3.05-2.23,5.94-2.14,9,0s6.57,3.12,10.27.25Z"/><path class="cls-1" d="M142.27,105.49c-2.27-1.22-4.09-.12-6.12.88-4.9,2.43-9.94,4.59-14.93,6.84-2.26,1-3.9.36-5.76-1.37a44.56,44.56,0,0,0-60.6-.14A10.76,10.76,0,0,1,46.71,115c-12.3-.1-21.44,9.16-21.54,21.46-.05,6.86,0,13.73,0,20.58,0,7.07,0,14.15,0,21.22,0,2.67.43,5,3.19,6.15s4.4-.49,6.42-1.92c4.29-3.07,8.81-5.81,13.25-8.66,1.34-.86,2.32-.54,3.43.7a48.22,48.22,0,0,0,6.09,5.78,44.93,44.93,0,0,0,63.37-8.22,5.66,5.66,0,0,1,3.32-2.18c12.69-1.11,20.77-9.69,20.8-22.38,0-12.07,0-24.13,0-36.19C145,108.86,144.61,106.75,142.27,105.49Zm-40.22,9.21H68.41C74.83,108.38,93.46,108.27,102.05,114.7ZM61.67,170.23h47.18C94.78,184,72.45,181.64,61.67,170.23ZM134.84,150c-.21,5.86-5.37,9.82-11.66,9.84-17.57,0-35.15.15-52.72,0-12.15-.13-23.49,2.36-33.89,8.77-.33.2-.69.34-1.42.7V148.05c0-3.64,0-7.28,0-10.92,0-7.66,4.58-12.26,12.19-12.27,19.34,0,38.69-.11,58,0,9.81.06,19.25-1.32,28.17-5.54a7.79,7.79,0,0,1,1.41-.33C134.94,129.45,135.21,139.71,134.84,150Z"/><path class="cls-1" d="M140,224.73A25,25,0,1,0,165,249.8,25,25,0,0,0,140,224.73ZM140,264.66a15,15,0,1,1,15-14.73A15,15,0,0,1,140,264.66Z"/></g></g></g></svg>
