<svg xmlns="http://www.w3.org/2000/svg" viewBox="0 0 72.85 72.49"><defs><style>.cls-1{opacity:0.2;}</style></defs><title>Asset 2</title><g id="Layer_2" data-name="Layer 2"><g id="Layer_1-2" data-name="Layer 1"><g class="cls-1"><path d="M71,24.35c-6.44-25.88-38-34-52.79-10.1-4.34,3.9-2.72,9.93-3,15.09C16,37.06,13,51.24,17.34,57.1,41.74,93,82,59.52,71,24.35ZM19.31,54.75c-2.82-10.39-.3-22.9-1.1-33.85a6.07,6.07,0,0,1,6-5.93c9.81.67,5,14.64,6.05,21.18,0,5.11,0,10.21,0,15.31C30.37,57.11,22.39,59.46,19.31,54.75Zm14-33.38a9.42,9.42,0,0,0-3.26-7.3C43.27,1.45,60.84,14,62.94,29.54c5.08,19-13.82,45.24-32.8,28.72a10.28,10.28,0,0,0,3.22-7.82C33.32,40.75,33.34,31.06,33.35,21.37ZM64.73,55.16C57,70.8,35.17,74.59,24,60.49c1.26-.06,2.77-1.1,3.86-.25,7.45,7.52,19.89,8.29,27.84,1.17,15.79-13.17,14.58-42.54-3.62-53a20,20,0,0,0-22.61,2.27c-1.72,2.06-3.06,1.77-5.48,1.13C52.37-16.49,81.76,27.6,64.73,55.16Z"/><path d="M4.64,45.93A1.54,1.54,0,0,1,3.71,48C.35,48.31.78,40.75,0,38.41a38.09,38.09,0,0,1,1.74-13,1.52,1.52,0,1,1,2.87.92A31.47,31.47,0,0,0,4.64,45.93Z"/><path d="M9.49,46.18c-4.69.06-3.51-15.62-2-18.81C7.77,26.45,8.24,26,9,26c3.32.72,0,5.53.27,7.81C7.93,37.42,12,45.73,9.49,46.18Z"/><path d="M27.28,36.13c.08,3.93-6.15,3.91-6.06,0S27.34,32.24,27.28,36.13Z"/></g></g></g></svg>