<svg xmlns="http://www.w3.org/2000/svg" viewBox="0 0 72.47 56.97"><defs><style>.cls-1{opacity:0.2;}</style></defs><title>Asset 3</title><g id="Layer_2" data-name="Layer 2"><g id="Layer_1-2" data-name="Layer 1"><g class="cls-1"><path d="M14.94,3.29A3.17,3.17,0,0,0,11.34.06,9.4,9.4,0,0,0,9.46.72c-1.4-.94-2.2-.95-4.26,0C3.45-.42,1.72-.2.57,1.33c-.22.3-.38.64-.57,1v12A14.5,14.5,0,0,0,2.94,21a6.19,6.19,0,0,1,1,4c-.1,2.24-.22,4.48-.32,6.72-.32,6.81-.66,13.61-1,20.42a4.71,4.71,0,0,0,4.19,4.86A4.6,4.6,0,0,0,12,52.66c.1-2.42-.12-4.86-.24-7.28a.93.93,0,0,0-1-.89,1,1,0,0,0-1,.88,4.67,4.67,0,0,0,0,1c.08,1.89.18,3.77.23,5.66a2.57,2.57,0,1,1-5.11,0q.45-9.87.92-19.72c0-.75.09-1.49.14-2.21H9c0,.26,0,.47,0,.68.13,3.2.25,6.41.4,9.61,0,.31.08.75.28.89a1.58,1.58,0,0,0,1.13.29c.63-.15.72-.72.7-1.31-.2-4.92-.36-9.85-.6-14.77a7.85,7.85,0,0,1,1.59-5.36A11.12,11.12,0,0,0,14.93,13C14.91,9.75,14.94,6.52,14.94,3.29ZM12.81,13a9.2,9.2,0,0,1-1.94,5.85,9.42,9.42,0,0,0-2,6.68c.05.75,0,1.51,0,2.34H6c0-.66,0-1.29,0-1.91a9.8,9.8,0,0,0-2-7.23A9,9,0,0,1,2.13,13c0-3.19,0-6.37,0-9.56,0-.91.3-1.28,1-1.27s1,.45,1,1.32V14.29c0,1,.35,1.51,1.07,1.5s1-.5,1-1.54c0-3.58,0-7.17,0-10.75,0-.62.14-1.14.8-1.33s1.38.33,1.38,1.24v9.83c0,.45,0,.9,0,1.35,0,.76.43,1.22,1.09,1.2a1.06,1.06,0,0,0,1-1.19c0-2.29,0-4.58,0-6.86,0-1.42,0-2.83,0-4.25,0-.83.44-1.35,1.11-1.34s1.09.51,1.09,1.35C12.82,6.66,12.79,9.82,12.81,13Z"/><path d="M60.16,31.18A23.28,23.28,0,0,1,40.3,52.65,23.52,23.52,0,0,1,13.73,33.48c-.21-1.32-.3-2.67-.45-4A23.64,23.64,0,0,1,33.62,6.22a23.33,23.33,0,0,1,10.81,1,4.24,4.24,0,0,1,.59.23,1,1,0,0,1,.57,1.34,1.06,1.06,0,0,1-1.33.62C42.83,9.08,41.41,8.6,40,8.37A21.32,21.32,0,1,0,57.9,32.48c1.11-8.72-2.09-15.64-9.21-20.76-.72-.51-.93-1.1-.56-1.65s1-.62,1.74-.11C57.18,15.15,60.79,22.22,60.16,31.18Z"/><path d="M71.69,33.38c0-5.68.28-11.36.44-17.05.11-4.29.25-8.58.34-12.87a2.47,2.47,0,0,0-3.85-2.31,6.12,6.12,0,0,0-1.78,1.58,15.06,15.06,0,0,0-1.65,2.79,30.84,30.84,0,0,0-3.1,13.66,48.86,48.86,0,0,0,2.25,13.63,4.71,4.71,0,0,1,.21,1.58c-.2,3.25-.44,6.49-.67,9.74-.05.83.31,1.33,1,1.37s1.07-.36,1.13-1.16c.1-1.22.18-2.45.27-3.67.14-2,.29-4,.43-6.07h2.89c0,.45,0,.82.06,1.2.08,1.74.15,3.48.23,5.23.16,3.75.34,7.49.47,11.24a2.43,2.43,0,0,1-2.59,2.55A2.47,2.47,0,0,1,65.47,52c.07-.82.14-1.65.18-2.47a1,1,0,0,0-.83-1.15c-.56-.12-1.12.09-1.18.62-.2,1.65-.63,3.33,0,5a4.61,4.61,0,0,0,5.05,2.88,4.55,4.55,0,0,0,3.78-4.56c-.06-2.73-.22-5.47-.33-8.2C72,40.55,71.67,37,71.69,33.38ZM70,15.77q-.21,7.64-.41,15.28c0,.44-.05.89-.07,1.4-1,0-1.88,0-2.79,0-.15,0-.37-.25-.42-.43a42.36,42.36,0,0,1-1.92-9.18,31.54,31.54,0,0,1,.14-8.46,31.48,31.48,0,0,1,3-8.81A13,13,0,0,1,69.2,3.3c.2-.24.61-.28.93-.41a3.87,3.87,0,0,1,.2.93C70.24,7.8,70.13,11.79,70,15.77Z"/><path d="M38.87,47.56c-.68.08-1.36.09-1.87.12A18.31,18.31,0,0,1,19,33.31a4.62,4.62,0,0,1-.11-.63,1,1,0,0,1,.83-1.14,1,1,0,0,1,1.21.71c.19.58.28,1.19.45,1.78a16.11,16.11,0,1,0-.55-6.53c-.12.87-.58,1.33-1.23,1.23s-1-.65-.88-1.52A18.23,18.23,0,1,1,38.87,47.56Z"/></g></g></g></svg>