<svg id="Layer_1" data-name="Layer 1" xmlns="http://www.w3.org/2000/svg" viewBox="0 0 10 10">
    <g id="content">
        <path class="cls-2"
              d="M8,3.19h-6a.43.43,0,0,0-.47.52c.1,1,.19,2.08.29,3.11.08.79.15,1.58.23,2.36a.49.49,0,0,0,.38.43H7.7a.52.52,0,0,0,.4-.52c.07-.85.16-1.7.25-2.55S8.5,4.8,8.6,3.94C8.67,3.33,8.56,3.19,8,3.19ZM3.47,8.09a.33.33,0,0,1-.38-.31c0-.28,0-.55,0-.83,0-.62-.07-1.24-.1-1.86,0-.25.11-.39.33-.4a.35.35,0,0,1,.39.36c0,.52.06,1,.08,1.56,0,.27,0,.54,0,.81h0c0,.1,0,.2,0,.3A.34.34,0,0,1,3.47,8.09Zm1.88-.4a.35.35,0,0,1-.35.4.37.37,0,0,1-.37-.4V5.08A.35.35,0,0,1,5,4.69c.22,0,.35.15.35.4v2.6ZM7.12,5.17h0C7.07,6,7,6.87,7,7.72a.37.37,0,0,1-.36.38.35.35,0,0,1-.36-.4c0-.8.09-1.6.13-2.4,0-.07,0-.14,0-.21,0-.27.14-.41.37-.4s.35.15.34.42Z"/>
        <path class="cls-2"
              d="M8.92,2.14c0,.15-.07.21-.21.22H1.44c-.34,0-.36,0-.36-.37V1.48c0-.3.12-.41.43-.42H3.86c0-.3,0-.55.34-.66H5.84a.55.55,0,0,1,.34.65H8.47c.34,0,.45.11.45.46Z"/>
    </g>
</svg>
