<svg xmlns="http://www.w3.org/2000/svg" viewBox="0 0 14.04 13.71"><defs><style>.cls-1{fill:#001e5b;}</style></defs>
    <g id="upcoming_meals"> <g id="Layer_2" data-name="Layer 2"><g id="Layer_1-2" data-name="Layer 1"><path class="cls-1" d="M14,3.26a1.94,1.94,0,0,0-2.27-1.91c0,.26,0,.53,0,.79a1.06,1.06,0,0,1-1.1,1.09h-1A1.08,1.08,0,0,1,8.49,2.1c0-.26,0-.53,0-.82H5.56c0,.33,0,.59,0,.86a1.07,1.07,0,0,1-1.1,1.09c-.36,0-.72,0-1.07,0A1.07,1.07,0,0,1,2.28,2.14V1.32A2,2,0,0,0,0,3.36v8.19A2,2,0,0,0,2.16,13.7c3.23,0,6.47,0,9.7,0A2,2,0,0,0,14,11.53V6.77C14,5.6,14,4.43,14,3.26Zm-1.34,8.17c0,.68-.22.9-.9.91H2.23c-.66,0-.89-.22-.89-.88V5H12.68c0,.13,0,.25,0,.37Z"/><path class="cls-1" d="M4.85,2.05c0,.3-.15.46-.46.46h-1A.39.39,0,0,1,3,2.08V.45A.4.4,0,0,1,3.43,0h1a.42.42,0,0,1,.46.46V2.05Z"/><path class="cls-1" d="M11,1.27v.81c0,.27-.13.42-.4.43s-.69,0-1,0a.37.37,0,0,1-.4-.39c0-.56,0-1.13,0-1.7A.39.39,0,0,1,9.61,0h1A.4.4,0,0,1,11,.46Z"/></g></g></g></svg>
