<svg xmlns="http://www.w3.org/2000/svg" viewBox="0 0 106.72 15.96"><defs><style>.cls-1-viva{opacity:0.5;}</style></defs>
    <g id="viva_wallet_svg"><g id="Layer_2" data-name="Layer 2"><g id="Layer_1-2" data-name="Layer 1"><g class="cls-1-viva"><path d="M15.72,0c-1.53,3.27-3.05,6.51-4.61,9.86L6.45,0,0,3,5,13.63a2.87,2.87,0,0,0,.2.39,5,5,0,0,0,.46.67,3.17,3.17,0,0,0,5.09,0l.38-.46c.21.25.37.47.56.67a3.13,3.13,0,0,0,4.76,0,5.16,5.16,0,0,0,.81-1.25q2.36-5,4.67-10.07c.08-.17.14-.34.22-.54ZM8.85,13.92A1.34,1.34,0,0,1,7,13.44a2.9,2.9,0,0,1-.31-.54Q4.63,8.57,2.6,4.22a1.88,1.88,0,0,1-.13-.33L5.54,2.44c.1.2.21.37.29.55L9.9,11.6A2.4,2.4,0,0,1,8.85,13.92Zm9.63-7.31c-.93,2-1.85,4-2.78,6a5.45,5.45,0,0,1-.37.72,1.41,1.41,0,0,1-2.54,0A2,2,0,0,1,12.57,11c1.27-2.49,2.4-5.06,3.58-7.6.14-.3.29-.59.46-1L19.73,3.9C19.29,4.84,18.89,5.73,18.48,6.61Z"/><path d="M72.49,6.61c-.84,2.1-1.65,4.16-2.5,6.2a1.64,1.64,0,0,1-1.54,1.11,1.67,1.67,0,0,1-1.6-1.12c-.42-.93-.77-1.89-1.15-2.84-.1-.27-.21-.54-.38-1-.47,1.17-.86,2.16-1.25,3.14-.1.23-.18.47-.29.69a1.76,1.76,0,0,1-1.55,1.11,1.74,1.74,0,0,1-1.61-1.11c-.18-.37-.32-.77-.48-1.16l-2-5.05L60,5.92c.71,1.94,1.41,3.88,2.15,5.93.12-.24.19-.37.24-.5.55-1.54,1.1-3.07,1.66-4.61.27-.76.68-1.11,1.28-1.08s1,.47,1.22,1.07l1.87,5.19,2.18-6Z"/><path d="M53.81,5.9c0,.23,0,.43-.06.7a3.55,3.55,0,0,0-4.94.13,4.53,4.53,0,0,0-.23,5.86c1.3,1.56,3.2,1.73,5.17.43,0,.23,0,.44.07.66h1.86V5.9Zm-2.1,6.18a2.16,2.16,0,0,1-2.15-2.29,2.15,2.15,0,1,1,4.29,0A2.16,2.16,0,0,1,51.71,12.08Z"/><path d="M79.11,5.91c0,.22,0,.41,0,.66-2-1.29-3.77-1.17-5.1.3a4.59,4.59,0,0,0-.08,5.74c1.28,1.53,3.08,1.68,5.16.42,0,.23.06.44.08.64H81V5.91ZM77,12.07a2.13,2.13,0,0,1-2.16-2.26A2.14,2.14,0,0,1,77,7.51a2.11,2.11,0,0,1,2.16,2.26A2.13,2.13,0,0,1,77,12.07Z"/><path d="M96.74,6.05a4.12,4.12,0,0,0-4.6.7,4.55,4.55,0,0,0,0,6.06,4.75,4.75,0,0,0,6.25-.12c-.38-.4-.77-.8-1.14-1.2-2.08,1.15-3.66.8-4.17-1h5.19c.27,0,.47,0,.52-.36A4.17,4.17,0,0,0,96.74,6.05Zm-3.67,3a1.8,1.8,0,0,1,1.79-1.68c1,0,1.65.53,1.91,1.68Z"/><path d="M106.72,13a4.05,4.05,0,0,1-4.14.55,2.62,2.62,0,0,1-1.36-2.45c0-.9,0-1.8,0-2.69v-.7H99.72V5.92h1.47V3.57h1.91V5.88h3V7.77h-2.94c0,1.14-.06,2.25,0,3.34.06.76.77,1.11,1.62.89a11.06,11.06,0,0,0,1.21-.47Z"/><path d="M34,6.58c-.06.19-.1.34-.16.49-.68,1.75-1.37,3.51-2.07,5.25a3.76,3.76,0,0,1-.46.89,1.57,1.57,0,0,1-2.65,0,2.26,2.26,0,0,1-.32-.54c-.8-2-1.59-4-2.4-6.07l1.87-.68,2.18,6c.75-2.09,1.45-4,2.17-6Z"/><path d="M47.14,6.6,44.57,13l-.07.11a1.62,1.62,0,0,1-2.84,0,2.17,2.17,0,0,1-.19-.33L39,6.61l1.88-.69,2.17,6,2.17-6Z"/><rect x="83.15" y="2.07" width="1.84" height="11.62"/><rect x="87.31" y="2.09" width="1.85" height="11.6"/><rect x="35.58" y="5.9" width="1.83" height="7.78"/><path d="M37.72,3.18a1.19,1.19,0,0,1-1.2,1.24,1.18,1.18,0,0,1-1.24-1.2,1.22,1.22,0,1,1,2.44,0Z"/></g></g></g></g></svg>
