<svg id="Layer_1" data-name="Layer 1" xmlns="http://www.w3.org/2000/svg" viewBox="0 0 169.89 16.98"><defs><style>.cls-1{fill:#001E5B;}</style></defs><g class="cls-1"><path d="M0,11.87,5.31,5.15H.07V3.81H7.28V5L2,11.72H7.54v1.34H0Z"/><path d="M10,8.15a4.86,4.86,0,0,1,2.84-.78h2.09V6.73a2,2,0,0,0-.43-1.35A1.82,1.82,0,0,0,13,4.85a2.13,2.13,0,0,0-1.51.44,1.35,1.35,0,0,0-.45,1v0H9.44v0a2.46,2.46,0,0,1,1-1.92,4,4,0,0,1,2.65-.82,3.84,3.84,0,0,1,2.59.8,3,3,0,0,1,.92,2.38V11A7.41,7.41,0,0,0,16.66,12a4.09,4.09,0,0,0,.25.89v.14H15.33a3.2,3.2,0,0,1-.23-.57,3.54,3.54,0,0,1-.12-.7,3,3,0,0,1-1.05,1,3.62,3.62,0,0,1-1.87.44,3.42,3.42,0,0,1-2.24-.75,2.61,2.61,0,0,1-.93-2.15A2.53,2.53,0,0,1,10,8.15Zm1,3.34a2,2,0,0,0,1.42.45,2.66,2.66,0,0,0,1.75-.67,1.9,1.9,0,0,0,.78-1.42V8.53H13A3.15,3.15,0,0,0,11.16,9a1.48,1.48,0,0,0-.63,1.26A1.64,1.64,0,0,0,11,11.49Z"/><path d="M18.57,8.3a5,5,0,0,1,1.14-3.42,3.89,3.89,0,0,1,3.13-1.33,3.71,3.71,0,0,1,2.81,1,3.14,3.14,0,0,1,1,2.23v0H25v0a1.88,1.88,0,0,0-.52-1.32,2.12,2.12,0,0,0-1.66-.57,2.15,2.15,0,0,0-2,1,4.32,4.32,0,0,0-.64,2.42v.28A4.35,4.35,0,0,0,20.88,11a2.15,2.15,0,0,0,2,1,2.12,2.12,0,0,0,1.66-.57A1.88,1.88,0,0,0,25,10.1v0h1.59v0a3.15,3.15,0,0,1-1,2.23,3.74,3.74,0,0,1-2.81,1A3.91,3.91,0,0,1,19.71,12a5.08,5.08,0,0,1-1.14-3.42Z"/><path d="M34.18,5.45a3.74,3.74,0,0,1,3-1.64,3.45,3.45,0,0,1,1.45.3,5.32,5.32,0,0,1,1.1.64h.79l-1,5.23a1.7,1.7,0,0,0,.16,1.47,1.34,1.34,0,0,0,1.07.42,2.29,2.29,0,0,0,2-1.25,6.09,6.09,0,0,0,.78-3.27,5.93,5.93,0,0,0-6.3-6,6.5,6.5,0,0,0-5,2.24,7.84,7.84,0,0,0-2,5.41,6.53,6.53,0,0,0,1.76,4.88,6,6,0,0,0,4.39,1.71,7.85,7.85,0,0,0,2.09-.24,7,7,0,0,0,1.43-.55v1.37a4.89,4.89,0,0,1-1.45.59,9.29,9.29,0,0,1-2.07.2,7.76,7.76,0,0,1-5.47-2.14A7.53,7.53,0,0,1,28.48,9a8.87,8.87,0,0,1,2.57-6.36A8.22,8.22,0,0,1,37.14,0a7.78,7.78,0,0,1,5.7,2.14A7,7,0,0,1,45,7.35a6.6,6.6,0,0,1-1.22,4.13,3.62,3.62,0,0,1-3,1.58,3.53,3.53,0,0,1-1.78-.44,2.73,2.73,0,0,1-1.12-1.14,3.85,3.85,0,0,1-1,1.14,2.25,2.25,0,0,1-1.32.44,2.29,2.29,0,0,1-2-1,4.09,4.09,0,0,1-.73-2.55A6.34,6.34,0,0,1,34.18,5.45Zm.74,5.69a1.22,1.22,0,0,0,1.08.55,1.58,1.58,0,0,0,1.11-.46,3,3,0,0,0,.74-1.6l.87-4.22a2.44,2.44,0,0,0-.61-.27,2.82,2.82,0,0,0-.7-.1,2.37,2.37,0,0,0-2,1.29,5.9,5.9,0,0,0-.81,3.21A2.8,2.8,0,0,0,34.92,11.14Z"/><path d="M47.23,3.81h1.64v6a2.15,2.15,0,0,0,.49,1.59,2,2,0,0,0,1.42.48,2.3,2.3,0,0,0,1.37-.43,2.92,2.92,0,0,0,.94-1.09V3.81h1.63v9.25H53.24l-.07-1.19h-.05a3.47,3.47,0,0,1-1.22,1,3.6,3.6,0,0,1-1.61.37,3.11,3.11,0,0,1-2.23-.8,3.59,3.59,0,0,1-.83-2.66Z"/><path d="M57.32,3.81H58.8L58.87,5h.05A3,3,0,0,1,60,4,3.69,3.69,0,0,1,64.5,5,5.14,5.14,0,0,1,65.56,8.3v.28a5.14,5.14,0,0,1-1.06,3.34,3.41,3.41,0,0,1-2.81,1.32A3.65,3.65,0,0,1,60,12.89,3,3,0,0,1,59,12v4.75H57.32Zm2.53,7.61a2.34,2.34,0,0,0,1.49.48,2.12,2.12,0,0,0,1.93-1,4.27,4.27,0,0,0,.62-2.36V8.3a4.31,4.31,0,0,0-.62-2.37,2.12,2.12,0,0,0-1.93-1,2.34,2.34,0,0,0-1.49.49A2.87,2.87,0,0,0,59,6.56v3.76A3,3,0,0,0,59.85,11.42Z"/><path d="M66.3,3.81h5.28V5.06H66.3ZM68,4.57v-3h1.63v9.25a1.21,1.21,0,0,0,.25.87,1,1,0,0,0,.77.27,2.63,2.63,0,0,0,.49-.05l.48-.15v1.34a3.29,3.29,0,0,1-.6.19,4.14,4.14,0,0,1-.81.07,2.15,2.15,0,0,1-1.61-.61,2.69,2.69,0,0,1-.6-1.93Z"/><path d="M72.59,8.3a4.88,4.88,0,0,1,1.19-3.42,4.44,4.44,0,0,1,6.34,0A4.93,4.93,0,0,1,81.31,8.3v.28A5,5,0,0,1,80.12,12a4.47,4.47,0,0,1-6.34,0,4.92,4.92,0,0,1-1.19-3.42Zm1.67.28A4.13,4.13,0,0,0,74.94,11a2.54,2.54,0,0,0,4,0,4.2,4.2,0,0,0,.68-2.42V8.3A4.18,4.18,0,0,0,79,5.88a2.54,2.54,0,0,0-4,0,4.11,4.11,0,0,0-.68,2.42Z"/><path d="M83.86,3.81l1.7,6.09c.07.23.12.42.16.57s.08.33.12.57h.06c0-.24.09-.43.12-.57s.1-.34.18-.57l2-6.09h1.37L91.65,9.9q.12.35.18.57c0,.14.08.33.13.57H92l.12-.57q0-.22.15-.57l1.65-6.09h1.49l-2.85,9.25H91.29l-2-6c-.08-.23-.15-.46-.22-.7s-.13-.47-.18-.7h-.06c-.06.23-.12.47-.19.7s-.14.47-.21.7l-2,6H85.13L82.28,3.81Z"/><path d="M96.94,3.81h1.48L98.49,5h.05a3.84,3.84,0,0,1,1.23-1,3.55,3.55,0,0,1,1.6-.36,3.09,3.09,0,0,1,2.23.79,3.55,3.55,0,0,1,.83,2.66v6H102.8v-6a2.15,2.15,0,0,0-.5-1.59A1.94,1.94,0,0,0,100.89,5a2.35,2.35,0,0,0-1.38.42,2.89,2.89,0,0,0-.93,1.09v6.54H96.94Z"/><path d="M106.3,6.77h5V8.28h-5Z"/><path d="M114.26,10.34v0a1.37,1.37,0,0,0,.59,1.2,2.68,2.68,0,0,0,1.55.41,2.62,2.62,0,0,0,1.53-.39,1.18,1.18,0,0,0,.56-1,1.12,1.12,0,0,0-.45-.95A6.68,6.68,0,0,0,116.1,9a6.49,6.49,0,0,1-2.38-1,2.07,2.07,0,0,1-.88-1.77,2.33,2.33,0,0,1,1-1.9,3.88,3.88,0,0,1,2.52-.76,4,4,0,0,1,2.55.75,2.43,2.43,0,0,1,1,2v0h-1.62V6.3a1.28,1.28,0,0,0-.47-1,2.23,2.23,0,0,0-1.43-.37,2.25,2.25,0,0,0-1.41.35,1.09,1.09,0,0,0-.44.88A.93.93,0,0,0,115,7a7.65,7.65,0,0,0,2,.66,5.78,5.78,0,0,1,2.31,1,2.3,2.3,0,0,1,.81,1.89,2.51,2.51,0,0,1-.92,2,4.14,4.14,0,0,1-2.77.79,4.26,4.26,0,0,1-2.81-.8,2.67,2.67,0,0,1-1-2.14v0Z"/><path d="M121.54,8.3A5.2,5.2,0,0,1,122.6,5,3.69,3.69,0,0,1,127.1,4a2.81,2.81,0,0,1,1.08,1h0l.07-1.21h1.48V16.72h-1.64V12a2.87,2.87,0,0,1-1.08.92,3.59,3.59,0,0,1-1.65.35,3.41,3.41,0,0,1-2.81-1.32,5.2,5.2,0,0,1-1.06-3.34Zm2.29,2.64a2.12,2.12,0,0,0,1.93,1,2.36,2.36,0,0,0,1.5-.48,2.92,2.92,0,0,0,.88-1.1V6.56a2.85,2.85,0,0,0-.88-1.1,2.37,2.37,0,0,0-1.5-.49,2.12,2.12,0,0,0-1.93,1,4.31,4.31,0,0,0-.62,2.37v.28A4.27,4.27,0,0,0,123.83,10.94Z"/><path d="M132.78,11.38a1.29,1.29,0,0,1,1.7,0,1.18,1.18,0,0,1,0,1.55,1.15,1.15,0,0,1-1.7-1.55Z"/><path d="M136.75,8.3a5,5,0,0,1,1.14-3.42A3.89,3.89,0,0,1,141,3.55a3.67,3.67,0,0,1,2.8,1,3.14,3.14,0,0,1,1,2.23v0H143.2v0a1.88,1.88,0,0,0-.52-1.32A2.14,2.14,0,0,0,141,4.89a2.17,2.17,0,0,0-2,1,4.4,4.4,0,0,0-.63,2.42v.28a4.43,4.43,0,0,0,.63,2.42,2.17,2.17,0,0,0,2,1,2.14,2.14,0,0,0,1.66-.57,1.88,1.88,0,0,0,.52-1.32v0h1.58v0a3.15,3.15,0,0,1-1,2.23,3.7,3.7,0,0,1-2.8,1A3.91,3.91,0,0,1,137.89,12a5.08,5.08,0,0,1-1.14-3.42Z"/><path d="M146.14,8.3a4.92,4.92,0,0,1,1.18-3.42,4.45,4.45,0,0,1,6.35,0,4.93,4.93,0,0,1,1.19,3.42v.28A5,5,0,0,1,153.67,12a4.48,4.48,0,0,1-6.35,0,5,5,0,0,1-1.18-3.42Zm1.67.28a4.2,4.2,0,0,0,.67,2.42,2.55,2.55,0,0,0,4,0,4.2,4.2,0,0,0,.68-2.42V8.3a4.18,4.18,0,0,0-.68-2.42,2.55,2.55,0,0,0-4,0,4.18,4.18,0,0,0-.67,2.42Z"/><path d="M156.9,3.81h1.48L158.45,5h.05a3.65,3.65,0,0,1,1.19-1,3.56,3.56,0,0,1,3.16,0,2.3,2.3,0,0,1,1,1.19h.05A3.68,3.68,0,0,1,165.22,4a3.36,3.36,0,0,1,1.61-.37,3.07,3.07,0,0,1,2.25.79,3.63,3.63,0,0,1,.81,2.66v6h-1.63v-6a2.19,2.19,0,0,0-.48-1.59A1.79,1.79,0,0,0,166.44,5a2.15,2.15,0,0,0-1.32.42,3.13,3.13,0,0,0-.91,1.09v6.54h-1.63v-6a2.24,2.24,0,0,0-.47-1.59A1.83,1.83,0,0,0,160.76,5a2.17,2.17,0,0,0-1.32.42,3,3,0,0,0-.9,1.09v6.54H156.9Z"/></g></svg>
