<?xml version="1.0" encoding="UTF-8"?><svg id="Layer_1" data-name="Layer 1" xmlns="http://www.w3.org/2000/svg" viewBox="0 0 17.39 17.38"><defs><style>.cls-1 {fill: #1f2858;}</style></defs><g id="content"><path class="cls-1" d="m0,8.7C.12,3.82,3.86.09,8.74,0c4.81.13,8.54,3.84,8.65,8.7-.11,4.87-3.86,8.57-8.65,8.69C3.87,17.3.11,13.57,0,8.7Zm15.92,0c.02-3.97-3.2-7.2-7.18-7.23-4.01-.03-7.29,3.23-7.27,7.27.02,3.92,3.19,7.15,7.16,7.18,4.02.03,7.3-3.21,7.29-7.22Z"/><path class="cls-1" d="m8.68,10.86c-.2,0-.4,0-.6,0-.06,0-.11-.01-.11-.09.01-.38-.04-.77.05-1.15.12-.5.42-.85.91-1.04.13-.05.26-.09.39-.14,1.02-.41,1.06-1.66.35-2.28-.7-.61-1.72-.44-2.21.34-.11.18-.16.37-.18.57-.01.14-.06.16-.19.16-.36-.01-.73,0-1.09,0-.17,0-.18-.01-.17-.18.08-1.34,1.16-2.5,2.49-2.67,1.57-.2,2.97.84,3.25,2.39.22,1.28-.52,2.56-1.75,3.03-.06.02-.13.05-.19.07-.19.06-.19.02-.19.27,0,.19,0,.39,0,.58,0,.1-.03.14-.13.14-.2,0-.4,0-.6,0h0Z"/><path class="cls-1" d="m8.68,13.04c-.2,0-.39,0-.59,0-.09,0-.12-.03-.12-.12,0-.41,0-.81,0-1.22,0-.08.04-.11.12-.11.41,0,.81,0,1.22,0,.08,0,.11.04.11.12,0,.4,0,.8,0,1.21,0,.1-.04.13-.14.12-.2,0-.4,0-.6,0Z"/></g></svg>
