<svg xmlns="http://www.w3.org/2000/svg" viewBox="0 0 17.21 17.75"><defs><style>.cls-1{opacity:0.5;}.cls-2{fill:#010101;}</style></defs><g id="Layer_2" data-name="Layer 2"><g id="Layer_1-2" data-name="Layer 1"><g class="cls-1"><path class="cls-2" d="M15.34,17.74q-6.73,0-13.46,0A1.76,1.76,0,0,1,.09,15.38a8.83,8.83,0,0,1,3.56-5,7,7,0,0,0,3.56,1.89,6.9,6.9,0,0,0,6-1.58c.28-.24.45-.27.75,0a8.91,8.91,0,0,1,3.17,4.67A1.75,1.75,0,0,1,15.34,17.74Z"/><path class="cls-2" d="M13.9,5.31A5.3,5.3,0,1,1,8.61,0,5.32,5.32,0,0,1,13.9,5.31Z"/></g></g></g></svg>
